%FSLAX25Y25*%
%MOIN*%
G70*
G01*
G75*
G04 Layer_Color=8388736*
%ADD10R,0.05118X0.02165*%
%ADD11R,0.00984X0.02756*%
%ADD12R,0.02756X0.00984*%
%ADD13R,0.02756X0.01000*%
%ADD14R,0.01000X0.02756*%
%ADD15O,0.01102X0.05906*%
%ADD16O,0.05906X0.01102*%
%ADD17R,0.04331X0.02559*%
%ADD18O,0.08661X0.02362*%
%ADD19C,0.03937*%
%ADD20R,0.05118X0.05906*%
%ADD21R,0.05906X0.05118*%
%ADD22R,0.16535X0.05512*%
%ADD23R,0.09843X0.07874*%
%ADD24R,0.09055X0.01969*%
%ADD25R,0.05512X0.03543*%
%ADD26R,0.05118X0.06299*%
%ADD27R,0.07874X0.07874*%
%ADD28R,0.10630X0.06299*%
%ADD29R,0.07874X0.04724*%
%ADD30R,0.10236X0.08661*%
%ADD31C,0.00800*%
%ADD32C,0.01200*%
%ADD33C,0.01181*%
%ADD34C,0.01969*%
%ADD35C,0.01000*%
%ADD36C,0.00787*%
%ADD37C,0.02000*%
%ADD38O,0.06000X0.10000*%
G04:AMPARAMS|DCode=39|XSize=100mil|YSize=60mil|CornerRadius=0mil|HoleSize=0mil|Usage=FLASHONLY|Rotation=270.000|XOffset=0mil|YOffset=0mil|HoleType=Round|Shape=Octagon|*
%AMOCTAGOND39*
4,1,8,-0.01500,-0.05000,0.01500,-0.05000,0.03000,-0.03500,0.03000,0.03500,0.01500,0.05000,-0.01500,0.05000,-0.03000,0.03500,-0.03000,-0.03500,-0.01500,-0.05000,0.0*
%
%ADD39OCTAGOND39*%

G04:AMPARAMS|DCode=40|XSize=80mil|YSize=60mil|CornerRadius=0mil|HoleSize=0mil|Usage=FLASHONLY|Rotation=0.000|XOffset=0mil|YOffset=0mil|HoleType=Round|Shape=Octagon|*
%AMOCTAGOND40*
4,1,8,0.04000,-0.01500,0.04000,0.01500,0.02500,0.03000,-0.02500,0.03000,-0.04000,0.01500,-0.04000,-0.01500,-0.02500,-0.03000,0.02500,-0.03000,0.04000,-0.01500,0.0*
%
%ADD40OCTAGOND40*%

G04:AMPARAMS|DCode=41|XSize=31.5mil|YSize=39.37mil|CornerRadius=0mil|HoleSize=0mil|Usage=FLASHONLY|Rotation=90.000|XOffset=0mil|YOffset=0mil|HoleType=Round|Shape=Octagon|*
%AMOCTAGOND41*
4,1,8,-0.01969,-0.00787,-0.01969,0.00787,-0.01181,0.01575,0.01181,0.01575,0.01969,0.00787,0.01969,-0.00787,0.01181,-0.01575,-0.01181,-0.01575,-0.01969,-0.00787,0.0*
%
%ADD41OCTAGOND41*%

G04:AMPARAMS|DCode=42|XSize=35.43mil|YSize=47.24mil|CornerRadius=0mil|HoleSize=0mil|Usage=FLASHONLY|Rotation=90.000|XOffset=0mil|YOffset=0mil|HoleType=Round|Shape=Octagon|*
%AMOCTAGOND42*
4,1,8,-0.02362,-0.00886,-0.02362,0.00886,-0.01476,0.01772,0.01476,0.01772,0.02362,0.00886,0.02362,-0.00886,0.01476,-0.01772,-0.01476,-0.01772,-0.02362,-0.00886,0.0*
%
%ADD42OCTAGOND42*%

G04:AMPARAMS|DCode=43|XSize=80mil|YSize=60mil|CornerRadius=0mil|HoleSize=0mil|Usage=FLASHONLY|Rotation=90.000|XOffset=0mil|YOffset=0mil|HoleType=Round|Shape=Octagon|*
%AMOCTAGOND43*
4,1,8,0.01500,0.04000,-0.01500,0.04000,-0.03000,0.02500,-0.03000,-0.02500,-0.01500,-0.04000,0.01500,-0.04000,0.03000,-0.02500,0.03000,0.02500,0.01500,0.04000,0.0*
%
%ADD43OCTAGOND43*%

%ADD44C,0.02362*%
%ADD45R,0.09449X0.02913*%
%ADD46R,0.05512X0.03150*%
%ADD47R,0.05906X0.05118*%
%ADD48R,0.06890X0.02756*%
%ADD49R,0.05906X0.05906*%
%ADD50R,0.03150X0.05906*%
%ADD51R,0.06102X0.03937*%
%ADD52C,0.00984*%
%ADD53C,0.02362*%
%ADD54C,0.00600*%
%ADD55C,0.00827*%
%ADD56C,0.00394*%
%ADD57R,0.03937X0.10236*%
%ADD58R,0.05918X0.02965*%
%ADD59R,0.01784X0.03556*%
%ADD60R,0.03556X0.01784*%
%ADD61R,0.03556X0.01800*%
%ADD62R,0.01800X0.03556*%
%ADD63O,0.01902X0.06706*%
%ADD64O,0.06706X0.01902*%
%ADD65R,0.05131X0.03359*%
%ADD66O,0.09461X0.03162*%
%ADD67C,0.04737*%
%ADD68R,0.05918X0.06706*%
%ADD69R,0.06706X0.05918*%
%ADD70R,0.17335X0.06312*%
%ADD71R,0.10642X0.08674*%
%ADD72R,0.09855X0.02769*%
%ADD73R,0.06312X0.04343*%
%ADD74R,0.05918X0.07099*%
%ADD75R,0.08674X0.08674*%
%ADD76R,0.11430X0.07099*%
%ADD77R,0.08674X0.05524*%
%ADD78R,0.11036X0.09461*%
%ADD79O,0.06800X0.10800*%
G04:AMPARAMS|DCode=80|XSize=108mil|YSize=68mil|CornerRadius=0mil|HoleSize=0mil|Usage=FLASHONLY|Rotation=270.000|XOffset=0mil|YOffset=0mil|HoleType=Round|Shape=Octagon|*
%AMOCTAGOND80*
4,1,8,-0.01700,-0.05400,0.01700,-0.05400,0.03400,-0.03700,0.03400,0.03700,0.01700,0.05400,-0.01700,0.05400,-0.03400,0.03700,-0.03400,-0.03700,-0.01700,-0.05400,0.0*
%
%ADD80OCTAGOND80*%

%ADD81R,0.00800X0.00800*%
%ADD82R,0.00800X0.00800*%
G04:AMPARAMS|DCode=83|XSize=88mil|YSize=68mil|CornerRadius=0mil|HoleSize=0mil|Usage=FLASHONLY|Rotation=0.000|XOffset=0mil|YOffset=0mil|HoleType=Round|Shape=Octagon|*
%AMOCTAGOND83*
4,1,8,0.04400,-0.01700,0.04400,0.01700,0.02700,0.03400,-0.02700,0.03400,-0.04400,0.01700,-0.04400,-0.01700,-0.02700,-0.03400,0.02700,-0.03400,0.04400,-0.01700,0.0*
%
%ADD83OCTAGOND83*%

G04:AMPARAMS|DCode=84|XSize=39.5mil|YSize=47.37mil|CornerRadius=0mil|HoleSize=0mil|Usage=FLASHONLY|Rotation=90.000|XOffset=0mil|YOffset=0mil|HoleType=Round|Shape=Octagon|*
%AMOCTAGOND84*
4,1,8,-0.02369,-0.00987,-0.02369,0.00987,-0.01381,0.01975,0.01381,0.01975,0.02369,0.00987,0.02369,-0.00987,0.01381,-0.01975,-0.01381,-0.01975,-0.02369,-0.00987,0.0*
%
%ADD84OCTAGOND84*%

G04:AMPARAMS|DCode=85|XSize=43.43mil|YSize=55.24mil|CornerRadius=0mil|HoleSize=0mil|Usage=FLASHONLY|Rotation=90.000|XOffset=0mil|YOffset=0mil|HoleType=Round|Shape=Octagon|*
%AMOCTAGOND85*
4,1,8,-0.02762,-0.01086,-0.02762,0.01086,-0.01676,0.02172,0.01676,0.02172,0.02762,0.01086,0.02762,-0.01086,0.01676,-0.02172,-0.01676,-0.02172,-0.02762,-0.01086,0.0*
%
%ADD85OCTAGOND85*%

G04:AMPARAMS|DCode=86|XSize=88mil|YSize=68mil|CornerRadius=0mil|HoleSize=0mil|Usage=FLASHONLY|Rotation=90.000|XOffset=0mil|YOffset=0mil|HoleType=Round|Shape=Octagon|*
%AMOCTAGOND86*
4,1,8,0.01700,0.04400,-0.01700,0.04400,-0.03400,0.02700,-0.03400,-0.02700,-0.01700,-0.04400,0.01700,-0.04400,0.03400,-0.02700,0.03400,0.02700,0.01700,0.04400,0.0*
%
%ADD86OCTAGOND86*%

%ADD87C,0.03162*%
D58*
X486811Y222342D02*
D03*
Y227264D02*
D03*
Y232185D02*
D03*
Y237106D02*
D03*
X477362Y222342D02*
D03*
Y227264D02*
D03*
Y232185D02*
D03*
Y237106D02*
D03*
D59*
X501772Y200000D02*
D03*
X503740D02*
D03*
X505709D02*
D03*
X507677D02*
D03*
Y185827D02*
D03*
X505709D02*
D03*
X503740D02*
D03*
X501772D02*
D03*
D60*
X511811Y195866D02*
D03*
Y193898D02*
D03*
Y191929D02*
D03*
Y189961D02*
D03*
X497638D02*
D03*
Y191929D02*
D03*
Y193898D02*
D03*
Y195866D02*
D03*
D61*
X493898Y235215D02*
D03*
Y233315D02*
D03*
Y231315D02*
D03*
Y229315D02*
D03*
Y227315D02*
D03*
Y225415D02*
D03*
X514764D02*
D03*
Y227315D02*
D03*
Y229315D02*
D03*
Y231315D02*
D03*
Y233315D02*
D03*
Y235215D02*
D03*
D62*
X497431Y221850D02*
D03*
X499431D02*
D03*
X501331D02*
D03*
X503331D02*
D03*
X505331D02*
D03*
X507331D02*
D03*
X509231D02*
D03*
X511231D02*
D03*
Y238779D02*
D03*
X509231D02*
D03*
X507331D02*
D03*
X505331D02*
D03*
X503331D02*
D03*
X501331D02*
D03*
X499431D02*
D03*
X497431D02*
D03*
D63*
X461221Y270276D02*
D03*
X459252D02*
D03*
X457283D02*
D03*
X455315D02*
D03*
X453346D02*
D03*
X451378D02*
D03*
X449409D02*
D03*
X447441D02*
D03*
X445472D02*
D03*
X443504D02*
D03*
X441535D02*
D03*
X439567D02*
D03*
Y302165D02*
D03*
X441535D02*
D03*
X443504D02*
D03*
X445472D02*
D03*
X447441D02*
D03*
X449409D02*
D03*
X451378D02*
D03*
X453346D02*
D03*
X455315D02*
D03*
X457283D02*
D03*
X459252D02*
D03*
X461221D02*
D03*
D64*
X434449Y275394D02*
D03*
Y277362D02*
D03*
Y279331D02*
D03*
Y281299D02*
D03*
Y283268D02*
D03*
Y285236D02*
D03*
Y287205D02*
D03*
Y289173D02*
D03*
Y291142D02*
D03*
Y293110D02*
D03*
Y295079D02*
D03*
Y297047D02*
D03*
X466339D02*
D03*
Y295079D02*
D03*
Y293110D02*
D03*
Y291142D02*
D03*
Y289173D02*
D03*
Y287205D02*
D03*
Y285236D02*
D03*
Y283268D02*
D03*
Y281299D02*
D03*
Y279331D02*
D03*
Y277362D02*
D03*
Y275394D02*
D03*
D65*
X508268Y395472D02*
D03*
Y387992D02*
D03*
X498819D02*
D03*
Y391732D02*
D03*
Y395472D02*
D03*
D66*
X461024Y348209D02*
D03*
Y353209D02*
D03*
Y358209D02*
D03*
Y363209D02*
D03*
X442126Y348209D02*
D03*
Y353209D02*
D03*
Y358209D02*
D03*
Y363209D02*
D03*
D67*
X417717Y291929D02*
D03*
X441535Y236221D02*
D03*
X520472Y371457D02*
D03*
X406102Y396260D02*
D03*
X510630Y217717D02*
D03*
X494882D02*
D03*
X505381D02*
D03*
X500131D02*
D03*
X506890Y361221D02*
D03*
D68*
X453150Y236024D02*
D03*
X445669D02*
D03*
X486417Y331496D02*
D03*
X493898D02*
D03*
X486417Y321654D02*
D03*
X493898D02*
D03*
X486417Y311811D02*
D03*
X493898D02*
D03*
X486417Y301969D02*
D03*
X493898D02*
D03*
X486417Y341339D02*
D03*
X493898D02*
D03*
X486417Y351181D02*
D03*
X493898D02*
D03*
X404331Y252165D02*
D03*
X411811D02*
D03*
X404331Y244882D02*
D03*
X411811D02*
D03*
X439961Y325590D02*
D03*
X447441D02*
D03*
X417913Y274410D02*
D03*
X410433D02*
D03*
X410433Y267717D02*
D03*
X417913D02*
D03*
X508465Y205512D02*
D03*
X500984D02*
D03*
X478543Y214961D02*
D03*
X486024D02*
D03*
X493898Y205512D02*
D03*
X486417D02*
D03*
X489764Y195276D02*
D03*
X482283D02*
D03*
X504331Y253346D02*
D03*
X496850D02*
D03*
X504331Y246850D02*
D03*
X496850D02*
D03*
X511417D02*
D03*
X518898D02*
D03*
X511221Y253346D02*
D03*
X518701D02*
D03*
X441732Y262205D02*
D03*
X434252D02*
D03*
X478937Y290158D02*
D03*
X486417D02*
D03*
X465354Y269685D02*
D03*
X472835D02*
D03*
X432283Y348622D02*
D03*
X424803D02*
D03*
X478937Y395472D02*
D03*
X471457D02*
D03*
X465354Y262992D02*
D03*
X472835D02*
D03*
X482283Y363583D02*
D03*
X474803D02*
D03*
D69*
X469488Y348228D02*
D03*
Y355709D02*
D03*
X476378D02*
D03*
Y348228D02*
D03*
X411417Y352165D02*
D03*
Y344685D02*
D03*
X404724Y352165D02*
D03*
Y344685D02*
D03*
X518898Y196063D02*
D03*
Y188583D02*
D03*
X520079Y226575D02*
D03*
Y234055D02*
D03*
X456299Y326181D02*
D03*
Y333661D02*
D03*
X447638Y339961D02*
D03*
Y332480D02*
D03*
X440158Y339961D02*
D03*
Y332480D02*
D03*
X451575Y311614D02*
D03*
Y319094D02*
D03*
X516339Y395079D02*
D03*
Y387598D02*
D03*
X491929Y396063D02*
D03*
Y388583D02*
D03*
X461024Y312402D02*
D03*
Y319882D02*
D03*
X467717Y312402D02*
D03*
Y319882D02*
D03*
D70*
X476772Y385039D02*
D03*
Y370472D02*
D03*
D71*
X419488Y194685D02*
D03*
Y229724D02*
D03*
X397835D02*
D03*
Y194685D02*
D03*
D72*
X419882Y205906D02*
D03*
Y209055D02*
D03*
Y212205D02*
D03*
Y215354D02*
D03*
Y218504D02*
D03*
D73*
X423622Y327362D02*
D03*
X431890Y323622D02*
D03*
Y331102D02*
D03*
D74*
X413583Y312692D02*
D03*
X406102D02*
D03*
X413583Y319779D02*
D03*
X406102D02*
D03*
D75*
X442913Y373031D02*
D03*
X459449D02*
D03*
D76*
X430512Y360433D02*
D03*
Y371457D02*
D03*
X419488Y360433D02*
D03*
Y371457D02*
D03*
D77*
X501575Y379134D02*
D03*
X512598D02*
D03*
D78*
X461024Y387992D02*
D03*
X441339D02*
D03*
D79*
X450433Y250197D02*
D03*
D80*
X470433D02*
D03*
D81*
X417717Y291929D02*
D03*
X441535Y236221D02*
D03*
X520472Y371457D02*
D03*
X406102Y396260D02*
D03*
X510630Y217717D02*
D03*
X494882D02*
D03*
X505381D02*
D03*
D82*
X500131D02*
D03*
X503937Y283465D02*
D03*
X401575D02*
D03*
D83*
X396260Y381417D02*
D03*
Y391417D02*
D03*
D84*
X396063Y323602D02*
D03*
X395472Y240531D02*
D03*
X521063Y292539D02*
D03*
D85*
X396063Y328602D02*
D03*
Y333602D02*
D03*
Y338602D02*
D03*
Y307992D02*
D03*
Y312992D02*
D03*
Y317992D02*
D03*
X395472Y245532D02*
D03*
Y250532D02*
D03*
Y255532D02*
D03*
X521063Y271929D02*
D03*
Y266929D02*
D03*
Y261929D02*
D03*
Y287539D02*
D03*
Y282539D02*
D03*
Y277539D02*
D03*
X396063Y353622D02*
D03*
Y348622D02*
D03*
Y343622D02*
D03*
D86*
X502205Y301496D02*
D03*
X512205D02*
D03*
X522205D02*
D03*
X502205Y311496D02*
D03*
X512205D02*
D03*
X522205D02*
D03*
X502205Y321496D02*
D03*
X512205D02*
D03*
X522205D02*
D03*
X502205Y331496D02*
D03*
X512205D02*
D03*
X522205D02*
D03*
X502205Y341496D02*
D03*
X512205D02*
D03*
X522205D02*
D03*
X502205Y351496D02*
D03*
X512205D02*
D03*
X522205D02*
D03*
D87*
X409646Y220866D02*
D03*
Y203544D02*
D03*
X429134Y393701D02*
D03*
Y389764D02*
D03*
Y385827D02*
D03*
Y381890D02*
D03*
X425197Y393701D02*
D03*
Y389764D02*
D03*
Y385827D02*
D03*
Y381890D02*
D03*
X421260Y393701D02*
D03*
Y389764D02*
D03*
Y385827D02*
D03*
Y381890D02*
D03*
X456102Y241142D02*
D03*
X454043Y263173D02*
D03*
X434252Y256693D02*
D03*
X476575Y258268D02*
D03*
X450681Y263386D02*
D03*
X491732Y249213D02*
D03*
X485236Y258661D02*
D03*
X479330Y264763D02*
D03*
X487598Y261221D02*
D03*
X490354Y263189D02*
D03*
X489370Y254331D02*
D03*
X492520Y265945D02*
D03*
X481495Y267322D02*
D03*
X483661Y269882D02*
D03*
X486417Y272047D02*
D03*
X468110Y242126D02*
D03*
X514172Y207874D02*
D03*
X513386Y204331D02*
D03*
X514173Y200787D02*
D03*
X443779Y283543D02*
D03*
X440590Y279960D02*
D03*
X445669Y280709D02*
D03*
X436417Y318504D02*
D03*
X444685Y308465D02*
D03*
X417322Y351180D02*
D03*
X477165Y343307D02*
D03*
X510433Y372835D02*
D03*
X493307Y379528D02*
D03*
X490158Y382874D02*
D03*
X519387Y382384D02*
D03*
X469095Y363189D02*
D03*
X449016Y362008D02*
D03*
X467323Y336221D02*
D03*
X464764Y302165D02*
D03*
X526772Y238976D02*
D03*
X457874Y296063D02*
D03*
X431890Y318110D02*
D03*
X431496Y336614D02*
D03*
X427558Y281889D02*
D03*
X427362Y285236D02*
D03*
X427165Y288976D02*
D03*
X423621Y289370D02*
D03*
X415748Y299606D02*
D03*
X425591Y245669D02*
D03*
X417717Y249213D02*
D03*
X426772Y211417D02*
D03*
Y215354D02*
D03*
X418503Y288582D02*
D03*
X400591Y331693D02*
D03*
X447638Y290354D02*
D03*
X410236Y338570D02*
D03*
X470866Y215158D02*
D03*
X457873Y275590D02*
D03*
X511024Y261221D02*
D03*
X445276Y286614D02*
D03*
X470866Y203937D02*
D03*
X498425Y233858D02*
D03*
X498424Y200393D02*
D03*
X491732Y239902D02*
D03*
X400394Y365354D02*
D03*
X459448Y290944D02*
D03*
X451968Y281890D02*
D03*
X402362Y312205D02*
D03*
Y319685D02*
D03*
X445668Y317716D02*
D03*
X413779Y219685D02*
D03*
X400394Y221654D02*
D03*
X506174Y189764D02*
D03*
X501967Y196063D02*
D03*
X475984Y195472D02*
D03*
X482283Y207087D02*
D03*
X490551Y214961D02*
D03*
X466929Y206299D02*
D03*
X410236Y279134D02*
D03*
X491339Y290158D02*
D03*
X525984Y244488D02*
D03*
Y250787D02*
D03*
X491929Y245866D02*
D03*
X492126Y222244D02*
D03*
X427559Y201969D02*
D03*
X525197Y229921D02*
D03*
X405118Y339764D02*
D03*
X468504Y301772D02*
D03*
X473819Y304724D02*
D03*
X456693Y309055D02*
D03*
X468504Y327559D02*
D03*
X524409Y234252D02*
D03*
X514137Y218540D02*
D03*
X508267Y192126D02*
D03*
X499803Y362008D02*
D03*
X479331Y275984D02*
D03*
X450387Y293701D02*
D03*
X454724Y296063D02*
D03*
X473622Y287402D02*
D03*
X474015Y279133D02*
D03*
X424016Y256693D02*
D03*
X514567Y215354D02*
D03*
X500410Y258760D02*
D03*
X429527Y272834D02*
D03*
X444882Y294882D02*
D03*
X420472Y350000D02*
D03*
X455905Y316535D02*
D03*
X480709Y241535D02*
D03*
M02*
