%FSLAX25Y25*%
%MOIN*%
G70*
G01*
G75*
G04 Layer_Color=32896*
%ADD10R,0.05906X0.05118*%
%ADD11R,0.05118X0.05906*%
%ADD12R,0.10630X0.06299*%
%ADD13R,0.07874X0.07874*%
%ADD14C,0.03937*%
%ADD15R,0.10236X0.08661*%
%ADD16R,0.07874X0.04724*%
%ADD17R,0.05118X0.06299*%
%ADD18R,0.05512X0.03543*%
%ADD19R,0.09843X0.07874*%
%ADD20R,0.09055X0.01969*%
%ADD21R,0.16535X0.05512*%
%ADD22O,0.08661X0.02362*%
%ADD23R,0.04331X0.02559*%
%ADD24O,0.00984X0.05906*%
%ADD25O,0.05906X0.00984*%
%ADD26R,0.02362X0.00984*%
%ADD27R,0.00984X0.02362*%
%ADD28R,0.02165X0.00984*%
%ADD29R,0.00984X0.02165*%
%ADD30R,0.05118X0.02165*%
%ADD31C,0.01181*%
%ADD32C,0.00800*%
%ADD33C,0.01200*%
%ADD34C,0.02000*%
%ADD35C,0.01000*%
%ADD36C,0.00787*%
%ADD37C,0.01969*%
%ADD38C,0.02362*%
G04:AMPARAMS|DCode=39|XSize=35.43mil|YSize=47.24mil|CornerRadius=0mil|HoleSize=0mil|Usage=FLASHONLY|Rotation=90.000|XOffset=0mil|YOffset=0mil|HoleType=Round|Shape=Octagon|*
%AMOCTAGOND39*
4,1,8,-0.02362,-0.00886,-0.02362,0.00886,-0.01476,0.01772,0.01476,0.01772,0.02362,0.00886,0.02362,-0.00886,0.01476,-0.01772,-0.01476,-0.01772,-0.02362,-0.00886,0.0*
%
%ADD39OCTAGOND39*%

G04:AMPARAMS|DCode=40|XSize=80mil|YSize=60mil|CornerRadius=0mil|HoleSize=0mil|Usage=FLASHONLY|Rotation=90.000|XOffset=0mil|YOffset=0mil|HoleType=Round|Shape=Octagon|*
%AMOCTAGOND40*
4,1,8,0.01500,0.04000,-0.01500,0.04000,-0.03000,0.02500,-0.03000,-0.02500,-0.01500,-0.04000,0.01500,-0.04000,0.03000,-0.02500,0.03000,0.02500,0.01500,0.04000,0.0*
%
%ADD40OCTAGOND40*%

G04:AMPARAMS|DCode=41|XSize=31.5mil|YSize=39.37mil|CornerRadius=0mil|HoleSize=0mil|Usage=FLASHONLY|Rotation=270.000|XOffset=0mil|YOffset=0mil|HoleType=Round|Shape=Octagon|*
%AMOCTAGOND41*
4,1,8,0.01969,0.00787,0.01969,-0.00787,0.01181,-0.01575,-0.01181,-0.01575,-0.01969,-0.00787,-0.01969,0.00787,-0.01181,0.01575,0.01181,0.01575,0.01969,0.00787,0.0*
%
%ADD41OCTAGOND41*%

G04:AMPARAMS|DCode=42|XSize=80mil|YSize=60mil|CornerRadius=0mil|HoleSize=0mil|Usage=FLASHONLY|Rotation=0.000|XOffset=0mil|YOffset=0mil|HoleType=Round|Shape=Octagon|*
%AMOCTAGOND42*
4,1,8,0.04000,-0.01500,0.04000,0.01500,0.02500,0.03000,-0.02500,0.03000,-0.04000,0.01500,-0.04000,-0.01500,-0.02500,-0.03000,0.02500,-0.03000,0.04000,-0.01500,0.0*
%
%ADD42OCTAGOND42*%

G04:AMPARAMS|DCode=43|XSize=100mil|YSize=60mil|CornerRadius=0mil|HoleSize=0mil|Usage=FLASHONLY|Rotation=270.000|XOffset=0mil|YOffset=0mil|HoleType=Round|Shape=Octagon|*
%AMOCTAGOND43*
4,1,8,-0.01500,-0.05000,0.01500,-0.05000,0.03000,-0.03500,0.03000,0.03500,0.01500,0.05000,-0.01500,0.05000,-0.03000,0.03500,-0.03000,-0.03500,-0.01500,-0.05000,0.0*
%
%ADD43OCTAGOND43*%

%ADD44O,0.06000X0.10000*%
%ADD45R,0.06102X0.03937*%
%ADD46R,0.03150X0.05906*%
%ADD47R,0.05906X0.05906*%
%ADD48R,0.06890X0.02756*%
%ADD49R,0.05906X0.05118*%
%ADD50R,0.05512X0.03150*%
%ADD51R,0.09449X0.02913*%
%ADD52C,0.00984*%
%ADD53C,0.02362*%
%ADD54C,0.00394*%
%ADD55C,0.00827*%
%ADD56C,0.00600*%
%ADD57R,0.03937X0.10236*%
%ADD58R,0.06706X0.05918*%
%ADD59R,0.05918X0.06706*%
%ADD60R,0.11430X0.07099*%
%ADD61R,0.08674X0.08674*%
%ADD62C,0.04737*%
%ADD63R,0.11036X0.09461*%
%ADD64R,0.08674X0.05524*%
%ADD65R,0.05918X0.07099*%
%ADD66R,0.06312X0.04343*%
%ADD67R,0.10642X0.08674*%
%ADD68R,0.09855X0.02769*%
%ADD69R,0.17335X0.06312*%
%ADD70O,0.09461X0.03162*%
%ADD71R,0.05131X0.03359*%
%ADD72O,0.01784X0.06706*%
%ADD73O,0.06706X0.01784*%
%ADD74R,0.03162X0.01784*%
%ADD75R,0.01784X0.03162*%
%ADD76R,0.02965X0.01784*%
%ADD77R,0.01784X0.02965*%
%ADD78R,0.05918X0.02965*%
%ADD79R,0.00800X0.00800*%
%ADD80C,0.03162*%
G04:AMPARAMS|DCode=81|XSize=43.43mil|YSize=55.24mil|CornerRadius=0mil|HoleSize=0mil|Usage=FLASHONLY|Rotation=90.000|XOffset=0mil|YOffset=0mil|HoleType=Round|Shape=Octagon|*
%AMOCTAGOND81*
4,1,8,-0.02762,-0.01086,-0.02762,0.01086,-0.01676,0.02172,0.01676,0.02172,0.02762,0.01086,0.02762,-0.01086,0.01676,-0.02172,-0.01676,-0.02172,-0.02762,-0.01086,0.0*
%
%ADD81OCTAGOND81*%

G04:AMPARAMS|DCode=82|XSize=88mil|YSize=68mil|CornerRadius=0mil|HoleSize=0mil|Usage=FLASHONLY|Rotation=90.000|XOffset=0mil|YOffset=0mil|HoleType=Round|Shape=Octagon|*
%AMOCTAGOND82*
4,1,8,0.01700,0.04400,-0.01700,0.04400,-0.03400,0.02700,-0.03400,-0.02700,-0.01700,-0.04400,0.01700,-0.04400,0.03400,-0.02700,0.03400,0.02700,0.01700,0.04400,0.0*
%
%ADD82OCTAGOND82*%

G04:AMPARAMS|DCode=83|XSize=39.5mil|YSize=47.37mil|CornerRadius=0mil|HoleSize=0mil|Usage=FLASHONLY|Rotation=270.000|XOffset=0mil|YOffset=0mil|HoleType=Round|Shape=Octagon|*
%AMOCTAGOND83*
4,1,8,0.02369,0.00987,0.02369,-0.00987,0.01381,-0.01975,-0.01381,-0.01975,-0.02369,-0.00987,-0.02369,0.00987,-0.01381,0.01975,0.01381,0.01975,0.02369,0.00987,0.0*
%
%ADD83OCTAGOND83*%

G04:AMPARAMS|DCode=84|XSize=88mil|YSize=68mil|CornerRadius=0mil|HoleSize=0mil|Usage=FLASHONLY|Rotation=0.000|XOffset=0mil|YOffset=0mil|HoleType=Round|Shape=Octagon|*
%AMOCTAGOND84*
4,1,8,0.04400,-0.01700,0.04400,0.01700,0.02700,0.03400,-0.02700,0.03400,-0.04400,0.01700,-0.04400,-0.01700,-0.02700,-0.03400,0.02700,-0.03400,0.04400,-0.01700,0.0*
%
%ADD84OCTAGOND84*%

G04:AMPARAMS|DCode=85|XSize=108mil|YSize=68mil|CornerRadius=0mil|HoleSize=0mil|Usage=FLASHONLY|Rotation=270.000|XOffset=0mil|YOffset=0mil|HoleType=Round|Shape=Octagon|*
%AMOCTAGOND85*
4,1,8,-0.01700,-0.05400,0.01700,-0.05400,0.03400,-0.03700,0.03400,0.03700,0.01700,0.05400,-0.01700,0.05400,-0.03400,0.03700,-0.03400,-0.03700,-0.01700,-0.05400,0.0*
%
%ADD85OCTAGOND85*%

%ADD86O,0.06800X0.10800*%
%ADD87R,0.00800X0.00800*%
%ADD88R,0.06902X0.04737*%
%ADD89R,0.03950X0.06706*%
%ADD90R,0.06706X0.06706*%
%ADD91R,0.07690X0.03556*%
%ADD92R,0.06706X0.05918*%
%ADD93R,0.06312X0.03950*%
%ADD94R,0.10249X0.03713*%
%ADD95C,0.01575*%
D31*
X402362Y362795D02*
G03*
X402362Y362795I-394J0D01*
G01*
Y375984D02*
G03*
X402362Y375984I-394J0D01*
G01*
D36*
X465945Y218307D02*
X467520D01*
X465945Y223031D02*
X467520D01*
X465945Y230512D02*
X467520D01*
X465945Y235236D02*
X467520D01*
X465945Y224410D02*
X467520D01*
X465945Y229134D02*
X467520D01*
X516142Y358268D02*
X517717D01*
X516142Y362992D02*
X517717D01*
X400000Y211417D02*
Y212992D01*
X395276Y211417D02*
Y212992D01*
X520866Y191339D02*
Y192913D01*
X516142Y191339D02*
Y192913D01*
X527559Y191339D02*
Y192913D01*
X522835Y191339D02*
Y192913D01*
X437008Y271654D02*
Y273228D01*
X432283Y271654D02*
Y273228D01*
X479528Y312205D02*
Y313779D01*
X474803Y312205D02*
Y313779D01*
X479528Y326378D02*
Y327953D01*
X474803Y326378D02*
Y327953D01*
X433465Y218898D02*
X435039D01*
X433465Y214173D02*
X435039D01*
X433465Y212205D02*
X435039D01*
X433465Y207480D02*
X435039D01*
X407480Y230315D02*
Y231890D01*
X412205Y230315D02*
Y231890D01*
X407480Y211417D02*
Y212992D01*
X402756Y211417D02*
Y212992D01*
X416142Y230315D02*
Y231890D01*
X420866Y230315D02*
Y231890D01*
X467728Y349929D02*
Y351504D01*
X463004Y349929D02*
Y351504D01*
X469882Y350000D02*
Y351575D01*
X474606Y350000D02*
Y351575D01*
X409449Y290945D02*
X411024D01*
X409449Y295669D02*
X411024D01*
X450000Y214567D02*
Y216142D01*
X454724Y214567D02*
Y216142D01*
X446850Y320866D02*
X453937D01*
X446850Y340551D02*
X453937D01*
X427559Y326772D02*
X429134D01*
X427559Y322047D02*
X429134D01*
X427559Y333858D02*
X429134D01*
X427559Y329134D02*
X429134D01*
X409055Y329134D02*
X410630D01*
X409055Y324410D02*
X410630D01*
X409055Y336614D02*
X410630D01*
X409055Y331890D02*
X410630D01*
X409055Y340945D02*
X410630D01*
X409055Y345669D02*
X410630D01*
X409055Y314764D02*
X410630D01*
X409055Y310039D02*
X410630D01*
X409055Y322047D02*
X410630D01*
X409055Y317323D02*
X410630D01*
D52*
X460335Y341555D02*
G03*
X460335Y341555I-492J0D01*
G01*
D54*
X475787Y201772D02*
Y248819D01*
X521457Y201772D02*
Y248819D01*
X475787Y201772D02*
X521457D01*
X475787Y248819D02*
X521260D01*
X399213Y358858D02*
Y364370D01*
X404331D01*
Y358858D02*
Y364370D01*
Y353346D02*
Y358858D01*
X399213Y353346D02*
X404331D01*
X399213D02*
Y358858D01*
Y372047D02*
Y377559D01*
X404331D01*
Y372047D02*
Y377559D01*
Y366535D02*
Y372047D01*
X399213Y366535D02*
X404331D01*
X399213D02*
Y372047D01*
D55*
X453937Y320866D02*
X456894D01*
Y340551D01*
X453937D02*
X456894D01*
X443894D02*
X453937D01*
X443894Y320866D02*
Y340551D01*
Y320866D02*
X446850D01*
D95*
X444095Y317717D02*
G03*
X444095Y317717I-787J0D01*
G01*
M02*
