%FSLAX25Y25*%
%MOIN*%
G70*
G01*
G75*
G04 Layer_Color=65535*
%ADD10R,0.05118X0.02165*%
%ADD11R,0.00984X0.02756*%
%ADD12R,0.02756X0.00984*%
%ADD13R,0.02756X0.01000*%
%ADD14R,0.01000X0.02756*%
%ADD15O,0.01102X0.05906*%
%ADD16O,0.05906X0.01102*%
%ADD17R,0.04331X0.02559*%
%ADD18O,0.08661X0.02362*%
%ADD19C,0.03937*%
%ADD20R,0.05118X0.05906*%
%ADD21R,0.05906X0.05118*%
%ADD22R,0.16535X0.05512*%
%ADD23R,0.09843X0.07874*%
%ADD24R,0.09055X0.01969*%
%ADD25R,0.05512X0.03543*%
%ADD26R,0.05118X0.06299*%
%ADD27R,0.07874X0.07874*%
%ADD28R,0.10630X0.06299*%
%ADD29R,0.07874X0.04724*%
%ADD30R,0.10236X0.08661*%
%ADD31C,0.00800*%
%ADD32C,0.01200*%
%ADD33C,0.01181*%
%ADD34C,0.01969*%
%ADD35C,0.01000*%
%ADD36C,0.00787*%
%ADD37C,0.02000*%
%ADD38O,0.06000X0.10000*%
G04:AMPARAMS|DCode=39|XSize=100mil|YSize=60mil|CornerRadius=0mil|HoleSize=0mil|Usage=FLASHONLY|Rotation=270.000|XOffset=0mil|YOffset=0mil|HoleType=Round|Shape=Octagon|*
%AMOCTAGOND39*
4,1,8,-0.01500,-0.05000,0.01500,-0.05000,0.03000,-0.03500,0.03000,0.03500,0.01500,0.05000,-0.01500,0.05000,-0.03000,0.03500,-0.03000,-0.03500,-0.01500,-0.05000,0.0*
%
%ADD39OCTAGOND39*%

G04:AMPARAMS|DCode=40|XSize=80mil|YSize=60mil|CornerRadius=0mil|HoleSize=0mil|Usage=FLASHONLY|Rotation=0.000|XOffset=0mil|YOffset=0mil|HoleType=Round|Shape=Octagon|*
%AMOCTAGOND40*
4,1,8,0.04000,-0.01500,0.04000,0.01500,0.02500,0.03000,-0.02500,0.03000,-0.04000,0.01500,-0.04000,-0.01500,-0.02500,-0.03000,0.02500,-0.03000,0.04000,-0.01500,0.0*
%
%ADD40OCTAGOND40*%

G04:AMPARAMS|DCode=41|XSize=31.5mil|YSize=39.37mil|CornerRadius=0mil|HoleSize=0mil|Usage=FLASHONLY|Rotation=90.000|XOffset=0mil|YOffset=0mil|HoleType=Round|Shape=Octagon|*
%AMOCTAGOND41*
4,1,8,-0.01969,-0.00787,-0.01969,0.00787,-0.01181,0.01575,0.01181,0.01575,0.01969,0.00787,0.01969,-0.00787,0.01181,-0.01575,-0.01181,-0.01575,-0.01969,-0.00787,0.0*
%
%ADD41OCTAGOND41*%

G04:AMPARAMS|DCode=42|XSize=35.43mil|YSize=47.24mil|CornerRadius=0mil|HoleSize=0mil|Usage=FLASHONLY|Rotation=90.000|XOffset=0mil|YOffset=0mil|HoleType=Round|Shape=Octagon|*
%AMOCTAGOND42*
4,1,8,-0.02362,-0.00886,-0.02362,0.00886,-0.01476,0.01772,0.01476,0.01772,0.02362,0.00886,0.02362,-0.00886,0.01476,-0.01772,-0.01476,-0.01772,-0.02362,-0.00886,0.0*
%
%ADD42OCTAGOND42*%

G04:AMPARAMS|DCode=43|XSize=80mil|YSize=60mil|CornerRadius=0mil|HoleSize=0mil|Usage=FLASHONLY|Rotation=90.000|XOffset=0mil|YOffset=0mil|HoleType=Round|Shape=Octagon|*
%AMOCTAGOND43*
4,1,8,0.01500,0.04000,-0.01500,0.04000,-0.03000,0.02500,-0.03000,-0.02500,-0.01500,-0.04000,0.01500,-0.04000,0.03000,-0.02500,0.03000,0.02500,0.01500,0.04000,0.0*
%
%ADD43OCTAGOND43*%

%ADD44C,0.02362*%
%ADD45R,0.09449X0.02913*%
%ADD46R,0.05512X0.03150*%
%ADD47R,0.05906X0.05118*%
%ADD48R,0.06890X0.02756*%
%ADD49R,0.05906X0.05906*%
%ADD50R,0.03150X0.05906*%
%ADD51R,0.06102X0.03937*%
%ADD52C,0.00984*%
%ADD53C,0.02362*%
%ADD54C,0.00600*%
%ADD55C,0.00827*%
%ADD56C,0.00394*%
%ADD57R,0.03937X0.10236*%
G36*
X458957Y205844D02*
Y205836D01*
X458950Y205821D01*
X458934Y205790D01*
X458919Y205744D01*
X458904Y205698D01*
X458881Y205644D01*
X458834Y205514D01*
X458773Y205376D01*
X458719Y205245D01*
X458666Y205115D01*
X458635Y205061D01*
X458612Y205015D01*
X458604Y204999D01*
X458581Y204969D01*
X458550Y204915D01*
X458504Y204846D01*
X458443Y204777D01*
X458381Y204700D01*
X458305Y204631D01*
X458228Y204569D01*
X458220Y204561D01*
X458189Y204546D01*
X458143Y204523D01*
X458082Y204500D01*
X458013Y204469D01*
X457921Y204446D01*
X457828Y204431D01*
X457721Y204423D01*
X457690D01*
X457652Y204431D01*
X457606D01*
X457544Y204439D01*
X457475Y204454D01*
X457322Y204500D01*
X457252Y205076D01*
X457260D01*
X457283Y205068D01*
X457322Y205061D01*
X457375Y205045D01*
X457483Y205022D01*
X457606Y205015D01*
X457644D01*
X457675Y205022D01*
X457728D01*
X457836Y205045D01*
X457890Y205061D01*
X457936Y205084D01*
X457943D01*
X457959Y205099D01*
X457982Y205115D01*
X458005Y205137D01*
X458074Y205199D01*
X458143Y205283D01*
Y205291D01*
X458151Y205307D01*
X458166Y205329D01*
X458189Y205376D01*
X458212Y205437D01*
X458243Y205514D01*
X458282Y205621D01*
X458327Y205744D01*
X458335Y205752D01*
X458343Y205783D01*
X458366Y205829D01*
X458389Y205898D01*
X456999Y209561D01*
X457659D01*
X458420Y207457D01*
Y207449D01*
X458427Y207441D01*
X458435Y207418D01*
X458443Y207388D01*
X458473Y207303D01*
X458512Y207196D01*
X458550Y207073D01*
X458596Y206927D01*
X458642Y206773D01*
X458688Y206612D01*
Y206620D01*
X458696Y206627D01*
Y206650D01*
X458711Y206681D01*
X458727Y206766D01*
X458758Y206866D01*
X458796Y206988D01*
X458842Y207127D01*
X458888Y207273D01*
X458942Y207426D01*
X459725Y209561D01*
X460340D01*
X458957Y205844D01*
D02*
G37*
G36*
X450924Y205906D02*
X450302D01*
Y209561D01*
X450924D01*
Y205906D01*
D02*
G37*
G36*
X449303D02*
X448658D01*
Y210129D01*
X447184Y205906D01*
X446585D01*
X445133Y210199D01*
Y205906D01*
X444488D01*
Y210951D01*
X445487D01*
X446685Y207380D01*
Y207372D01*
X446692Y207357D01*
X446700Y207334D01*
X446708Y207296D01*
X446738Y207211D01*
X446777Y207104D01*
X446815Y206981D01*
X446854Y206858D01*
X446892Y206735D01*
X446923Y206635D01*
X446930Y206650D01*
X446938Y206689D01*
X446961Y206750D01*
X446992Y206835D01*
X447023Y206950D01*
X447069Y207088D01*
X447130Y207249D01*
X447192Y207441D01*
X448397Y210951D01*
X449303D01*
Y205906D01*
D02*
G37*
G36*
X450924Y210245D02*
X450302D01*
Y210951D01*
X450924D01*
Y210245D01*
D02*
G37*
G36*
X453213Y209638D02*
X453312Y209630D01*
X453435Y209615D01*
X453558Y209592D01*
X453689Y209561D01*
X453812Y209515D01*
X453819D01*
X453827Y209507D01*
X453865Y209492D01*
X453927Y209461D01*
X453996Y209431D01*
X454073Y209377D01*
X454157Y209323D01*
X454234Y209254D01*
X454296Y209177D01*
X454303Y209170D01*
X454319Y209139D01*
X454349Y209093D01*
X454388Y209031D01*
X454418Y208955D01*
X454457Y208855D01*
X454488Y208747D01*
X454518Y208624D01*
X453911Y208540D01*
Y208555D01*
X453904Y208586D01*
X453889Y208640D01*
X453865Y208701D01*
X453835Y208770D01*
X453789Y208839D01*
X453735Y208916D01*
X453666Y208978D01*
X453658Y208985D01*
X453627Y209001D01*
X453581Y209031D01*
X453520Y209062D01*
X453443Y209085D01*
X453343Y209116D01*
X453236Y209131D01*
X453105Y209139D01*
X453036D01*
X452959Y209131D01*
X452867Y209123D01*
X452767Y209100D01*
X452667Y209077D01*
X452568Y209039D01*
X452491Y208993D01*
X452483Y208985D01*
X452460Y208970D01*
X452437Y208939D01*
X452406Y208901D01*
X452368Y208855D01*
X452345Y208793D01*
X452322Y208732D01*
X452314Y208663D01*
Y208655D01*
Y208640D01*
X452322Y208617D01*
Y208586D01*
X452345Y208517D01*
X452383Y208440D01*
X452391Y208432D01*
X452399Y208424D01*
X452445Y208386D01*
X452475Y208355D01*
X452514Y208332D01*
X452568Y208302D01*
X452621Y208279D01*
X452629D01*
X452644Y208271D01*
X452675Y208263D01*
X452729Y208248D01*
X452798Y208225D01*
X452898Y208194D01*
X453021Y208163D01*
X453090Y208140D01*
X453174Y208117D01*
X453182D01*
X453205Y208110D01*
X453236Y208102D01*
X453282Y208087D01*
X453336Y208071D01*
X453397Y208056D01*
X453535Y208017D01*
X453689Y207971D01*
X453842Y207918D01*
X453981Y207872D01*
X454042Y207849D01*
X454096Y207825D01*
X454111Y207818D01*
X454142Y207803D01*
X454188Y207779D01*
X454242Y207749D01*
X454311Y207703D01*
X454380Y207641D01*
X454441Y207580D01*
X454503Y207503D01*
X454511Y207495D01*
X454526Y207465D01*
X454549Y207418D01*
X454580Y207357D01*
X454610Y207280D01*
X454634Y207188D01*
X454649Y207088D01*
X454657Y206973D01*
Y206958D01*
Y206919D01*
X454649Y206858D01*
X454634Y206789D01*
X454610Y206697D01*
X454580Y206597D01*
X454534Y206497D01*
X454472Y206389D01*
X454464Y206374D01*
X454441Y206343D01*
X454395Y206297D01*
X454334Y206236D01*
X454265Y206167D01*
X454173Y206098D01*
X454065Y206028D01*
X453942Y205967D01*
X453927Y205959D01*
X453881Y205944D01*
X453812Y205921D01*
X453720Y205898D01*
X453604Y205867D01*
X453474Y205844D01*
X453328Y205829D01*
X453174Y205821D01*
X453105D01*
X453059Y205829D01*
X452998D01*
X452928Y205836D01*
X452767Y205859D01*
X452591Y205890D01*
X452414Y205944D01*
X452237Y206013D01*
X452161Y206059D01*
X452084Y206113D01*
X452076D01*
X452068Y206128D01*
X452022Y206167D01*
X451961Y206236D01*
X451884Y206336D01*
X451807Y206458D01*
X451730Y206612D01*
X451661Y206789D01*
X451615Y206996D01*
X452230Y207096D01*
Y207088D01*
Y207081D01*
X452237Y207034D01*
X452260Y206965D01*
X452283Y206881D01*
X452322Y206789D01*
X452368Y206697D01*
X452437Y206604D01*
X452514Y206520D01*
X452522Y206512D01*
X452560Y206489D01*
X452614Y206458D01*
X452683Y206428D01*
X452783Y206389D01*
X452890Y206359D01*
X453028Y206336D01*
X453174Y206328D01*
X453243D01*
X453320Y206336D01*
X453412Y206351D01*
X453520Y206366D01*
X453627Y206397D01*
X453727Y206443D01*
X453812Y206497D01*
X453819Y206505D01*
X453842Y206528D01*
X453881Y206566D01*
X453919Y206612D01*
X453950Y206674D01*
X453988Y206750D01*
X454011Y206827D01*
X454019Y206912D01*
Y206919D01*
Y206950D01*
X454011Y206981D01*
X453996Y207034D01*
X453973Y207081D01*
X453942Y207142D01*
X453896Y207196D01*
X453835Y207242D01*
X453827Y207249D01*
X453804Y207257D01*
X453766Y207273D01*
X453704Y207303D01*
X453620Y207326D01*
X453512Y207365D01*
X453443Y207388D01*
X453374Y207403D01*
X453290Y207426D01*
X453197Y207449D01*
X453190D01*
X453167Y207457D01*
X453136Y207465D01*
X453090Y207480D01*
X453028Y207495D01*
X452967Y207511D01*
X452821Y207557D01*
X452667Y207603D01*
X452506Y207649D01*
X452360Y207703D01*
X452299Y207726D01*
X452245Y207749D01*
X452237Y207756D01*
X452199Y207772D01*
X452153Y207803D01*
X452099Y207841D01*
X452030Y207887D01*
X451968Y207948D01*
X451899Y208017D01*
X451846Y208094D01*
X451838Y208102D01*
X451823Y208133D01*
X451807Y208179D01*
X451784Y208240D01*
X451754Y208309D01*
X451738Y208394D01*
X451723Y208486D01*
X451715Y208586D01*
Y208594D01*
Y208624D01*
X451723Y208678D01*
X451730Y208732D01*
X451738Y208801D01*
X451761Y208878D01*
X451784Y208962D01*
X451823Y209039D01*
X451830Y209047D01*
X451846Y209077D01*
X451869Y209116D01*
X451907Y209162D01*
X451945Y209216D01*
X451999Y209269D01*
X452061Y209331D01*
X452130Y209384D01*
X452138Y209392D01*
X452161Y209400D01*
X452191Y209423D01*
X452237Y209446D01*
X452291Y209477D01*
X452360Y209507D01*
X452437Y209538D01*
X452522Y209569D01*
X452537D01*
X452568Y209584D01*
X452614Y209592D01*
X452683Y209607D01*
X452767Y209623D01*
X452852Y209630D01*
X452952Y209646D01*
X453128D01*
X453213Y209638D01*
D02*
G37*
G36*
X456116Y209561D02*
X456738D01*
Y209077D01*
X456116D01*
Y206935D01*
Y206927D01*
Y206896D01*
Y206850D01*
X456123Y206796D01*
X456131Y206681D01*
X456139Y206635D01*
X456146Y206597D01*
X456154Y206581D01*
X456170Y206551D01*
X456200Y206512D01*
X456246Y206474D01*
X456262Y206466D01*
X456300Y206458D01*
X456369Y206443D01*
X456461Y206435D01*
X456538D01*
X456576Y206443D01*
X456623D01*
X456738Y206458D01*
X456822Y205913D01*
X456807D01*
X456776Y205906D01*
X456730Y205898D01*
X456661Y205890D01*
X456592Y205875D01*
X456515Y205867D01*
X456354Y205859D01*
X456300D01*
X456239Y205867D01*
X456162Y205875D01*
X456077Y205883D01*
X455985Y205906D01*
X455901Y205928D01*
X455824Y205959D01*
X455816Y205967D01*
X455793Y205982D01*
X455762Y206005D01*
X455724Y206036D01*
X455678Y206075D01*
X455640Y206121D01*
X455593Y206174D01*
X455563Y206236D01*
Y206243D01*
X455555Y206274D01*
X455540Y206320D01*
X455532Y206397D01*
X455517Y206497D01*
X455509Y206551D01*
X455501Y206620D01*
Y206697D01*
X455494Y206781D01*
Y206873D01*
Y206973D01*
Y209077D01*
X455033D01*
Y209561D01*
X455494D01*
Y210460D01*
X456116Y210836D01*
Y209561D01*
D02*
G37*
G36*
X448897Y202289D02*
X445918D01*
Y200738D01*
X448705D01*
Y200146D01*
X445918D01*
Y198426D01*
X449013D01*
Y197835D01*
X445249D01*
Y202880D01*
X448897D01*
Y202289D01*
D02*
G37*
G36*
X442561Y202873D02*
X442623D01*
X442776Y202865D01*
X442938Y202850D01*
X443107Y202819D01*
X443268Y202788D01*
X443345Y202765D01*
X443414Y202742D01*
X443422D01*
X443429Y202734D01*
X443475Y202719D01*
X443537Y202681D01*
X443613Y202627D01*
X443706Y202566D01*
X443798Y202481D01*
X443890Y202381D01*
X443974Y202258D01*
X443982Y202243D01*
X444005Y202197D01*
X444044Y202128D01*
X444082Y202036D01*
X444120Y201920D01*
X444159Y201790D01*
X444182Y201652D01*
X444190Y201498D01*
Y201490D01*
Y201475D01*
Y201444D01*
X444182Y201406D01*
Y201360D01*
X444174Y201306D01*
X444143Y201183D01*
X444105Y201037D01*
X444044Y200891D01*
X443951Y200738D01*
X443898Y200661D01*
X443836Y200592D01*
X443821Y200576D01*
X443798Y200561D01*
X443775Y200530D01*
X443736Y200507D01*
X443690Y200469D01*
X443637Y200438D01*
X443575Y200400D01*
X443506Y200361D01*
X443422Y200323D01*
X443337Y200285D01*
X443237Y200246D01*
X443137Y200208D01*
X443022Y200177D01*
X442899Y200154D01*
X442769Y200131D01*
X442784Y200123D01*
X442815Y200108D01*
X442861Y200085D01*
X442915Y200054D01*
X443045Y199970D01*
X443114Y199924D01*
X443168Y199878D01*
X443183Y199862D01*
X443222Y199831D01*
X443276Y199770D01*
X443345Y199693D01*
X443429Y199593D01*
X443521Y199478D01*
X443621Y199348D01*
X443721Y199202D01*
X444596Y197835D01*
X443759D01*
X443091Y198879D01*
Y198887D01*
X443076Y198902D01*
X443060Y198925D01*
X443045Y198956D01*
X442991Y199033D01*
X442922Y199133D01*
X442845Y199248D01*
X442761Y199363D01*
X442684Y199470D01*
X442607Y199570D01*
X442600Y199578D01*
X442577Y199609D01*
X442538Y199655D01*
X442500Y199709D01*
X442385Y199816D01*
X442331Y199870D01*
X442270Y199908D01*
X442262Y199916D01*
X442246Y199924D01*
X442216Y199939D01*
X442177Y199962D01*
X442085Y200008D01*
X441970Y200046D01*
X441962D01*
X441947Y200054D01*
X441916D01*
X441878Y200062D01*
X441824Y200069D01*
X441763D01*
X441686Y200077D01*
X440826D01*
Y197835D01*
X440158D01*
Y202880D01*
X442500D01*
X442561Y202873D01*
D02*
G37*
G36*
X460748Y197835D02*
X459995D01*
X459411Y199363D01*
X457292D01*
X456746Y197835D01*
X456040D01*
X457967Y202880D01*
X458697D01*
X460748Y197835D01*
D02*
G37*
G36*
X452054D02*
X451370D01*
X449412Y202880D01*
X450141D01*
X451447Y199217D01*
Y199209D01*
X451455Y199194D01*
X451462Y199171D01*
X451478Y199140D01*
X451501Y199056D01*
X451539Y198948D01*
X451585Y198818D01*
X451631Y198679D01*
X451716Y198388D01*
Y198395D01*
X451724Y198403D01*
X451731Y198426D01*
X451739Y198457D01*
X451762Y198541D01*
X451793Y198649D01*
X451831Y198772D01*
X451877Y198910D01*
X451931Y199063D01*
X451985Y199217D01*
X453352Y202880D01*
X454028D01*
X452054Y197835D01*
D02*
G37*
G36*
X463374D02*
X462752D01*
Y201782D01*
X462744Y201775D01*
X462714Y201744D01*
X462660Y201705D01*
X462591Y201652D01*
X462506Y201583D01*
X462406Y201513D01*
X462291Y201429D01*
X462161Y201352D01*
X462153D01*
X462145Y201344D01*
X462099Y201314D01*
X462030Y201275D01*
X461946Y201229D01*
X461846Y201175D01*
X461738Y201129D01*
X461623Y201076D01*
X461516Y201029D01*
Y201636D01*
X461523D01*
X461539Y201644D01*
X461569Y201659D01*
X461600Y201682D01*
X461646Y201705D01*
X461700Y201728D01*
X461823Y201798D01*
X461961Y201882D01*
X462115Y201982D01*
X462268Y202097D01*
X462414Y202220D01*
X462422Y202228D01*
X462430Y202235D01*
X462476Y202281D01*
X462545Y202350D01*
X462629Y202435D01*
X462721Y202542D01*
X462814Y202658D01*
X462898Y202781D01*
X462967Y202903D01*
X463374D01*
Y197835D01*
D02*
G37*
G36*
X445191Y193299D02*
X445268Y193292D01*
X445361Y193276D01*
X445468Y193253D01*
X445568Y193223D01*
X445675Y193184D01*
X445691Y193176D01*
X445721Y193161D01*
X445767Y193138D01*
X445829Y193100D01*
X445898Y193054D01*
X445967Y193000D01*
X446036Y192938D01*
X446090Y192869D01*
X446098Y192862D01*
X446113Y192839D01*
X446136Y192792D01*
X446167Y192739D01*
X446198Y192677D01*
X446228Y192601D01*
X446259Y192508D01*
X446282Y192416D01*
Y192409D01*
X446290Y192385D01*
X446297Y192339D01*
X446305Y192278D01*
Y192193D01*
X446313Y192086D01*
X446320Y191963D01*
Y191809D01*
Y189567D01*
X445698D01*
Y191786D01*
Y191794D01*
Y191802D01*
Y191848D01*
Y191917D01*
X445691Y192001D01*
X445683Y192086D01*
X445668Y192186D01*
X445645Y192270D01*
X445622Y192347D01*
Y192355D01*
X445606Y192378D01*
X445591Y192416D01*
X445568Y192455D01*
X445529Y192508D01*
X445483Y192554D01*
X445430Y192608D01*
X445368Y192654D01*
X445361Y192662D01*
X445337Y192670D01*
X445299Y192693D01*
X445245Y192716D01*
X445184Y192731D01*
X445107Y192754D01*
X445030Y192762D01*
X444938Y192770D01*
X444869D01*
X444800Y192754D01*
X444700Y192739D01*
X444593Y192708D01*
X444485Y192662D01*
X444362Y192601D01*
X444255Y192516D01*
X444239Y192501D01*
X444208Y192462D01*
X444162Y192401D01*
X444139Y192355D01*
X444116Y192301D01*
X444086Y192240D01*
X444063Y192171D01*
X444039Y192094D01*
X444017Y192009D01*
X443993Y191909D01*
X443986Y191802D01*
X443970Y191687D01*
Y191564D01*
Y189567D01*
X443348D01*
Y193223D01*
X443909D01*
Y192700D01*
X443917Y192708D01*
X443924Y192723D01*
X443947Y192754D01*
X443986Y192792D01*
X444024Y192839D01*
X444078Y192892D01*
X444132Y192946D01*
X444201Y193008D01*
X444285Y193061D01*
X444370Y193115D01*
X444462Y193169D01*
X444569Y193215D01*
X444677Y193253D01*
X444800Y193284D01*
X444930Y193299D01*
X445069Y193307D01*
X445122D01*
X445191Y193299D01*
D02*
G37*
G36*
X467325Y191341D02*
X468009D01*
Y190773D01*
X467325D01*
Y189567D01*
X466703D01*
Y190773D01*
X464514D01*
Y191341D01*
X466818Y194605D01*
X467325D01*
Y191341D01*
D02*
G37*
G36*
X438425Y191172D02*
Y191164D01*
Y191141D01*
Y191111D01*
Y191065D01*
X438418Y191011D01*
Y190949D01*
X438410Y190811D01*
X438387Y190650D01*
X438364Y190489D01*
X438326Y190327D01*
X438272Y190189D01*
X438264Y190174D01*
X438241Y190135D01*
X438203Y190074D01*
X438157Y189997D01*
X438088Y189905D01*
X438003Y189820D01*
X437895Y189736D01*
X437780Y189659D01*
X437765Y189651D01*
X437719Y189628D01*
X437650Y189605D01*
X437558Y189575D01*
X437442Y189536D01*
X437312Y189513D01*
X437158Y189490D01*
X436997Y189482D01*
X436936D01*
X436889Y189490D01*
X436836Y189498D01*
X436767Y189506D01*
X436621Y189529D01*
X436459Y189575D01*
X436290Y189644D01*
X436206Y189682D01*
X436129Y189736D01*
X436052Y189790D01*
X435983Y189859D01*
Y189866D01*
X435968Y189874D01*
X435953Y189897D01*
X435929Y189928D01*
X435899Y189974D01*
X435876Y190020D01*
X435837Y190082D01*
X435807Y190143D01*
X435776Y190220D01*
X435745Y190304D01*
X435714Y190396D01*
X435691Y190504D01*
X435668Y190611D01*
X435653Y190734D01*
X435645Y190857D01*
Y190995D01*
X436244Y191080D01*
Y191072D01*
Y191057D01*
Y191026D01*
X436252Y190988D01*
Y190942D01*
X436260Y190888D01*
X436283Y190765D01*
X436306Y190627D01*
X436344Y190496D01*
X436398Y190381D01*
X436429Y190327D01*
X436459Y190281D01*
X436467Y190273D01*
X436498Y190251D01*
X436536Y190212D01*
X436598Y190181D01*
X436674Y190143D01*
X436767Y190104D01*
X436874Y190082D01*
X436997Y190074D01*
X437043D01*
X437089Y190082D01*
X437143Y190089D01*
X437212Y190104D01*
X437289Y190120D01*
X437358Y190151D01*
X437427Y190189D01*
X437435Y190197D01*
X437458Y190212D01*
X437489Y190235D01*
X437527Y190273D01*
X437573Y190312D01*
X437611Y190366D01*
X437650Y190427D01*
X437680Y190496D01*
Y190504D01*
X437696Y190535D01*
X437704Y190581D01*
X437719Y190650D01*
X437734Y190742D01*
X437742Y190849D01*
X437757Y190980D01*
Y191134D01*
Y194613D01*
X438425D01*
Y191172D01*
D02*
G37*
G36*
X442381Y189567D02*
X441828D01*
Y190097D01*
X441820Y190089D01*
X441805Y190074D01*
X441782Y190043D01*
X441751Y190005D01*
X441705Y189951D01*
X441651Y189905D01*
X441590Y189843D01*
X441521Y189790D01*
X441444Y189736D01*
X441359Y189674D01*
X441259Y189628D01*
X441159Y189582D01*
X441044Y189536D01*
X440929Y189506D01*
X440799Y189490D01*
X440668Y189482D01*
X440614D01*
X440553Y189490D01*
X440468Y189498D01*
X440376Y189513D01*
X440276Y189536D01*
X440169Y189567D01*
X440061Y189605D01*
X440046Y189613D01*
X440015Y189628D01*
X439969Y189651D01*
X439908Y189690D01*
X439839Y189736D01*
X439769Y189790D01*
X439708Y189843D01*
X439647Y189912D01*
X439639Y189920D01*
X439623Y189943D01*
X439601Y189989D01*
X439577Y190043D01*
X439539Y190112D01*
X439508Y190189D01*
X439478Y190273D01*
X439455Y190373D01*
Y190381D01*
X439447Y190412D01*
Y190450D01*
X439439Y190512D01*
X439431Y190596D01*
Y190696D01*
X439424Y190811D01*
Y190949D01*
Y193223D01*
X440046D01*
Y191187D01*
Y191180D01*
Y191164D01*
Y191141D01*
Y191111D01*
Y191026D01*
X440054Y190926D01*
Y190819D01*
X440061Y190711D01*
X440069Y190611D01*
X440077Y190535D01*
Y190527D01*
X440092Y190496D01*
X440107Y190450D01*
X440130Y190396D01*
X440161Y190335D01*
X440207Y190266D01*
X440261Y190204D01*
X440322Y190151D01*
X440330Y190143D01*
X440361Y190128D01*
X440399Y190104D01*
X440453Y190082D01*
X440522Y190058D01*
X440599Y190035D01*
X440691Y190020D01*
X440791Y190012D01*
X440837D01*
X440891Y190020D01*
X440960Y190028D01*
X441037Y190043D01*
X441121Y190074D01*
X441213Y190104D01*
X441305Y190151D01*
X441313Y190158D01*
X441344Y190181D01*
X441390Y190212D01*
X441444Y190258D01*
X441497Y190312D01*
X441559Y190381D01*
X441605Y190458D01*
X441651Y190542D01*
X441659Y190558D01*
X441666Y190588D01*
X441682Y190642D01*
X441705Y190727D01*
X441728Y190826D01*
X441743Y190949D01*
X441751Y191095D01*
X441759Y191256D01*
Y193223D01*
X442381D01*
Y189567D01*
D02*
G37*
G36*
X448886Y193299D02*
X448947Y193292D01*
X449024Y193284D01*
X449101Y193269D01*
X449193Y193246D01*
X449377Y193184D01*
X449477Y193146D01*
X449577Y193092D01*
X449677Y193038D01*
X449777Y192969D01*
X449869Y192892D01*
X449961Y192800D01*
X449968Y192792D01*
X449984Y192777D01*
X450007Y192746D01*
X450038Y192708D01*
X450068Y192654D01*
X450107Y192593D01*
X450153Y192524D01*
X450199Y192439D01*
X450237Y192339D01*
X450283Y192240D01*
X450322Y192124D01*
X450360Y191994D01*
X450383Y191863D01*
X450406Y191717D01*
X450422Y191564D01*
X450429Y191395D01*
Y191387D01*
Y191356D01*
Y191303D01*
X450422Y191234D01*
X447703D01*
Y191226D01*
Y191210D01*
X447711Y191172D01*
Y191134D01*
X447718Y191080D01*
X447726Y191026D01*
X447757Y190888D01*
X447803Y190742D01*
X447857Y190588D01*
X447941Y190435D01*
X448041Y190304D01*
X448056Y190289D01*
X448095Y190258D01*
X448164Y190204D01*
X448248Y190151D01*
X448363Y190089D01*
X448494Y190035D01*
X448640Y190005D01*
X448801Y189989D01*
X448863D01*
X448924Y189997D01*
X449001Y190012D01*
X449093Y190035D01*
X449193Y190066D01*
X449293Y190104D01*
X449385Y190166D01*
X449393Y190174D01*
X449423Y190204D01*
X449469Y190243D01*
X449523Y190312D01*
X449584Y190389D01*
X449646Y190489D01*
X449707Y190611D01*
X449769Y190750D01*
X450406Y190665D01*
Y190657D01*
X450399Y190642D01*
X450391Y190611D01*
X450376Y190573D01*
X450360Y190527D01*
X450337Y190473D01*
X450276Y190343D01*
X450199Y190204D01*
X450107Y190058D01*
X449984Y189912D01*
X449846Y189790D01*
X449838D01*
X449830Y189774D01*
X449807Y189759D01*
X449769Y189744D01*
X449730Y189720D01*
X449684Y189690D01*
X449631Y189667D01*
X449561Y189636D01*
X449415Y189582D01*
X449231Y189529D01*
X449031Y189498D01*
X448801Y189482D01*
X448724D01*
X448671Y189490D01*
X448601Y189498D01*
X448525Y189506D01*
X448440Y189521D01*
X448340Y189544D01*
X448141Y189605D01*
X448033Y189644D01*
X447933Y189690D01*
X447826Y189744D01*
X447726Y189813D01*
X447626Y189890D01*
X447534Y189974D01*
X447526Y189982D01*
X447511Y189997D01*
X447488Y190028D01*
X447465Y190066D01*
X447426Y190112D01*
X447388Y190174D01*
X447342Y190251D01*
X447303Y190335D01*
X447257Y190427D01*
X447211Y190527D01*
X447173Y190642D01*
X447142Y190765D01*
X447112Y190896D01*
X447088Y191042D01*
X447073Y191195D01*
X447065Y191356D01*
Y191364D01*
Y191395D01*
Y191448D01*
X447073Y191510D01*
X447081Y191587D01*
X447088Y191679D01*
X447104Y191779D01*
X447127Y191886D01*
X447181Y192117D01*
X447219Y192232D01*
X447265Y192355D01*
X447319Y192470D01*
X447380Y192585D01*
X447449Y192693D01*
X447534Y192792D01*
X447542Y192800D01*
X447557Y192816D01*
X447580Y192839D01*
X447618Y192877D01*
X447664Y192915D01*
X447726Y192954D01*
X447787Y193000D01*
X447864Y193054D01*
X447949Y193100D01*
X448041Y193146D01*
X448141Y193184D01*
X448256Y193230D01*
X448371Y193261D01*
X448494Y193284D01*
X448625Y193299D01*
X448763Y193307D01*
X448832D01*
X448886Y193299D01*
D02*
G37*
G36*
X458678Y194628D02*
X458770Y194613D01*
X458877Y194597D01*
X459000Y194567D01*
X459123Y194520D01*
X459238Y194467D01*
X459254Y194459D01*
X459292Y194436D01*
X459346Y194398D01*
X459423Y194352D01*
X459499Y194282D01*
X459584Y194198D01*
X459668Y194106D01*
X459745Y193998D01*
X459753Y193983D01*
X459776Y193945D01*
X459814Y193875D01*
X459860Y193791D01*
X459906Y193683D01*
X459960Y193553D01*
X460014Y193407D01*
X460060Y193246D01*
Y193238D01*
X460068Y193223D01*
Y193200D01*
X460075Y193161D01*
X460091Y193123D01*
X460098Y193069D01*
X460106Y193000D01*
X460121Y192931D01*
X460129Y192846D01*
X460137Y192762D01*
X460152Y192662D01*
X460160Y192554D01*
X460168Y192439D01*
Y192324D01*
X460175Y192055D01*
Y192048D01*
Y192017D01*
Y191971D01*
Y191909D01*
X460168Y191832D01*
Y191748D01*
X460160Y191648D01*
X460152Y191541D01*
X460129Y191310D01*
X460098Y191072D01*
X460052Y190834D01*
X460022Y190727D01*
X459991Y190619D01*
Y190611D01*
X459983Y190596D01*
X459975Y190565D01*
X459960Y190527D01*
X459937Y190481D01*
X459914Y190435D01*
X459853Y190312D01*
X459776Y190174D01*
X459684Y190035D01*
X459576Y189897D01*
X459446Y189774D01*
X459438D01*
X459430Y189759D01*
X459407Y189751D01*
X459384Y189728D01*
X459300Y189682D01*
X459200Y189628D01*
X459062Y189575D01*
X458908Y189529D01*
X458731Y189498D01*
X458532Y189482D01*
X458463D01*
X458409Y189490D01*
X458347Y189498D01*
X458278Y189513D01*
X458201Y189529D01*
X458117Y189544D01*
X457933Y189605D01*
X457833Y189651D01*
X457741Y189698D01*
X457641Y189759D01*
X457549Y189828D01*
X457464Y189905D01*
X457380Y189997D01*
X457372Y190005D01*
X457357Y190028D01*
X457334Y190066D01*
X457303Y190120D01*
X457265Y190189D01*
X457226Y190273D01*
X457180Y190373D01*
X457134Y190496D01*
X457088Y190627D01*
X457042Y190780D01*
X457003Y190949D01*
X456965Y191134D01*
X456934Y191341D01*
X456911Y191556D01*
X456896Y191802D01*
X456888Y192055D01*
Y192063D01*
Y192094D01*
Y192140D01*
Y192201D01*
X456896Y192278D01*
Y192362D01*
X456904Y192462D01*
X456911Y192570D01*
X456934Y192800D01*
X456965Y193038D01*
X457003Y193276D01*
X457034Y193384D01*
X457065Y193491D01*
Y193499D01*
X457072Y193515D01*
X457088Y193545D01*
X457103Y193584D01*
X457119Y193630D01*
X457142Y193683D01*
X457203Y193806D01*
X457280Y193945D01*
X457372Y194083D01*
X457479Y194213D01*
X457610Y194336D01*
X457618D01*
X457625Y194352D01*
X457649Y194367D01*
X457679Y194382D01*
X457756Y194428D01*
X457864Y194490D01*
X457994Y194544D01*
X458155Y194590D01*
X458332Y194620D01*
X458532Y194636D01*
X458601D01*
X458678Y194628D01*
D02*
G37*
G36*
X463140Y189567D02*
X462518D01*
Y193515D01*
X462510Y193507D01*
X462479Y193476D01*
X462425Y193438D01*
X462356Y193384D01*
X462272Y193315D01*
X462172Y193246D01*
X462057Y193161D01*
X461926Y193084D01*
X461919D01*
X461911Y193077D01*
X461865Y193046D01*
X461796Y193008D01*
X461711Y192962D01*
X461611Y192908D01*
X461504Y192862D01*
X461389Y192808D01*
X461281Y192762D01*
Y193368D01*
X461289D01*
X461304Y193376D01*
X461335Y193392D01*
X461366Y193415D01*
X461412Y193438D01*
X461465Y193461D01*
X461588Y193530D01*
X461727Y193614D01*
X461880Y193714D01*
X462034Y193829D01*
X462180Y193952D01*
X462187Y193960D01*
X462195Y193968D01*
X462241Y194014D01*
X462310Y194083D01*
X462395Y194167D01*
X462487Y194275D01*
X462579Y194390D01*
X462664Y194513D01*
X462733Y194636D01*
X463140D01*
Y189567D01*
D02*
G37*
G36*
X454761Y194628D02*
X454822Y194620D01*
X454891Y194613D01*
X454968Y194605D01*
X455053Y194582D01*
X455237Y194536D01*
X455429Y194467D01*
X455529Y194421D01*
X455621Y194367D01*
X455705Y194298D01*
X455790Y194229D01*
X455798Y194221D01*
X455805Y194213D01*
X455828Y194190D01*
X455859Y194160D01*
X455890Y194114D01*
X455928Y194067D01*
X456005Y193952D01*
X456082Y193806D01*
X456151Y193637D01*
X456205Y193445D01*
X456212Y193338D01*
X456220Y193230D01*
Y193215D01*
Y193176D01*
X456212Y193115D01*
X456205Y193038D01*
X456189Y192946D01*
X456166Y192846D01*
X456136Y192739D01*
X456089Y192631D01*
X456082Y192616D01*
X456066Y192578D01*
X456036Y192524D01*
X455990Y192447D01*
X455936Y192355D01*
X455867Y192247D01*
X455775Y192140D01*
X455675Y192017D01*
X455659Y192001D01*
X455621Y191955D01*
X455552Y191886D01*
X455506Y191840D01*
X455452Y191786D01*
X455391Y191725D01*
X455314Y191656D01*
X455237Y191587D01*
X455153Y191502D01*
X455060Y191418D01*
X454953Y191326D01*
X454845Y191234D01*
X454722Y191126D01*
X454715Y191118D01*
X454699Y191103D01*
X454669Y191080D01*
X454630Y191049D01*
X454538Y190972D01*
X454423Y190873D01*
X454308Y190765D01*
X454185Y190657D01*
X454085Y190565D01*
X454047Y190527D01*
X454008Y190489D01*
X454001Y190481D01*
X453985Y190458D01*
X453954Y190427D01*
X453916Y190381D01*
X453831Y190281D01*
X453747Y190158D01*
X456228D01*
Y189567D01*
X452887D01*
Y189575D01*
Y189605D01*
Y189651D01*
X452895Y189705D01*
X452902Y189767D01*
X452910Y189836D01*
X452933Y189912D01*
X452956Y189989D01*
Y189997D01*
X452964Y190005D01*
X452979Y190051D01*
X453010Y190112D01*
X453056Y190204D01*
X453110Y190304D01*
X453186Y190419D01*
X453263Y190535D01*
X453363Y190657D01*
Y190665D01*
X453378Y190673D01*
X453417Y190719D01*
X453478Y190788D01*
X453570Y190880D01*
X453686Y190988D01*
X453824Y191118D01*
X453993Y191264D01*
X454177Y191426D01*
X454185Y191433D01*
X454215Y191456D01*
X454254Y191487D01*
X454308Y191541D01*
X454377Y191595D01*
X454454Y191664D01*
X454623Y191809D01*
X454807Y191986D01*
X454991Y192163D01*
X455083Y192247D01*
X455160Y192332D01*
X455229Y192416D01*
X455291Y192493D01*
Y192501D01*
X455306Y192508D01*
X455321Y192531D01*
X455337Y192562D01*
X455383Y192639D01*
X455437Y192739D01*
X455490Y192854D01*
X455537Y192977D01*
X455567Y193115D01*
X455583Y193246D01*
Y193253D01*
Y193261D01*
X455575Y193307D01*
X455567Y193376D01*
X455552Y193461D01*
X455513Y193561D01*
X455467Y193660D01*
X455406Y193768D01*
X455314Y193868D01*
X455298Y193875D01*
X455268Y193906D01*
X455206Y193945D01*
X455129Y193998D01*
X455030Y194044D01*
X454914Y194083D01*
X454776Y194114D01*
X454623Y194121D01*
X454576D01*
X454546Y194114D01*
X454469Y194106D01*
X454369Y194090D01*
X454254Y194052D01*
X454131Y194006D01*
X454016Y193937D01*
X453908Y193845D01*
X453901Y193829D01*
X453870Y193799D01*
X453824Y193737D01*
X453778Y193653D01*
X453724Y193545D01*
X453686Y193422D01*
X453655Y193276D01*
X453640Y193107D01*
X453002Y193176D01*
Y193184D01*
Y193207D01*
X453010Y193246D01*
X453017Y193292D01*
X453033Y193353D01*
X453041Y193422D01*
X453087Y193576D01*
X453148Y193753D01*
X453232Y193929D01*
X453348Y194106D01*
X453409Y194183D01*
X453486Y194259D01*
X453494Y194267D01*
X453509Y194275D01*
X453532Y194298D01*
X453563Y194321D01*
X453609Y194344D01*
X453663Y194382D01*
X453724Y194413D01*
X453793Y194451D01*
X453870Y194482D01*
X453954Y194520D01*
X454054Y194551D01*
X454154Y194574D01*
X454385Y194620D01*
X454507Y194628D01*
X454638Y194636D01*
X454707D01*
X454761Y194628D01*
D02*
G37*
%LPC*%
G36*
X448770Y192800D02*
X448732D01*
X448701Y192792D01*
X448617Y192785D01*
X448517Y192762D01*
X448402Y192731D01*
X448287Y192677D01*
X448164Y192608D01*
X448048Y192508D01*
X448033Y192493D01*
X448002Y192455D01*
X447956Y192393D01*
X447903Y192301D01*
X447849Y192193D01*
X447795Y192063D01*
X447757Y191909D01*
X447734Y191740D01*
X449777D01*
Y191748D01*
Y191763D01*
X449769Y191786D01*
Y191817D01*
X449753Y191902D01*
X449730Y192001D01*
X449700Y192109D01*
X449654Y192224D01*
X449608Y192339D01*
X449538Y192432D01*
Y192439D01*
X449523Y192447D01*
X449485Y192493D01*
X449415Y192547D01*
X449331Y192616D01*
X449216Y192685D01*
X449085Y192746D01*
X448939Y192785D01*
X448855Y192792D01*
X448770Y192800D01*
D02*
G37*
G36*
X466703Y193599D02*
X465121Y191341D01*
X466703D01*
Y193599D01*
D02*
G37*
G36*
X458524Y194121D02*
X458486D01*
X458455Y194114D01*
X458378Y194106D01*
X458278Y194075D01*
X458171Y194029D01*
X458055Y193968D01*
X457940Y193875D01*
X457887Y193814D01*
X457840Y193753D01*
Y193745D01*
X457825Y193729D01*
X457810Y193699D01*
X457794Y193660D01*
X457771Y193607D01*
X457741Y193545D01*
X457710Y193461D01*
X457687Y193368D01*
X457656Y193261D01*
X457625Y193138D01*
X457602Y193000D01*
X457572Y192839D01*
X457556Y192670D01*
X457541Y192485D01*
X457526Y192278D01*
Y192055D01*
Y192040D01*
Y192001D01*
Y191940D01*
X457533Y191856D01*
Y191756D01*
X457541Y191640D01*
X457549Y191510D01*
X457564Y191379D01*
X457595Y191103D01*
X457649Y190826D01*
X457679Y190704D01*
X457718Y190588D01*
X457764Y190481D01*
X457810Y190396D01*
Y190389D01*
X457825Y190381D01*
X457864Y190335D01*
X457925Y190266D01*
X458009Y190197D01*
X458117Y190120D01*
X458240Y190051D01*
X458378Y190005D01*
X458455Y189997D01*
X458532Y189989D01*
X458570D01*
X458601Y189997D01*
X458678Y190012D01*
X458777Y190043D01*
X458893Y190089D01*
X459008Y190158D01*
X459069Y190204D01*
X459131Y190266D01*
X459192Y190327D01*
X459246Y190396D01*
Y190404D01*
X459261Y190419D01*
X459277Y190443D01*
X459292Y190481D01*
X459315Y190527D01*
X459338Y190596D01*
X459361Y190673D01*
X459392Y190757D01*
X459423Y190865D01*
X459446Y190980D01*
X459469Y191118D01*
X459492Y191272D01*
X459515Y191441D01*
X459522Y191625D01*
X459538Y191832D01*
Y192055D01*
Y192071D01*
Y192109D01*
Y192171D01*
X459530Y192255D01*
Y192355D01*
X459522Y192470D01*
X459515Y192593D01*
X459499Y192731D01*
X459469Y193008D01*
X459415Y193276D01*
X459384Y193407D01*
X459346Y193522D01*
X459300Y193622D01*
X459246Y193706D01*
Y193714D01*
X459231Y193722D01*
X459192Y193768D01*
X459131Y193837D01*
X459046Y193914D01*
X458939Y193991D01*
X458816Y194060D01*
X458678Y194106D01*
X458601Y194114D01*
X458524Y194121D01*
D02*
G37*
G36*
X442415Y202320D02*
X440826D01*
Y200653D01*
X442331D01*
X442415Y200661D01*
X442515Y200669D01*
X442630Y200676D01*
X442753Y200692D01*
X442869Y200715D01*
X442968Y200745D01*
X442984Y200753D01*
X443014Y200761D01*
X443060Y200784D01*
X443114Y200815D01*
X443176Y200861D01*
X443245Y200914D01*
X443306Y200976D01*
X443360Y201045D01*
X443368Y201053D01*
X443383Y201083D01*
X443406Y201122D01*
X443429Y201183D01*
X443452Y201245D01*
X443475Y201321D01*
X443491Y201406D01*
X443498Y201498D01*
Y201506D01*
Y201513D01*
Y201559D01*
X443483Y201621D01*
X443468Y201705D01*
X443437Y201798D01*
X443391Y201897D01*
X443322Y201997D01*
X443237Y202089D01*
X443222Y202097D01*
X443191Y202128D01*
X443122Y202166D01*
X443038Y202205D01*
X442922Y202251D01*
X442784Y202281D01*
X442615Y202312D01*
X442415Y202320D01*
D02*
G37*
G36*
X458313Y202358D02*
Y202350D01*
X458305Y202335D01*
Y202312D01*
X458298Y202274D01*
X458282Y202228D01*
X458267Y202174D01*
X458236Y202051D01*
X458198Y201897D01*
X458152Y201736D01*
X458098Y201559D01*
X458037Y201383D01*
X457484Y199908D01*
X459196D01*
X458674Y201298D01*
Y201306D01*
X458666Y201329D01*
X458651Y201360D01*
X458636Y201406D01*
X458612Y201460D01*
X458590Y201521D01*
X458543Y201667D01*
X458482Y201836D01*
X458421Y202013D01*
X458367Y202189D01*
X458313Y202358D01*
D02*
G37*
%LPD*%
D31*
X473933Y243197D02*
G03*
X473933Y257197I0J7000D01*
G01*
Y241197D02*
G03*
X473933Y259197I0J9000D01*
G01*
X446933D02*
G03*
X446933Y241197I0J-9000D01*
G01*
Y257197D02*
G03*
X446933Y243197I0J-7000D01*
G01*
X473933D01*
X446933Y257197D02*
X473933D01*
X446933Y241197D02*
X473933D01*
X446933Y259197D02*
X473933D01*
X391260Y388917D02*
Y393917D01*
X393760Y396417D01*
X398760D02*
X401260Y393917D01*
X393760Y396417D02*
X398760D01*
X391260Y383917D02*
X393760Y386417D01*
X391260Y378917D02*
Y383917D01*
Y378917D02*
X393760Y376417D01*
X398760D01*
X401260Y378917D01*
Y383917D01*
X398760Y386417D02*
X401260Y383917D01*
X391260Y388917D02*
X393760Y386417D01*
X398760D01*
X401260Y388917D01*
Y393917D01*
X499705Y306496D02*
X504705D01*
X507205Y303996D01*
Y298996D02*
Y303996D01*
X504705Y296496D02*
X507205Y298996D01*
Y303996D02*
X509705Y306496D01*
X514705D01*
X517205Y303996D01*
Y298996D02*
Y303996D01*
X514705Y296496D02*
X517205Y298996D01*
X509705Y296496D02*
X514705D01*
X507205Y298996D02*
X509705Y296496D01*
X497205Y298996D02*
Y303996D01*
X499705Y306496D01*
X497205Y298996D02*
X499705Y296496D01*
X504705D01*
X517205Y303996D02*
X519705Y306496D01*
X524705D01*
X527205Y303996D01*
Y298996D02*
Y303996D01*
X524705Y296496D02*
X527205Y298996D01*
X519705Y296496D02*
X524705D01*
X517205Y298996D02*
X519705Y296496D01*
X499705Y316496D02*
X504705D01*
X507205Y313996D01*
Y308996D02*
Y313996D01*
X504705Y306496D02*
X507205Y308996D01*
Y313996D02*
X509705Y316496D01*
X514705D01*
X517205Y313996D01*
Y308996D02*
Y313996D01*
X514705Y306496D02*
X517205Y308996D01*
X509705Y306496D02*
X514705D01*
X507205Y308996D02*
X509705Y306496D01*
X497205Y308996D02*
Y313996D01*
X499705Y316496D01*
X497205Y308996D02*
X499705Y306496D01*
X504705D01*
X517205Y313996D02*
X519705Y316496D01*
X524705D01*
X527205Y313996D01*
Y308996D02*
Y313996D01*
X524705Y306496D02*
X527205Y308996D01*
X519705Y306496D02*
X524705D01*
X517205Y308996D02*
X519705Y306496D01*
X499705Y326496D02*
X504705D01*
X507205Y323996D01*
Y318996D02*
Y323996D01*
X504705Y316496D02*
X507205Y318996D01*
Y323996D02*
X509705Y326496D01*
X514705D01*
X517205Y323996D01*
Y318996D02*
Y323996D01*
X514705Y316496D02*
X517205Y318996D01*
X509705Y316496D02*
X514705D01*
X507205Y318996D02*
X509705Y316496D01*
X497205Y318996D02*
Y323996D01*
X499705Y326496D01*
X497205Y318996D02*
X499705Y316496D01*
X504705D01*
X517205Y323996D02*
X519705Y326496D01*
X524705D01*
X527205Y323996D01*
Y318996D02*
Y323996D01*
X524705Y316496D02*
X527205Y318996D01*
X519705Y316496D02*
X524705D01*
X517205Y318996D02*
X519705Y316496D01*
X499705Y336496D02*
X504705D01*
X507205Y333996D01*
Y328996D02*
Y333996D01*
X504705Y326496D02*
X507205Y328996D01*
Y333996D02*
X509705Y336496D01*
X514705D01*
X517205Y333996D01*
Y328996D02*
Y333996D01*
X514705Y326496D02*
X517205Y328996D01*
X509705Y326496D02*
X514705D01*
X507205Y328996D02*
X509705Y326496D01*
X497205Y328996D02*
Y333996D01*
X499705Y336496D01*
X497205Y328996D02*
X499705Y326496D01*
X504705D01*
X517205Y333996D02*
X519705Y336496D01*
X524705D01*
X527205Y333996D01*
Y328996D02*
Y333996D01*
X524705Y326496D02*
X527205Y328996D01*
X519705Y326496D02*
X524705D01*
X517205Y328996D02*
X519705Y326496D01*
X499705Y346496D02*
X504705D01*
X507205Y343996D01*
Y338996D02*
Y343996D01*
X504705Y336496D02*
X507205Y338996D01*
Y343996D02*
X509705Y346496D01*
X514705D01*
X517205Y343996D01*
Y338996D02*
Y343996D01*
X514705Y336496D02*
X517205Y338996D01*
X509705Y336496D02*
X514705D01*
X507205Y338996D02*
X509705Y336496D01*
X497205Y338996D02*
Y343996D01*
X499705Y346496D01*
X497205Y338996D02*
X499705Y336496D01*
X504705D01*
X517205Y343996D02*
X519705Y346496D01*
X524705D01*
X527205Y343996D01*
Y338996D02*
Y343996D01*
X524705Y336496D02*
X527205Y338996D01*
X519705Y336496D02*
X524705D01*
X517205Y338996D02*
X519705Y336496D01*
X499705Y356496D02*
X504705D01*
X507205Y353996D01*
Y348996D02*
Y353996D01*
X504705Y346496D02*
X507205Y348996D01*
Y353996D02*
X509705Y356496D01*
X514705D01*
X517205Y353996D01*
Y348996D02*
Y353996D01*
X514705Y346496D02*
X517205Y348996D01*
X509705Y346496D02*
X514705D01*
X507205Y348996D02*
X509705Y346496D01*
X497205Y348996D02*
Y353996D01*
X499705Y356496D01*
X497205Y348996D02*
X499705Y346496D01*
X504705D01*
X517205Y353996D02*
X519705Y356496D01*
X524705D01*
X527205Y353996D01*
Y348996D02*
Y353996D01*
X524705Y346496D02*
X527205Y348996D01*
X519705Y346496D02*
X524705D01*
X517205Y348996D02*
X519705Y346496D01*
D33*
X449232Y365209D02*
G03*
X453917Y365209I2342J0D01*
G01*
X428346Y323425D02*
G03*
X428346Y323425I-394J0D01*
G01*
D35*
X476230Y219882D02*
Y239567D01*
Y219882D02*
X488041D01*
Y239567D01*
X476230D02*
X488041D01*
D36*
X498228Y186417D02*
X499705D01*
X498228D02*
Y187894D01*
X509744Y186417D02*
X511221D01*
Y187894D01*
Y197933D02*
Y199409D01*
X509744D02*
X511221D01*
X498228D02*
X499705D01*
X498228Y197933D02*
Y199409D01*
X439567Y297047D02*
X461221D01*
X439567Y275394D02*
X461221D01*
X439567D02*
Y297047D01*
X461221Y275394D02*
Y297047D01*
X504528Y385630D02*
Y397835D01*
X502559Y385630D02*
Y397835D01*
Y385630D02*
X504528D01*
X502559Y397835D02*
X504528D01*
X453917Y365551D02*
X458075D01*
X448032Y345866D02*
X455118D01*
X448622Y238386D02*
X450197D01*
X448622Y233661D02*
X450197D01*
X489370Y329134D02*
X490945D01*
X489370Y333858D02*
X490945D01*
X489370Y319291D02*
X490945D01*
X489370Y324016D02*
X490945D01*
X489370Y309449D02*
X490945D01*
X489370Y314173D02*
X490945D01*
X489370Y299606D02*
X490945D01*
X489370Y304331D02*
X490945D01*
X489370Y338976D02*
X490945D01*
X489370Y343701D02*
X490945D01*
X489370Y348819D02*
X490945D01*
X489370Y353543D02*
X490945D01*
X407283Y249803D02*
X408858D01*
X407283Y254528D02*
X408858D01*
X407283Y242520D02*
X408858D01*
X407283Y247244D02*
X408858D01*
X442913Y323228D02*
X444488D01*
X442913Y327953D02*
X444488D01*
X471850Y351181D02*
Y352756D01*
X467126Y351181D02*
Y352756D01*
X474016Y351181D02*
Y352756D01*
X478740Y351181D02*
Y352756D01*
X413386Y276772D02*
X414961D01*
X413386Y272047D02*
X414961D01*
X413386Y265354D02*
X414961D01*
X413386Y270079D02*
X414961D01*
X409055Y347638D02*
Y349213D01*
X413779Y347638D02*
Y349213D01*
X402362Y347638D02*
Y349213D01*
X407087Y347638D02*
Y349213D01*
X468504Y367913D02*
X476772D01*
X468504D02*
Y371457D01*
X466929Y373031D02*
X468504Y371457D01*
X466929Y373031D02*
Y377756D01*
Y382480D01*
X468504Y384055D01*
X468504D02*
Y387598D01*
X476772D01*
X485039D01*
Y384055D02*
Y387598D01*
X485039Y384055D02*
X486614Y382480D01*
Y377756D02*
Y382480D01*
Y373031D02*
Y377756D01*
X485039Y371457D02*
X486614Y373031D01*
X485039Y367913D02*
Y371457D01*
X476772Y367913D02*
X485039D01*
X386221Y192717D02*
Y231693D01*
Y192717D02*
X391339D01*
X404331D02*
X412992D01*
X404331Y231693D02*
X412992D01*
X386221D02*
X391339D01*
X424016Y200197D02*
Y203347D01*
Y221063D02*
Y224213D01*
X409350Y315945D02*
X410532D01*
X409252Y309547D02*
X410433D01*
X409350Y323031D02*
X410532D01*
X409252Y316634D02*
X410433D01*
X503937Y207874D02*
X505512D01*
X503937Y203150D02*
X505512D01*
X516535Y191535D02*
Y193110D01*
X521260Y191535D02*
Y193110D01*
X522441Y229528D02*
Y231102D01*
X517717Y229528D02*
Y231102D01*
X481496Y212598D02*
X483071D01*
X481496Y217323D02*
X483071D01*
X489370Y207874D02*
X490945D01*
X489370Y203150D02*
X490945D01*
X485236Y197638D02*
X486811D01*
X485236Y192913D02*
X486811D01*
X499803Y255709D02*
X501378D01*
X499803Y250984D02*
X501378D01*
X499803Y249213D02*
X501378D01*
X499803Y244488D02*
X501378D01*
X514370D02*
X515945D01*
X514370Y249213D02*
X515945D01*
X514173Y250984D02*
X515748D01*
X514173Y255709D02*
X515748D01*
X458661Y329134D02*
Y330709D01*
X453937Y329134D02*
Y330709D01*
X445276Y335433D02*
Y337008D01*
X450000Y335433D02*
Y337008D01*
X437795Y335433D02*
Y337008D01*
X442520Y335433D02*
Y337008D01*
X437205Y264567D02*
X438779D01*
X437205Y259842D02*
X438779D01*
X481890Y287795D02*
X483465D01*
X481890Y292520D02*
X483465D01*
X468307Y267323D02*
X469882D01*
X468307Y272047D02*
X469882D01*
X453937Y314567D02*
Y316142D01*
X449213Y314567D02*
Y316142D01*
X427756Y350984D02*
X429331D01*
X427756Y346260D02*
X429331D01*
X425591Y366378D02*
X435433D01*
X425591Y367126D02*
X435433D01*
X425591Y364764D02*
Y367126D01*
X435433Y364764D02*
Y367126D01*
X414567Y366378D02*
X424409D01*
X414567Y367126D02*
X424409D01*
X414567Y364764D02*
Y367126D01*
X424409Y364764D02*
Y367126D01*
X513976Y390551D02*
Y392126D01*
X518701Y390551D02*
Y392126D01*
X489567Y391535D02*
Y393110D01*
X494291Y391535D02*
Y393110D01*
X508661Y382480D02*
X513779D01*
X500394D02*
Y382677D01*
X508661Y375787D02*
X513779D01*
X500394Y375590D02*
Y375787D01*
Y382677D02*
X513779D01*
X500394Y375590D02*
X513779D01*
X463583Y394685D02*
Y394882D01*
Y381102D02*
Y381299D01*
X454331Y381102D02*
Y394882D01*
X438779Y394685D02*
Y394882D01*
Y381102D02*
Y381299D01*
Y381102D02*
X463583D01*
X438779Y394882D02*
X463583D01*
X474409Y397835D02*
X475984D01*
X474409Y393110D02*
X475984D01*
X463386Y315354D02*
Y316929D01*
X458661Y315354D02*
Y316929D01*
X468307Y260630D02*
X469882D01*
X468307Y265354D02*
X469882D01*
X470079Y315354D02*
Y316929D01*
X465354Y315354D02*
Y316929D01*
X477756Y365945D02*
X479331D01*
X477756Y361221D02*
X479331D01*
D52*
X496161Y198819D02*
G03*
X496161Y198819I-492J0D01*
G01*
X466831Y272638D02*
G03*
X466831Y272638I-492J0D01*
G01*
X499311Y398917D02*
G03*
X499311Y398917I-492J0D01*
G01*
X442618Y366555D02*
G03*
X442618Y366555I-492J0D01*
G01*
X427067Y218504D02*
G03*
X427067Y218504I-492J0D01*
G01*
X466634Y381102D02*
G03*
X466634Y381102I-492J0D01*
G01*
D53*
X458465Y279331D02*
G03*
X458465Y279331I-1181J0D01*
G01*
D54*
X513131Y222115D02*
X514431D01*
Y237115D02*
Y238515D01*
X494231D02*
X495531D01*
X494231Y222115D02*
X495531D01*
X514431D02*
Y223515D01*
X513131Y238515D02*
X514431D01*
X494231Y237115D02*
Y238515D01*
Y222115D02*
Y223515D01*
Y238515D02*
X499231D01*
X494231Y222115D02*
Y233515D01*
Y222115D02*
X514431D01*
Y238515D01*
X499231D02*
X514431D01*
X494231Y233515D02*
Y238515D01*
D55*
X445075Y345866D02*
X448032D01*
X445075D02*
Y365551D01*
X449232D01*
X458075Y345866D02*
Y365551D01*
X455118Y345866D02*
X458075D01*
D56*
X468504Y371457D02*
X468504D01*
Y367913D02*
Y370276D01*
Y385236D02*
Y387598D01*
X468504Y384055D02*
X468504D01*
X485039D02*
X485039D01*
X485039Y385236D02*
Y387598D01*
Y367913D02*
Y370276D01*
Y371457D02*
X485039D01*
X391339Y320886D02*
Y326122D01*
Y320886D02*
X400787D01*
Y341083D01*
Y333602D02*
Y341083D01*
X396063D02*
X400787D01*
Y326122D02*
Y333602D01*
X391339Y326122D02*
Y333602D01*
Y341083D02*
X396063D01*
X391339Y333602D02*
Y341083D01*
X400787Y305512D02*
Y312992D01*
X396063Y305512D02*
X400787D01*
X396063Y320472D02*
X400787D01*
Y312992D02*
Y320472D01*
X391339Y312992D02*
Y320472D01*
X396063D01*
X391339Y305512D02*
X396063D01*
X391339D02*
Y312992D01*
X390748Y237815D02*
Y243051D01*
Y237815D02*
X400197D01*
Y258012D01*
Y250532D02*
Y258012D01*
X395472D02*
X400197D01*
Y243051D02*
Y250532D01*
X390748Y243051D02*
Y250532D01*
Y258012D02*
X395472D01*
X390748Y250532D02*
Y258012D01*
X516339Y266929D02*
Y274410D01*
X521063D01*
X516339Y259449D02*
X521063D01*
X516339D02*
Y266929D01*
X525787Y259449D02*
Y266929D01*
X521063Y259449D02*
X525787D01*
X521063Y274410D02*
X525787D01*
Y266929D02*
Y274410D01*
Y290020D02*
Y295256D01*
X516339D02*
X525787D01*
X516339Y275059D02*
Y295256D01*
Y275059D02*
Y282539D01*
Y275059D02*
X521063D01*
X516339Y282539D02*
Y290020D01*
X525787Y282539D02*
Y290020D01*
X521063Y275059D02*
X525787D01*
Y282539D01*
X391339Y348622D02*
Y356102D01*
X396063D01*
X391339Y341142D02*
X396063D01*
X391339D02*
Y348622D01*
X400787Y341142D02*
Y348622D01*
X396063Y341142D02*
X400787D01*
X396063Y356102D02*
X400787D01*
Y348622D02*
Y356102D01*
X425197Y321850D02*
Y327362D01*
Y321850D02*
X430315D01*
Y327362D01*
Y332874D01*
X425197D02*
X430315D01*
X425197Y327362D02*
Y332874D01*
X460236Y373031D02*
Y378150D01*
X442126Y373031D02*
Y378150D01*
X460236D01*
X442126Y367913D02*
X460236D01*
X442126D02*
Y373031D01*
X460236Y367913D02*
Y373031D01*
D57*
X458268Y373031D02*
D03*
M02*
