%FSLAX25Y25*%
%MOIN*%
G70*
G01*
G75*
G04 Layer_Color=65535*
%ADD10R,0.05906X0.05118*%
%ADD11R,0.05118X0.05906*%
%ADD12R,0.10630X0.06299*%
%ADD13R,0.07874X0.07874*%
%ADD14C,0.03937*%
%ADD15R,0.10236X0.08661*%
%ADD16R,0.07874X0.04724*%
%ADD17R,0.05118X0.06299*%
%ADD18R,0.05512X0.03543*%
%ADD19R,0.09843X0.07874*%
%ADD20R,0.09055X0.01969*%
%ADD21R,0.16535X0.05512*%
%ADD22O,0.08661X0.02362*%
%ADD23R,0.04331X0.02559*%
%ADD24O,0.00984X0.05906*%
%ADD25O,0.05906X0.00984*%
%ADD26R,0.02362X0.00984*%
%ADD27R,0.00984X0.02362*%
%ADD28R,0.02165X0.00984*%
%ADD29R,0.00984X0.02165*%
%ADD30R,0.05118X0.02165*%
%ADD31C,0.01181*%
%ADD32C,0.00800*%
%ADD33C,0.01200*%
%ADD34C,0.02000*%
%ADD35C,0.01000*%
%ADD36C,0.00787*%
%ADD37C,0.01969*%
%ADD38C,0.02362*%
G04:AMPARAMS|DCode=39|XSize=35.43mil|YSize=47.24mil|CornerRadius=0mil|HoleSize=0mil|Usage=FLASHONLY|Rotation=90.000|XOffset=0mil|YOffset=0mil|HoleType=Round|Shape=Octagon|*
%AMOCTAGOND39*
4,1,8,-0.02362,-0.00886,-0.02362,0.00886,-0.01476,0.01772,0.01476,0.01772,0.02362,0.00886,0.02362,-0.00886,0.01476,-0.01772,-0.01476,-0.01772,-0.02362,-0.00886,0.0*
%
%ADD39OCTAGOND39*%

G04:AMPARAMS|DCode=40|XSize=80mil|YSize=60mil|CornerRadius=0mil|HoleSize=0mil|Usage=FLASHONLY|Rotation=90.000|XOffset=0mil|YOffset=0mil|HoleType=Round|Shape=Octagon|*
%AMOCTAGOND40*
4,1,8,0.01500,0.04000,-0.01500,0.04000,-0.03000,0.02500,-0.03000,-0.02500,-0.01500,-0.04000,0.01500,-0.04000,0.03000,-0.02500,0.03000,0.02500,0.01500,0.04000,0.0*
%
%ADD40OCTAGOND40*%

G04:AMPARAMS|DCode=41|XSize=31.5mil|YSize=39.37mil|CornerRadius=0mil|HoleSize=0mil|Usage=FLASHONLY|Rotation=270.000|XOffset=0mil|YOffset=0mil|HoleType=Round|Shape=Octagon|*
%AMOCTAGOND41*
4,1,8,0.01969,0.00787,0.01969,-0.00787,0.01181,-0.01575,-0.01181,-0.01575,-0.01969,-0.00787,-0.01969,0.00787,-0.01181,0.01575,0.01181,0.01575,0.01969,0.00787,0.0*
%
%ADD41OCTAGOND41*%

G04:AMPARAMS|DCode=42|XSize=80mil|YSize=60mil|CornerRadius=0mil|HoleSize=0mil|Usage=FLASHONLY|Rotation=0.000|XOffset=0mil|YOffset=0mil|HoleType=Round|Shape=Octagon|*
%AMOCTAGOND42*
4,1,8,0.04000,-0.01500,0.04000,0.01500,0.02500,0.03000,-0.02500,0.03000,-0.04000,0.01500,-0.04000,-0.01500,-0.02500,-0.03000,0.02500,-0.03000,0.04000,-0.01500,0.0*
%
%ADD42OCTAGOND42*%

G04:AMPARAMS|DCode=43|XSize=100mil|YSize=60mil|CornerRadius=0mil|HoleSize=0mil|Usage=FLASHONLY|Rotation=270.000|XOffset=0mil|YOffset=0mil|HoleType=Round|Shape=Octagon|*
%AMOCTAGOND43*
4,1,8,-0.01500,-0.05000,0.01500,-0.05000,0.03000,-0.03500,0.03000,0.03500,0.01500,0.05000,-0.01500,0.05000,-0.03000,0.03500,-0.03000,-0.03500,-0.01500,-0.05000,0.0*
%
%ADD43OCTAGOND43*%

%ADD44O,0.06000X0.10000*%
%ADD45R,0.06102X0.03937*%
%ADD46R,0.03150X0.05906*%
%ADD47R,0.05906X0.05906*%
%ADD48R,0.06890X0.02756*%
%ADD49R,0.05906X0.05118*%
%ADD50R,0.05512X0.03150*%
%ADD51R,0.09449X0.02913*%
%ADD52C,0.00984*%
%ADD53C,0.02362*%
%ADD54C,0.00394*%
%ADD55C,0.00827*%
%ADD56C,0.00600*%
%ADD57R,0.03937X0.10236*%
D31*
X429134Y322835D02*
G03*
X429134Y322835I-394J0D01*
G01*
D32*
X436500Y262118D02*
G03*
X436500Y248118I0J-7000D01*
G01*
Y264118D02*
G03*
X436500Y246118I0J-9000D01*
G01*
X463500D02*
G03*
X463500Y264118I0J9000D01*
G01*
Y248118D02*
G03*
X463500Y262118I0J7000D01*
G01*
X517205Y348996D02*
X519705Y346496D01*
X524705D01*
X527205Y348996D01*
Y353996D01*
X524705Y356496D02*
X527205Y353996D01*
X519705Y356496D02*
X524705D01*
X517205Y353996D02*
X519705Y356496D01*
X499705Y346496D02*
X504705D01*
X497205Y348996D02*
X499705Y346496D01*
X497205Y353996D02*
X499705Y356496D01*
X497205Y348996D02*
Y353996D01*
X507205Y348996D02*
X509705Y346496D01*
X514705D01*
X517205Y348996D01*
Y353996D01*
X514705Y356496D02*
X517205Y353996D01*
X509705Y356496D02*
X514705D01*
X507205Y353996D02*
X509705Y356496D01*
X504705Y346496D02*
X507205Y348996D01*
Y353996D01*
X504705Y356496D02*
X507205Y353996D01*
X499705Y356496D02*
X504705D01*
X517205Y338996D02*
X519705Y336496D01*
X524705D01*
X527205Y338996D01*
Y343996D01*
X524705Y346496D02*
X527205Y343996D01*
X519705Y346496D02*
X524705D01*
X517205Y343996D02*
X519705Y346496D01*
X499705Y336496D02*
X504705D01*
X497205Y338996D02*
X499705Y336496D01*
X497205Y343996D02*
X499705Y346496D01*
X497205Y338996D02*
Y343996D01*
X507205Y338996D02*
X509705Y336496D01*
X514705D01*
X517205Y338996D01*
Y343996D01*
X514705Y346496D02*
X517205Y343996D01*
X509705Y346496D02*
X514705D01*
X507205Y343996D02*
X509705Y346496D01*
X504705Y336496D02*
X507205Y338996D01*
Y343996D01*
X504705Y346496D02*
X507205Y343996D01*
X499705Y346496D02*
X504705D01*
X517205Y328996D02*
X519705Y326496D01*
X524705D01*
X527205Y328996D01*
Y333996D01*
X524705Y336496D02*
X527205Y333996D01*
X519705Y336496D02*
X524705D01*
X517205Y333996D02*
X519705Y336496D01*
X499705Y326496D02*
X504705D01*
X497205Y328996D02*
X499705Y326496D01*
X497205Y333996D02*
X499705Y336496D01*
X497205Y328996D02*
Y333996D01*
X507205Y328996D02*
X509705Y326496D01*
X514705D01*
X517205Y328996D01*
Y333996D01*
X514705Y336496D02*
X517205Y333996D01*
X509705Y336496D02*
X514705D01*
X507205Y333996D02*
X509705Y336496D01*
X504705Y326496D02*
X507205Y328996D01*
Y333996D01*
X504705Y336496D02*
X507205Y333996D01*
X499705Y336496D02*
X504705D01*
X517205Y318996D02*
X519705Y316496D01*
X524705D01*
X527205Y318996D01*
Y323996D01*
X524705Y326496D02*
X527205Y323996D01*
X519705Y326496D02*
X524705D01*
X517205Y323996D02*
X519705Y326496D01*
X499705Y316496D02*
X504705D01*
X497205Y318996D02*
X499705Y316496D01*
X497205Y323996D02*
X499705Y326496D01*
X497205Y318996D02*
Y323996D01*
X507205Y318996D02*
X509705Y316496D01*
X514705D01*
X517205Y318996D01*
Y323996D01*
X514705Y326496D02*
X517205Y323996D01*
X509705Y326496D02*
X514705D01*
X507205Y323996D02*
X509705Y326496D01*
X504705Y316496D02*
X507205Y318996D01*
Y323996D01*
X504705Y326496D02*
X507205Y323996D01*
X499705Y326496D02*
X504705D01*
X517205Y308996D02*
X519705Y306496D01*
X524705D01*
X527205Y308996D01*
Y313996D01*
X524705Y316496D02*
X527205Y313996D01*
X519705Y316496D02*
X524705D01*
X517205Y313996D02*
X519705Y316496D01*
X499705Y306496D02*
X504705D01*
X497205Y308996D02*
X499705Y306496D01*
X497205Y313996D02*
X499705Y316496D01*
X497205Y308996D02*
Y313996D01*
X507205Y308996D02*
X509705Y306496D01*
X514705D01*
X517205Y308996D01*
Y313996D01*
X514705Y316496D02*
X517205Y313996D01*
X509705Y316496D02*
X514705D01*
X507205Y313996D02*
X509705Y316496D01*
X504705Y306496D02*
X507205Y308996D01*
Y313996D01*
X504705Y316496D02*
X507205Y313996D01*
X499705Y316496D02*
X504705D01*
X517205Y298996D02*
X519705Y296496D01*
X524705D01*
X527205Y298996D01*
Y303996D01*
X524705Y306496D02*
X527205Y303996D01*
X519705Y306496D02*
X524705D01*
X517205Y303996D02*
X519705Y306496D01*
X499705Y296496D02*
X504705D01*
X497205Y298996D02*
X499705Y296496D01*
X497205Y303996D02*
X499705Y306496D01*
X497205Y298996D02*
Y303996D01*
X507205Y298996D02*
X509705Y296496D01*
X514705D01*
X517205Y298996D01*
Y303996D01*
X514705Y306496D02*
X517205Y303996D01*
X509705Y306496D02*
X514705D01*
X507205Y303996D02*
X509705Y306496D01*
X504705Y296496D02*
X507205Y298996D01*
Y303996D01*
X504705Y306496D02*
X507205Y303996D01*
X499705Y306496D02*
X504705D01*
X391850Y388996D02*
Y393996D01*
X394350Y396496D01*
X399350D02*
X401850Y393996D01*
X394350Y396496D02*
X399350D01*
X391850Y383996D02*
X394350Y386496D01*
X391850Y378996D02*
Y383996D01*
Y378996D02*
X394350Y376496D01*
X399350D01*
X401850Y378996D01*
Y383996D01*
X399350Y386496D02*
X401850Y383996D01*
X391850Y388996D02*
X394350Y386496D01*
X399350D01*
X401850Y388996D01*
Y393996D01*
X436500Y264118D02*
X463500D01*
X436500Y246118D02*
X463500D01*
X436500Y262118D02*
X463500D01*
X436500Y248118D02*
X463500D01*
D35*
X476624Y219783D02*
Y239469D01*
Y219783D02*
X488435D01*
Y239469D01*
X476624D02*
X488435D01*
D36*
X471850Y351181D02*
Y352756D01*
X467126Y351181D02*
Y352756D01*
X474016Y351181D02*
Y352756D01*
X478740Y351181D02*
Y352756D01*
X474409Y397835D02*
X475984D01*
X474409Y393110D02*
X475984D01*
X424409Y364764D02*
Y367126D01*
X414567Y364764D02*
Y367126D01*
X424409D01*
X414567Y366378D02*
X424409D01*
X435433Y364764D02*
Y367126D01*
X425591Y364764D02*
Y367126D01*
X435433D01*
X425591Y366378D02*
X435433D01*
X489567Y391535D02*
Y393110D01*
X494291Y391535D02*
Y393110D01*
X516142Y191339D02*
Y192913D01*
X520866Y191339D02*
Y192913D01*
X477756Y365945D02*
X479331D01*
X477756Y361221D02*
X479331D01*
X470079Y315354D02*
Y316929D01*
X465354Y315354D02*
Y316929D01*
X459842Y237795D02*
Y239370D01*
X464567Y237795D02*
Y239370D01*
X463386Y315354D02*
Y316929D01*
X458661Y315354D02*
Y316929D01*
X463583Y394685D02*
Y394882D01*
Y381102D02*
Y381299D01*
X454331Y381102D02*
Y394882D01*
X438779Y394685D02*
Y394882D01*
Y381102D02*
Y381299D01*
Y381102D02*
X463583D01*
X438779Y394882D02*
X463583D01*
X508661Y382480D02*
X513779D01*
X500394D02*
Y382677D01*
X508661Y375787D02*
X513779D01*
X500394Y375590D02*
Y375787D01*
Y382677D02*
X513779D01*
X500394Y375590D02*
X513779D01*
X513976Y390551D02*
Y392126D01*
X518701Y390551D02*
Y392126D01*
X427756Y350984D02*
X429331D01*
X427756Y346260D02*
X429331D01*
X453150Y314567D02*
Y316142D01*
X448425Y314567D02*
Y316142D01*
X450394Y238189D02*
Y239764D01*
X455118Y238189D02*
Y239764D01*
X481890Y287795D02*
X483465D01*
X481890Y292520D02*
X483465D01*
X444095Y238189D02*
Y239764D01*
X448819Y238189D02*
Y239764D01*
X437795Y335433D02*
Y337008D01*
X442520Y335433D02*
Y337008D01*
X445276Y335433D02*
Y337008D01*
X450000Y335433D02*
Y337008D01*
X427953Y265354D02*
X429528D01*
X427953Y270079D02*
X429528D01*
X470472Y270866D02*
X472047D01*
X470472Y266142D02*
X472047D01*
X458661Y329134D02*
Y330709D01*
X453937Y329134D02*
Y330709D01*
X513779Y248425D02*
X515354D01*
X513779Y253150D02*
X515354D01*
X513779Y242126D02*
X515354D01*
X513779Y246850D02*
X515354D01*
X499606D02*
X501181D01*
X499606Y242126D02*
X501181D01*
X499606Y253150D02*
X501181D01*
X499606Y248425D02*
X501181D01*
X488976Y197638D02*
X490551D01*
X488976Y192913D02*
X490551D01*
X489370Y207874D02*
X490945D01*
X489370Y203150D02*
X490945D01*
X481496Y212598D02*
X483071D01*
X481496Y217323D02*
X483071D01*
X522441Y229528D02*
Y231102D01*
X517717Y229528D02*
Y231102D01*
X503937Y207874D02*
X505512D01*
X503937Y203150D02*
X505512D01*
X409350Y315945D02*
X410532D01*
X409252Y309547D02*
X410433D01*
X409350Y323031D02*
X410532D01*
X409252Y316634D02*
X410433D01*
X386221Y192717D02*
Y231693D01*
Y192717D02*
X391339D01*
X404331D02*
X412992D01*
X404331Y231693D02*
X412992D01*
X386221D02*
X391339D01*
X424016Y200197D02*
Y203347D01*
Y221063D02*
Y224213D01*
X468504Y367913D02*
X476772D01*
X468504D02*
Y371457D01*
X466929Y373031D02*
X468504Y371457D01*
X466929Y373031D02*
Y377756D01*
Y382480D01*
X468504Y384055D01*
X468504D02*
Y387598D01*
X476772D01*
X485039D01*
Y384055D02*
Y387598D01*
X485039Y384055D02*
X486614Y382480D01*
Y377756D02*
Y382480D01*
Y373031D02*
Y377756D01*
X485039Y371457D02*
X486614Y373031D01*
X485039Y367913D02*
Y371457D01*
X476772Y367913D02*
X485039D01*
X402362Y347638D02*
Y349213D01*
X407087Y347638D02*
Y349213D01*
X409055Y347638D02*
Y349213D01*
X413779Y347638D02*
Y349213D01*
X413386Y265354D02*
X414961D01*
X413386Y270079D02*
X414961D01*
X413386Y276772D02*
X414961D01*
X413386Y272047D02*
X414961D01*
X442913Y323228D02*
X444488D01*
X442913Y327953D02*
X444488D01*
X412598Y250394D02*
Y251969D01*
X407874Y250394D02*
Y251969D01*
X405905Y250394D02*
Y251969D01*
X401181Y250394D02*
Y251969D01*
X489370Y348819D02*
X490945D01*
X489370Y353543D02*
X490945D01*
X489370Y338976D02*
X490945D01*
X489370Y343701D02*
X490945D01*
X489370Y299606D02*
X490945D01*
X489370Y304331D02*
X490945D01*
X489370Y309449D02*
X490945D01*
X489370Y314173D02*
X490945D01*
X489370Y319291D02*
X490945D01*
X489370Y324016D02*
X490945D01*
X489370Y329134D02*
X490945D01*
X489370Y333858D02*
X490945D01*
X448032Y345866D02*
X455118D01*
X448032Y365551D02*
X455118D01*
X502559Y397835D02*
X504528D01*
X502559Y385630D02*
X504528D01*
X502559D02*
Y397835D01*
X504528Y385630D02*
Y397835D01*
X439567Y297047D02*
X461221D01*
X439567Y275394D02*
X461221D01*
X439567D02*
Y297047D01*
X461221Y275394D02*
Y297047D01*
X498228Y197933D02*
Y199409D01*
X499705D01*
X509744D02*
X511221D01*
Y197933D02*
Y199409D01*
Y186417D02*
Y187894D01*
X509744Y186417D02*
X511221D01*
X498228D02*
Y187894D01*
Y186417D02*
X499705D01*
D52*
X466634Y381102D02*
G03*
X466634Y381102I-492J0D01*
G01*
X427067Y218504D02*
G03*
X427067Y218504I-492J0D01*
G01*
X442618Y366555D02*
G03*
X442618Y366555I-492J0D01*
G01*
X499311Y398917D02*
G03*
X499311Y398917I-492J0D01*
G01*
X466831Y272638D02*
G03*
X466831Y272638I-492J0D01*
G01*
X496161Y198819D02*
G03*
X496161Y198819I-492J0D01*
G01*
D53*
X458465Y279331D02*
G03*
X458465Y279331I-1181J0D01*
G01*
D54*
X460236Y373031D02*
Y378150D01*
X442126Y373031D02*
Y378150D01*
X460236D01*
X442126Y367913D02*
X460236D01*
X442126D02*
Y373031D01*
X460236Y367913D02*
Y373031D01*
X425984Y321260D02*
Y326772D01*
Y321260D02*
X431102D01*
Y326772D01*
Y332283D01*
X425984D02*
X431102D01*
X425984Y326772D02*
Y332283D01*
X400787Y349724D02*
Y357205D01*
X396063D02*
X400787D01*
X396063Y342244D02*
X400787D01*
Y349724D01*
X391339Y342244D02*
Y349724D01*
Y342244D02*
X396063D01*
X391339Y357205D02*
X396063D01*
X391339Y349724D02*
Y357205D01*
X525591Y275079D02*
Y282559D01*
X520866Y275079D02*
X525591D01*
Y282559D02*
Y290039D01*
X516142Y282559D02*
Y290039D01*
Y275079D02*
X520866D01*
X516142D02*
Y282559D01*
Y275079D02*
Y295276D01*
X525591D01*
Y290039D02*
Y295276D01*
Y267047D02*
Y274528D01*
X520866D02*
X525591D01*
X520866Y259567D02*
X525591D01*
Y267047D01*
X516142Y259567D02*
Y267047D01*
Y259567D02*
X520866D01*
X516142Y274528D02*
X520866D01*
X516142Y267047D02*
Y274528D01*
X390158Y250118D02*
Y257598D01*
X394882D01*
X390158Y242638D02*
Y250118D01*
X399606Y242638D02*
Y250118D01*
X394882Y257598D02*
X399606D01*
Y250118D02*
Y257598D01*
Y237402D02*
Y257598D01*
X390158Y237402D02*
X399606D01*
X390158D02*
Y242638D01*
X391339Y305787D02*
Y313268D01*
Y305787D02*
X396063D01*
X391339Y320748D02*
X396063D01*
X391339Y313268D02*
Y320748D01*
X400787Y313268D02*
Y320748D01*
X396063D02*
X400787D01*
X396063Y305787D02*
X400787D01*
Y313268D01*
X391339Y333976D02*
Y341457D01*
X396063D01*
X391339Y326496D02*
Y333976D01*
X400787Y326496D02*
Y333976D01*
X396063Y341457D02*
X400787D01*
Y333976D02*
Y341457D01*
Y321260D02*
Y341457D01*
X391339Y321260D02*
X400787D01*
X391339D02*
Y326496D01*
X468504Y371457D02*
X468504D01*
Y367913D02*
Y370276D01*
Y385236D02*
Y387598D01*
X468504Y384055D02*
X468504D01*
X485039D02*
X485039D01*
X485039Y385236D02*
Y387598D01*
Y367913D02*
Y370276D01*
Y371457D02*
X485039D01*
D55*
X445075Y345866D02*
X448032D01*
X445075D02*
Y365551D01*
X448032D01*
X458075D01*
Y345866D02*
Y365551D01*
X455118Y345866D02*
X458075D01*
D56*
X513131Y222115D02*
X514431D01*
Y237115D02*
Y238515D01*
X494231D02*
X495531D01*
X494231Y222115D02*
X495531D01*
X514431D02*
Y223515D01*
X513131Y238515D02*
X514431D01*
X494231Y237115D02*
Y238515D01*
Y222115D02*
Y223515D01*
Y238515D02*
X499231D01*
X494231Y222115D02*
Y233515D01*
Y222115D02*
X514431D01*
Y238515D01*
X499231D02*
X514431D01*
X494231Y233515D02*
Y238515D01*
D57*
X458268Y373031D02*
D03*
M02*
