%FSLAX25Y25*%
%MOIN*%
G70*
G01*
G75*
G04 Layer_Physical_Order=2*
G04 Layer_Color=16711680*
%ADD10R,0.05906X0.05118*%
%ADD11R,0.05118X0.05906*%
%ADD12R,0.10630X0.06299*%
%ADD13R,0.07874X0.07874*%
%ADD14C,0.03937*%
%ADD15R,0.10236X0.08661*%
%ADD16R,0.07874X0.04724*%
%ADD17R,0.05118X0.06299*%
%ADD18R,0.05512X0.03543*%
%ADD19R,0.09843X0.07874*%
%ADD20R,0.09055X0.01969*%
%ADD21R,0.16535X0.05512*%
%ADD22O,0.08661X0.02362*%
%ADD23R,0.04331X0.02559*%
%ADD24O,0.00984X0.05906*%
%ADD25O,0.05906X0.00984*%
%ADD26R,0.02362X0.00984*%
%ADD27R,0.00984X0.02362*%
%ADD28R,0.02165X0.00984*%
%ADD29R,0.00984X0.02165*%
%ADD30R,0.05118X0.02165*%
%ADD31C,0.01181*%
%ADD32C,0.00800*%
%ADD33C,0.01200*%
%ADD34C,0.02000*%
%ADD35C,0.01000*%
%ADD36C,0.00787*%
%ADD37C,0.01969*%
%ADD38C,0.02362*%
G04:AMPARAMS|DCode=39|XSize=35.43mil|YSize=47.24mil|CornerRadius=0mil|HoleSize=0mil|Usage=FLASHONLY|Rotation=90.000|XOffset=0mil|YOffset=0mil|HoleType=Round|Shape=Octagon|*
%AMOCTAGOND39*
4,1,8,-0.02362,-0.00886,-0.02362,0.00886,-0.01476,0.01772,0.01476,0.01772,0.02362,0.00886,0.02362,-0.00886,0.01476,-0.01772,-0.01476,-0.01772,-0.02362,-0.00886,0.0*
%
%ADD39OCTAGOND39*%

G04:AMPARAMS|DCode=40|XSize=80mil|YSize=60mil|CornerRadius=0mil|HoleSize=0mil|Usage=FLASHONLY|Rotation=90.000|XOffset=0mil|YOffset=0mil|HoleType=Round|Shape=Octagon|*
%AMOCTAGOND40*
4,1,8,0.01500,0.04000,-0.01500,0.04000,-0.03000,0.02500,-0.03000,-0.02500,-0.01500,-0.04000,0.01500,-0.04000,0.03000,-0.02500,0.03000,0.02500,0.01500,0.04000,0.0*
%
%ADD40OCTAGOND40*%

G04:AMPARAMS|DCode=41|XSize=31.5mil|YSize=39.37mil|CornerRadius=0mil|HoleSize=0mil|Usage=FLASHONLY|Rotation=270.000|XOffset=0mil|YOffset=0mil|HoleType=Round|Shape=Octagon|*
%AMOCTAGOND41*
4,1,8,0.01969,0.00787,0.01969,-0.00787,0.01181,-0.01575,-0.01181,-0.01575,-0.01969,-0.00787,-0.01969,0.00787,-0.01181,0.01575,0.01181,0.01575,0.01969,0.00787,0.0*
%
%ADD41OCTAGOND41*%

G04:AMPARAMS|DCode=42|XSize=80mil|YSize=60mil|CornerRadius=0mil|HoleSize=0mil|Usage=FLASHONLY|Rotation=0.000|XOffset=0mil|YOffset=0mil|HoleType=Round|Shape=Octagon|*
%AMOCTAGOND42*
4,1,8,0.04000,-0.01500,0.04000,0.01500,0.02500,0.03000,-0.02500,0.03000,-0.04000,0.01500,-0.04000,-0.01500,-0.02500,-0.03000,0.02500,-0.03000,0.04000,-0.01500,0.0*
%
%ADD42OCTAGOND42*%

G04:AMPARAMS|DCode=43|XSize=100mil|YSize=60mil|CornerRadius=0mil|HoleSize=0mil|Usage=FLASHONLY|Rotation=270.000|XOffset=0mil|YOffset=0mil|HoleType=Round|Shape=Octagon|*
%AMOCTAGOND43*
4,1,8,-0.01500,-0.05000,0.01500,-0.05000,0.03000,-0.03500,0.03000,0.03500,0.01500,0.05000,-0.01500,0.05000,-0.03000,0.03500,-0.03000,-0.03500,-0.01500,-0.05000,0.0*
%
%ADD43OCTAGOND43*%

%ADD44O,0.06000X0.10000*%
%ADD45R,0.06102X0.03937*%
%ADD46R,0.03150X0.05906*%
%ADD47R,0.05906X0.05906*%
%ADD48R,0.06890X0.02756*%
%ADD49R,0.05906X0.05118*%
%ADD50R,0.05512X0.03150*%
%ADD51R,0.09449X0.02913*%
G36*
X455925Y321354D02*
X456693Y321202D01*
X462708D01*
X463021Y320445D01*
X444813Y302237D01*
X444551Y301844D01*
X444459Y301381D01*
X444459Y301381D01*
Y298887D01*
X443718Y298537D01*
X443307Y298874D01*
Y301811D01*
X433094D01*
Y312323D01*
X442043D01*
X442253Y312067D01*
X442406Y311299D01*
X442841Y310648D01*
X443492Y310213D01*
X444260Y310060D01*
X445028Y310213D01*
X445680Y310648D01*
X446114Y311299D01*
X446267Y312067D01*
X446218Y312313D01*
X455526Y321621D01*
X455925Y321354D01*
D02*
G37*
G36*
X475158Y343307D02*
X475311Y342539D01*
X475746Y341888D01*
X475751Y341885D01*
Y334252D01*
X473425D01*
Y327559D01*
X473425Y327559D01*
X473425Y326772D01*
X473425D01*
Y320079D01*
D01*
X473425Y320079D01*
X473425Y320079D01*
D01*
D01*
Y320079D01*
X473425D01*
D01*
Y313386D01*
X478800D01*
X480285Y311900D01*
Y295777D01*
X473868Y289360D01*
X473622Y289409D01*
X473104Y289305D01*
X472471Y289825D01*
Y343701D01*
X474835D01*
X475158Y343307D01*
D02*
G37*
G36*
X510168Y238120D02*
X510168Y238120D01*
X510560Y237858D01*
X510560Y237858D01*
X510560Y237858D01*
D01*
X510560Y237858D01*
X510560Y237858D01*
X511024Y237766D01*
X515846D01*
Y236811D01*
X524311D01*
Y237766D01*
X525213D01*
X525352Y237557D01*
X526004Y237122D01*
X526772Y236969D01*
X527540Y237122D01*
X527802Y237297D01*
X528524Y236911D01*
Y225912D01*
X527797Y225426D01*
X527768Y225414D01*
X526197Y226985D01*
X525785Y227260D01*
X525945Y228063D01*
X525965Y228067D01*
X526616Y228502D01*
X527051Y229153D01*
X527204Y229921D01*
X527051Y230689D01*
X526616Y231341D01*
X525965Y231776D01*
X525197Y231928D01*
X524944Y231878D01*
X524311Y232398D01*
Y232480D01*
X515846D01*
Y231526D01*
X511525D01*
X508691Y234360D01*
Y238527D01*
X509447Y238840D01*
X510168Y238120D01*
D02*
G37*
G36*
X455274Y336789D02*
X455925Y336354D01*
X456693Y336202D01*
X462992D01*
X463760Y336354D01*
X464411Y336789D01*
X464411Y336789D01*
X464411Y336789D01*
D01*
X464560Y336982D01*
Y336982D01*
X464560Y336982D01*
X465317Y336226D01*
X465316Y336221D01*
X465469Y335452D01*
X465904Y334801D01*
X466555Y334366D01*
X467323Y334213D01*
X468091Y334366D01*
X468742Y334801D01*
X469177Y335452D01*
X469234Y335739D01*
X470049Y335659D01*
Y288414D01*
X470043Y288383D01*
X470043Y288383D01*
Y282936D01*
X469410Y282417D01*
X469022Y282494D01*
X462241Y289275D01*
Y290944D01*
X462134Y291486D01*
X462035Y291634D01*
X462134Y291782D01*
X462241Y292323D01*
X462241Y292323D01*
X462241Y292323D01*
Y292323D01*
Y300751D01*
X463342D01*
X463345Y300746D01*
X463996Y300311D01*
X464764Y300158D01*
X465532Y300311D01*
X466183Y300746D01*
X466618Y301397D01*
X466771Y302165D01*
X466618Y302933D01*
X466183Y303585D01*
X465532Y304020D01*
X464764Y304172D01*
X463996Y304020D01*
X463345Y303585D01*
X463342Y303580D01*
X461413D01*
X458108Y306885D01*
Y307633D01*
X458112Y307636D01*
X458547Y308287D01*
X458700Y309055D01*
X458547Y309823D01*
X458112Y310474D01*
X457667Y310772D01*
X457587Y311587D01*
X465495Y319495D01*
X465824Y319561D01*
X466217Y319823D01*
X466998Y320604D01*
X466998Y320604D01*
X467260Y320997D01*
X467352Y321460D01*
Y325197D01*
X467260Y325660D01*
X466998Y326053D01*
X464973Y328078D01*
X464999Y328209D01*
X464846Y328977D01*
X464411Y329628D01*
X463760Y330063D01*
X462992Y330216D01*
X461053D01*
Y331202D01*
X462992D01*
X463760Y331354D01*
X464411Y331789D01*
X464846Y332441D01*
X464999Y333209D01*
X464846Y333977D01*
X464411Y334628D01*
X463760Y335063D01*
X462992Y335216D01*
X456693D01*
X455925Y335063D01*
X455274Y334628D01*
X454839Y333977D01*
X454781Y333690D01*
X453967Y333770D01*
Y336900D01*
X454065Y336998D01*
X455134D01*
X455274Y336789D01*
D02*
G37*
G36*
X410236Y340577D02*
X410236Y340577D01*
X409468Y340424D01*
X408817Y339989D01*
X408382Y339338D01*
X408229Y338570D01*
X407755Y337992D01*
X402874D01*
X402560Y338749D01*
X403156Y339345D01*
X403463Y339804D01*
X403571Y340345D01*
Y346249D01*
X403653Y346331D01*
X403700Y346340D01*
X404114Y346617D01*
X410236D01*
Y340577D01*
D02*
G37*
G36*
X528524Y241042D02*
X527802Y240655D01*
X527540Y240831D01*
X526772Y240983D01*
X526004Y240831D01*
X525352Y240396D01*
X525213Y240187D01*
X524890D01*
X524311Y240766D01*
Y241142D01*
Y241142D01*
D01*
X524311Y241721D01*
X524311Y241721D01*
X524311Y241721D01*
Y245472D01*
X515846D01*
Y241721D01*
X515846Y241721D01*
X515846Y241721D01*
X515846Y241142D01*
Y241142D01*
D01*
Y240766D01*
X515267Y240187D01*
X511525D01*
X510278Y241434D01*
Y242507D01*
X510278Y242507D01*
X510202Y242894D01*
X510186Y242970D01*
X509924Y243363D01*
X509924Y243363D01*
X501604Y251683D01*
Y253953D01*
X501813Y254093D01*
X502248Y254744D01*
X502401Y255512D01*
X502248Y256280D01*
X501813Y256931D01*
X501162Y257366D01*
X500394Y257519D01*
X499626Y257366D01*
X498975Y256931D01*
X498539Y256280D01*
X498387Y255512D01*
X498539Y254744D01*
X498975Y254093D01*
X499183Y253953D01*
Y252894D01*
X498426Y252581D01*
X491865Y259143D01*
X491472Y259405D01*
X491009Y259497D01*
X491009Y259497D01*
X489203D01*
X474306Y274394D01*
X474396Y274609D01*
X475199Y274769D01*
X482858Y267110D01*
X482858D01*
X482858Y267110D01*
X482858Y267110D01*
Y267110D01*
X483317Y266803D01*
X483858Y266696D01*
X484798D01*
X484801Y266691D01*
X485452Y266256D01*
X486221Y266103D01*
X486988Y266256D01*
X487640Y266691D01*
X488075Y267342D01*
X488228Y268110D01*
X488075Y268878D01*
X487640Y269529D01*
X486988Y269965D01*
X486221Y270117D01*
X485452Y269965D01*
X484801Y269529D01*
X484798Y269525D01*
X484444D01*
X476404Y277565D01*
X475945Y277872D01*
D01*
X475945Y277872D01*
X475869Y278365D01*
D01*
X476022Y279133D01*
X475869Y279901D01*
X475434Y280553D01*
X474783Y280988D01*
X474140Y281116D01*
X472464Y282791D01*
Y284979D01*
X473097Y285499D01*
X473622Y285395D01*
X474390Y285547D01*
X475041Y285982D01*
X475476Y286633D01*
X475629Y287402D01*
X475580Y287648D01*
X482352Y294420D01*
X482352Y294420D01*
X482615Y294812D01*
X482707Y295276D01*
Y312402D01*
X482707Y312402D01*
X482615Y312865D01*
X482352Y313258D01*
X480905Y314704D01*
Y320079D01*
D01*
Y320079D01*
X480905Y320079D01*
Y320079D01*
X480905D01*
X480905D01*
Y326772D01*
D01*
Y326772D01*
X480905Y326772D01*
Y327559D01*
X480905D01*
Y334252D01*
X478580D01*
Y341885D01*
X478585Y341888D01*
X479020Y342539D01*
X479172Y343307D01*
X479020Y344075D01*
X478999Y344106D01*
X483293Y348400D01*
X483600Y348859D01*
X483708Y349400D01*
Y353361D01*
X485625Y355278D01*
X494488D01*
X495029Y355386D01*
X495489Y355693D01*
X495489Y355693D01*
X495489Y355693D01*
X510671Y370875D01*
X511201Y370980D01*
X511852Y371415D01*
X512287Y372067D01*
X512440Y372835D01*
X512287Y373603D01*
X511852Y374254D01*
X511201Y374689D01*
X510433Y374842D01*
X509665Y374689D01*
X509014Y374254D01*
X508579Y373603D01*
X508426Y372835D01*
X508460Y372665D01*
X493902Y358107D01*
X485039D01*
X484498Y358000D01*
X484039Y357693D01*
X481293Y354947D01*
X480986Y354488D01*
X480878Y353946D01*
Y349986D01*
X476741Y345848D01*
X475984Y346162D01*
Y350394D01*
X469106D01*
Y351110D01*
X469106D01*
Y357803D01*
X461626D01*
Y355667D01*
X440158D01*
X440158Y355667D01*
X439771Y355591D01*
X439694Y355575D01*
X439301Y355313D01*
X439301Y355313D01*
X436898Y352909D01*
X436811Y352927D01*
X436043Y352774D01*
X435392Y352339D01*
X434957Y351688D01*
X434804Y350920D01*
X434957Y350152D01*
X435392Y349501D01*
X436043Y349065D01*
X436811Y348913D01*
X437579Y349065D01*
X438230Y349501D01*
X438665Y350152D01*
X438818Y350920D01*
X438738Y351325D01*
X440659Y353246D01*
X461626D01*
Y351110D01*
X461626Y351110D01*
X461626Y350323D01*
X461626D01*
Y343630D01*
X469106D01*
Y343701D01*
X470049D01*
Y336782D01*
X469234Y336701D01*
X469177Y336988D01*
X468742Y337640D01*
X468091Y338075D01*
X467323Y338228D01*
X467317Y338227D01*
X466975Y338569D01*
Y339273D01*
D01*
Y339272D01*
X466975D01*
D01*
Y339273D01*
X466975D01*
Y339273D01*
X466975Y339273D01*
X466975Y339273D01*
D01*
D01*
D01*
D01*
X466867Y339814D01*
X466764Y339969D01*
X466764Y339969D01*
X466561Y340273D01*
Y340273D01*
X466561Y340273D01*
X464701Y342132D01*
X464242Y342439D01*
X463701Y342547D01*
X437406D01*
X430922Y349032D01*
X430463Y349338D01*
X429921Y349446D01*
X422136D01*
X421595Y349338D01*
X421136Y349032D01*
X420950Y348846D01*
X419994D01*
X419809Y349032D01*
X419350Y349338D01*
X419286Y349351D01*
X418973Y350108D01*
X419176Y350412D01*
X419329Y351180D01*
X419301Y351321D01*
X419982Y351776D01*
X420441Y351469D01*
X421209Y351317D01*
X421977Y351469D01*
X422628Y351905D01*
X423064Y352556D01*
X423216Y353324D01*
X423064Y354092D01*
X422628Y354743D01*
X421977Y355178D01*
X421209Y355331D01*
X420441Y355178D01*
X419790Y354743D01*
X417459Y356301D01*
X413628Y360131D01*
Y376559D01*
X413628Y376559D01*
X413551Y376945D01*
X413536Y377022D01*
X413273Y377415D01*
X413273Y377415D01*
X408336Y382352D01*
X407944Y382615D01*
X407480Y382707D01*
X407480Y382707D01*
X401638D01*
Y383390D01*
X399744Y385283D01*
X393957D01*
X392063Y383390D01*
Y379602D01*
X393957Y377709D01*
X399744D01*
X401638Y379602D01*
Y380285D01*
X406979D01*
X408161Y379103D01*
X407848Y378346D01*
X402362D01*
Y373228D01*
X407842D01*
X409215Y371855D01*
Y365158D01*
X405893D01*
X405709Y365194D01*
X402554D01*
X402400Y365349D01*
X402401Y365354D01*
X402248Y366122D01*
X401813Y366774D01*
X401162Y367209D01*
X400394Y367361D01*
X399626Y367209D01*
X398974Y366774D01*
X398539Y366122D01*
X398387Y365354D01*
X398539Y364586D01*
X398974Y363935D01*
X399626Y363500D01*
X400394Y363347D01*
X400399Y363348D01*
X400968Y362779D01*
X401427Y362473D01*
X401968Y362365D01*
X402362D01*
Y360039D01*
X409215D01*
Y354528D01*
X409323Y353986D01*
X409630Y353527D01*
X409630Y353527D01*
X409630Y353527D01*
X411992Y351165D01*
X412451Y350858D01*
X412992Y350751D01*
X415146D01*
X415567Y350048D01*
X415245Y349446D01*
X403543D01*
X403002Y349338D01*
X402543Y349032D01*
X402475Y348964D01*
X402427Y348954D01*
X401968Y348647D01*
X401156Y347835D01*
X400849Y347376D01*
X400741Y346834D01*
Y340931D01*
X400202Y340391D01*
X399078D01*
X397933Y341535D01*
X394193D01*
X392913Y340256D01*
Y337697D01*
X394134Y336476D01*
X392913Y335256D01*
Y332697D01*
X394134Y331476D01*
X392913Y330256D01*
Y327697D01*
X394193Y326417D01*
X397933D01*
X399213Y327697D01*
Y330078D01*
X399502Y330166D01*
X400160Y329678D01*
Y327559D01*
X400268Y327018D01*
X400574Y326559D01*
X400574Y326559D01*
X400574Y326559D01*
X401362Y325771D01*
X401821Y325465D01*
X402362Y325357D01*
X402756D01*
Y323031D01*
Y322015D01*
X402362Y321692D01*
X401594Y321539D01*
X400943Y321104D01*
X400508Y320453D01*
X400355Y319685D01*
X400508Y318917D01*
X400943Y318266D01*
X401594Y317831D01*
X402362Y317678D01*
X402756Y317355D01*
Y315945D01*
Y314535D01*
X402362Y314212D01*
X401594Y314059D01*
X400943Y313624D01*
X400508Y312973D01*
X400355Y312205D01*
X400508Y311437D01*
X400943Y310786D01*
X401594Y310350D01*
X402362Y310198D01*
X402756Y309875D01*
Y308661D01*
X409449D01*
Y315945D01*
Y323031D01*
X410236D01*
Y323031D01*
X416929D01*
Y324777D01*
X417686Y325090D01*
X419223Y323553D01*
X419223Y323553D01*
X419615Y323291D01*
X419692Y323276D01*
X420079Y323199D01*
X420079Y323199D01*
X421260D01*
Y320669D01*
X427953D01*
Y320669D01*
X427953D01*
X427953Y320669D01*
X428740D01*
Y320669D01*
X430876D01*
Y319800D01*
X430471Y319529D01*
X430035Y318878D01*
X429883Y318110D01*
X430035Y317342D01*
X430471Y316691D01*
X430738Y316512D01*
X430425Y315756D01*
X430315Y315778D01*
X430315Y315778D01*
X427953D01*
Y316811D01*
X416929D01*
Y312323D01*
X416929Y312323D01*
X416929Y311811D01*
X416929D01*
Y307323D01*
X416929Y307323D01*
X416929Y306811D01*
X416929D01*
Y302323D01*
X416929D01*
Y302024D01*
X416296Y301504D01*
X415748Y301613D01*
X414980Y301461D01*
X414329Y301026D01*
X413894Y300374D01*
X413741Y299606D01*
X413894Y298838D01*
X414329Y298187D01*
X414862Y297831D01*
X414624Y297047D01*
X410630D01*
Y289567D01*
X415716D01*
X416530Y288753D01*
X416496Y288582D01*
X416649Y287814D01*
X417084Y287163D01*
X417735Y286728D01*
X418503Y286575D01*
X419271Y286728D01*
X419922Y287163D01*
X420357Y287814D01*
X420510Y288582D01*
X420357Y289350D01*
X419922Y290001D01*
X419271Y290436D01*
X419271Y290436D01*
X419271D01*
X418852Y290794D01*
X418852Y290794D01*
X419200Y291315D01*
X419322Y291929D01*
X419645Y292323D01*
X422654D01*
X423142Y291665D01*
X423018Y291257D01*
X422853Y291224D01*
X422202Y290789D01*
X421767Y290138D01*
X421614Y289370D01*
X421767Y288601D01*
X422202Y287950D01*
X422804Y287548D01*
Y284442D01*
X422746Y284384D01*
X422484Y283991D01*
X422392Y283528D01*
X422392Y283528D01*
Y280251D01*
X422392Y280251D01*
X422484Y279787D01*
X422746Y279395D01*
X422804Y279336D01*
Y256213D01*
X417796Y251204D01*
X417717Y251220D01*
X416949Y251067D01*
X416297Y250632D01*
X415862Y249981D01*
X415709Y249213D01*
X415862Y248445D01*
X416297Y247793D01*
X416506Y247654D01*
Y245383D01*
X416428Y245305D01*
X402864D01*
X398031Y250137D01*
Y251398D01*
X396811Y252618D01*
X398031Y253839D01*
Y256398D01*
X396752Y257677D01*
X393012D01*
X391732Y256398D01*
Y253839D01*
X392953Y252618D01*
X391732Y251398D01*
Y248839D01*
X392953Y247618D01*
X391732Y246398D01*
Y243839D01*
X393012Y242559D01*
X396752D01*
X398031Y243839D01*
Y245643D01*
X398788Y245956D01*
X401506Y243238D01*
X401506Y243238D01*
X401899Y242976D01*
X401976Y242961D01*
X402362Y242884D01*
X402362Y242884D01*
X416929D01*
X416929Y242884D01*
X417392Y242976D01*
X417785Y243238D01*
X418573Y244026D01*
X418573Y244026D01*
X418835Y244419D01*
X418850Y244496D01*
X418927Y244882D01*
X418927Y244882D01*
Y247654D01*
X419136Y247793D01*
X419571Y248445D01*
X419724Y249213D01*
X419641Y249625D01*
X423623Y253607D01*
X424380Y253294D01*
Y252562D01*
X424380Y252562D01*
X424386Y252530D01*
Y247232D01*
X424171Y247089D01*
X423736Y246437D01*
X423584Y245669D01*
X423736Y244901D01*
X424171Y244250D01*
X424823Y243815D01*
X425591Y243662D01*
X425597Y243664D01*
X426230Y243144D01*
Y236800D01*
X420138Y230709D01*
X415689D01*
X413583Y232815D01*
Y238189D01*
X406102D01*
Y231496D01*
X406102Y231496D01*
X406102Y230709D01*
X406102D01*
Y224016D01*
X408464D01*
X408623Y223213D01*
X408355Y223101D01*
X407821Y222691D01*
X407410Y222157D01*
X407153Y221534D01*
X407064Y220866D01*
X407153Y220198D01*
X407246Y219972D01*
X406791Y219291D01*
X404468D01*
X402352Y221408D01*
X402401Y221654D01*
X402248Y222422D01*
X401813Y223073D01*
X401162Y223508D01*
X400394Y223661D01*
X399626Y223508D01*
X398974Y223073D01*
X398539Y222422D01*
X398387Y221654D01*
X398436Y221408D01*
X396782Y219754D01*
X396519Y219361D01*
X396505Y219291D01*
X393898D01*
Y212598D01*
X401378D01*
Y212598D01*
D01*
X401378Y212598D01*
X401378D01*
Y212598D01*
X408858D01*
Y217768D01*
X409474Y218308D01*
X409646Y218285D01*
X410314Y218373D01*
X410936Y218631D01*
X411241Y218865D01*
X412049Y218731D01*
X412360Y218266D01*
X413012Y217831D01*
X413779Y217678D01*
X414548Y217831D01*
X415199Y218266D01*
X415634Y218917D01*
X415787Y219685D01*
X415634Y220453D01*
X415199Y221104D01*
X414548Y221539D01*
X413815Y221685D01*
Y223825D01*
X413723Y224289D01*
X413583Y224499D01*
Y228320D01*
X414083Y228527D01*
X414764Y228073D01*
Y224016D01*
X422244D01*
Y229390D01*
X428296Y235443D01*
X428559Y235835D01*
X428651Y236299D01*
X428651Y236299D01*
Y243668D01*
X428815Y243832D01*
X428815Y243832D01*
X429077Y244225D01*
X429170Y244688D01*
Y246650D01*
X429077Y247114D01*
X428815Y247506D01*
X428815Y247506D01*
X428651Y247671D01*
Y280252D01*
X428977Y280470D01*
X429413Y281121D01*
X429565Y281889D01*
X429413Y282657D01*
X428977Y283308D01*
X428977D01*
X428781Y283817D01*
D01*
X429216Y284468D01*
X429369Y285236D01*
X429216Y286004D01*
X428781Y286655D01*
X428662Y286735D01*
X428577Y287549D01*
X428584Y287557D01*
X428584Y287557D01*
X428584D01*
X428959Y288119D01*
X429774Y288199D01*
X437689Y280284D01*
X437375Y279528D01*
X430905D01*
Y272835D01*
X438386D01*
Y274766D01*
X446655D01*
X447196Y274874D01*
X447655Y275181D01*
X447655Y275181D01*
X447655Y275181D01*
X451968Y279494D01*
X455867Y275595D01*
X455866Y275590D01*
X456019Y274822D01*
X456454Y274171D01*
X457105Y273736D01*
X457873Y273583D01*
X458641Y273736D01*
X459292Y274171D01*
X459727Y274822D01*
X459880Y275590D01*
X459727Y276358D01*
X459292Y277009D01*
X458641Y277444D01*
X457873Y277597D01*
X457868Y277596D01*
X453909Y281555D01*
X453976Y281890D01*
X453823Y282658D01*
X453388Y283309D01*
X452737Y283744D01*
X451968Y283897D01*
X451633Y283830D01*
X447849Y287614D01*
X447390Y287921D01*
X446849Y288029D01*
X446698D01*
X446695Y288033D01*
X446044Y288469D01*
X445276Y288621D01*
X444508Y288469D01*
X443856Y288033D01*
X443421Y287382D01*
X443268Y286614D01*
X443390Y286002D01*
X443227Y285758D01*
X442412Y285678D01*
X436524Y291566D01*
X436837Y292323D01*
X443307D01*
Y294039D01*
X443940Y294559D01*
X444405Y294466D01*
X444860Y293785D01*
X444843Y293701D01*
X444996Y292933D01*
X445431Y292282D01*
X446082Y291846D01*
X446847Y291694D01*
X487816Y250725D01*
Y250725D01*
D01*
Y250725D01*
X487816Y250725D01*
D01*
D01*
X487816D01*
X487816Y250725D01*
Y250725D01*
Y250725D01*
D01*
D01*
X487816D01*
Y250725D01*
X488209Y250463D01*
X488672Y250370D01*
X492723D01*
X503095Y239998D01*
Y236695D01*
X502338Y236382D01*
X497707Y241014D01*
X497314Y241276D01*
X496850Y241368D01*
X496850Y241368D01*
X493082D01*
X492500Y241757D01*
X491732Y241909D01*
X490964Y241757D01*
X490313Y241322D01*
X489878Y240670D01*
X489725Y239902D01*
X489878Y239134D01*
X490313Y238483D01*
X490964Y238048D01*
X491732Y237895D01*
X492500Y238048D01*
X493152Y238483D01*
X493461Y238947D01*
X496349D01*
X498592Y236704D01*
X498449Y235987D01*
X498412Y235863D01*
X497657Y235713D01*
X497006Y235278D01*
X496571Y234626D01*
X496418Y233858D01*
X496571Y233090D01*
X497006Y232439D01*
X497214Y232300D01*
Y220979D01*
X496581Y220460D01*
X496360Y220503D01*
X495746Y220381D01*
X495225Y220033D01*
X494877Y219512D01*
X494755Y218898D01*
X494877Y218283D01*
X495225Y217762D01*
X495746Y217414D01*
X496360Y217292D01*
X496581Y217336D01*
X497214Y216816D01*
Y211024D01*
X487795D01*
Y184468D01*
X390374D01*
Y237795D01*
X390374Y237795D01*
X390374Y237795D01*
Y237795D01*
Y349285D01*
X391101Y349771D01*
X391130Y349783D01*
X391913Y349000D01*
X391913D01*
X391913Y349000D01*
X391913Y349000D01*
Y349000D01*
X392372Y348693D01*
X392913Y348585D01*
X392913D01*
Y348445D01*
X394193Y347165D01*
X397933D01*
X399213Y348445D01*
Y351004D01*
X397992Y352224D01*
X399213Y353445D01*
Y356004D01*
X399213Y356004D01*
X399213D01*
X399508Y356299D01*
X401181D01*
Y361417D01*
X394094D01*
D01*
X394094D01*
X393541Y361971D01*
Y369488D01*
X394094D01*
Y369488D01*
X401181D01*
Y374606D01*
X394094D01*
Y373462D01*
X393307D01*
X392766Y373354D01*
X392307Y373047D01*
X391130Y371871D01*
X391101Y371883D01*
X390374Y372369D01*
Y398603D01*
X528524D01*
Y241042D01*
D02*
G37*
G36*
X435820Y340132D02*
X436279Y339825D01*
X436182Y339338D01*
X435941Y338977D01*
X435788Y338209D01*
X435941Y337441D01*
X436376Y336789D01*
X437027Y336354D01*
X437795Y336202D01*
X444095D01*
X444863Y336354D01*
X445514Y336789D01*
X445949Y337441D01*
X446102Y338209D01*
X445949Y338977D01*
X445936Y338996D01*
X446322Y339718D01*
X447404D01*
Y324887D01*
X444572Y322055D01*
X444567D01*
X444025Y321947D01*
X443566Y321640D01*
X438737Y316811D01*
X434284D01*
X433764Y317444D01*
X433897Y318110D01*
X433744Y318878D01*
X433309Y319529D01*
X433297Y319537D01*
Y320669D01*
X435433D01*
Y325060D01*
X436848Y326474D01*
X437027Y326354D01*
X437795Y326202D01*
X444095D01*
X444863Y326354D01*
X445514Y326789D01*
X445949Y327441D01*
X446102Y328209D01*
X445949Y328977D01*
X445514Y329628D01*
X444863Y330063D01*
X444095Y330216D01*
X437795D01*
X437027Y330063D01*
X436376Y329628D01*
X436217Y329389D01*
X435433Y329627D01*
Y331359D01*
X436072Y331998D01*
X436376Y331789D01*
X436376Y331789D01*
Y331789D01*
X437027Y331354D01*
X437795Y331202D01*
X444095D01*
X444863Y331354D01*
X445514Y331789D01*
X445949Y332441D01*
X446102Y333209D01*
X445949Y333977D01*
X445514Y334628D01*
X444863Y335063D01*
X444095Y335216D01*
X437795D01*
X437027Y335063D01*
X436376Y334628D01*
X436340Y334573D01*
X435530Y334453D01*
X435433Y334532D01*
Y335236D01*
X433875D01*
X433355Y335869D01*
X433503Y336614D01*
X433350Y337382D01*
X432915Y338033D01*
X432264Y338469D01*
X431496Y338621D01*
X430728Y338469D01*
X430077Y338033D01*
X429642Y337382D01*
X429489Y336614D01*
X429637Y335869D01*
X429118Y335236D01*
X428740D01*
D01*
D01*
X428740Y335236D01*
X427953D01*
Y335236D01*
X421260D01*
Y332707D01*
X416929D01*
Y337992D01*
X414793D01*
Y339567D01*
X416929D01*
Y346617D01*
X418223D01*
X418408Y346431D01*
X418408D01*
X418408Y346431D01*
X418408Y346431D01*
Y346431D01*
X418867Y346125D01*
X419409Y346017D01*
X421536D01*
X422078Y346125D01*
X422537Y346431D01*
X422537Y346431D01*
X422537Y346431D01*
X422722Y346617D01*
X429335D01*
X435820Y340132D01*
D02*
G37*
%LPC*%
G36*
X461894Y260906D02*
X458106D01*
X456213Y259012D01*
Y251224D01*
X458106Y249331D01*
X461894D01*
X463787Y251224D01*
Y259012D01*
X461894Y260906D01*
D02*
G37*
G36*
X455024Y266965D02*
X455024Y266965D01*
X444101D01*
X443638Y266873D01*
X443245Y266610D01*
X443245Y266610D01*
X439144Y262510D01*
X438881Y262117D01*
X438789Y261653D01*
X438789Y261653D01*
Y260716D01*
X438090Y260426D01*
X437299Y259819D01*
X436692Y259028D01*
X436310Y258107D01*
X436180Y257118D01*
Y253118D01*
X436310Y252129D01*
X436692Y251208D01*
X437299Y250417D01*
X438090Y249810D01*
X439011Y249428D01*
X440000Y249298D01*
X440989Y249428D01*
X441707Y249726D01*
X442388Y249271D01*
Y221194D01*
X441338D01*
X440835Y221094D01*
X440410Y220809D01*
X439876Y220276D01*
X434646D01*
D01*
D01*
X434646Y220276D01*
X433858D01*
Y220276D01*
X427165D01*
Y219341D01*
X426772Y217361D01*
X426004Y217209D01*
X425352Y216774D01*
X424917Y216122D01*
X424765Y215354D01*
X424917Y214586D01*
X425352Y213935D01*
X425562Y213795D01*
Y212976D01*
X425352Y212837D01*
X424917Y212185D01*
X424765Y211417D01*
X424917Y210649D01*
X425352Y209998D01*
X426004Y209563D01*
X426648Y209435D01*
X427097Y208986D01*
X427097Y208986D01*
X427165Y208941D01*
Y206102D01*
X433858D01*
Y206102D01*
X433858D01*
X433858Y206102D01*
X434646D01*
Y206102D01*
X441339D01*
Y208530D01*
X441840Y208630D01*
X442266Y208914D01*
X446629Y213278D01*
X446913Y213703D01*
X447013Y214206D01*
Y246565D01*
X447797Y246802D01*
X448187Y246219D01*
X448396Y246079D01*
Y221850D01*
X448396Y221850D01*
X448488Y221387D01*
X448622Y221186D01*
Y215748D01*
X456102D01*
Y217319D01*
X456825Y217705D01*
X457260Y217414D01*
X457874Y217292D01*
X458489Y217414D01*
X459009Y217762D01*
X459357Y218283D01*
X459480Y218898D01*
X459357Y219512D01*
X459009Y220033D01*
X458489Y220381D01*
X457874Y220503D01*
X457767Y220482D01*
X457454Y221239D01*
X457718Y221415D01*
X458153Y222067D01*
X458306Y222835D01*
X458153Y223603D01*
X457718Y224254D01*
X457067Y224689D01*
X456299Y224842D01*
X455531Y224689D01*
X454880Y224254D01*
X454445Y223603D01*
X454292Y222835D01*
X452312Y222441D01*
X450817D01*
Y246079D01*
X451025Y246219D01*
X451461Y246870D01*
X451613Y247638D01*
X451461Y248406D01*
X451025Y249057D01*
X450374Y249492D01*
X449606Y249645D01*
X448838Y249492D01*
X448187Y249057D01*
X447797Y248473D01*
X447260Y248636D01*
X447061Y249431D01*
X454972Y257342D01*
X454972Y257342D01*
X454972Y257342D01*
X455256Y257767D01*
X455356Y258270D01*
Y261895D01*
X455463Y261967D01*
X455560Y262113D01*
X456363Y262273D01*
X456544Y262152D01*
X457312Y261999D01*
X458080Y262152D01*
X458732Y262586D01*
X459167Y263238D01*
X459319Y264006D01*
X459167Y264774D01*
X458732Y265425D01*
X458080Y265860D01*
X457312Y266013D01*
X456616Y265874D01*
X455880Y266610D01*
X455488Y266873D01*
X455024Y266965D01*
D02*
G37*
G36*
X468110Y244133D02*
X467342Y243980D01*
X466691Y243545D01*
X466256Y242894D01*
X466103Y242126D01*
X466256Y241358D01*
X466691Y240707D01*
X467342Y240272D01*
X468110Y240119D01*
X468878Y240272D01*
X469529Y240707D01*
X469532Y240711D01*
X470280D01*
X470436Y240556D01*
Y236614D01*
X467126D01*
Y229134D01*
Y223031D01*
Y216929D01*
X470436D01*
Y215945D01*
Y213578D01*
X469866Y213008D01*
X469559Y212549D01*
X469452Y212008D01*
Y205359D01*
X469447Y205356D01*
X469012Y204705D01*
X468859Y203937D01*
X469012Y203169D01*
X469447Y202518D01*
X470098Y202083D01*
X470866Y201930D01*
X471634Y202083D01*
X472285Y202518D01*
X472720Y203169D01*
X472873Y203937D01*
X472720Y204705D01*
X472285Y205356D01*
X472281Y205359D01*
Y211422D01*
X472851Y211992D01*
X472851Y211992D01*
X472851Y211992D01*
X473157Y212451D01*
X473265Y212992D01*
Y213048D01*
X473898Y213567D01*
X474016Y213544D01*
X474784Y213697D01*
X475435Y214132D01*
X475870Y214783D01*
X476023Y215551D01*
X475870Y216319D01*
X475435Y216970D01*
X474784Y217406D01*
X474016Y217558D01*
X473819Y217720D01*
Y223031D01*
Y229134D01*
Y234417D01*
X474404Y235002D01*
X474409Y235001D01*
X475177Y235154D01*
X475829Y235589D01*
X476264Y236240D01*
X476416Y237008D01*
X476264Y237776D01*
X475829Y238427D01*
X475177Y238862D01*
X474409Y239015D01*
X473898Y238913D01*
X473265Y239433D01*
Y241142D01*
X473157Y241683D01*
X472851Y242142D01*
X471866Y243126D01*
X471408Y243433D01*
X470866Y243541D01*
X469532D01*
X469529Y243545D01*
X468878Y243980D01*
X468110Y244133D01*
D02*
G37*
G36*
X409646Y206125D02*
X408978Y206037D01*
X408355Y205779D01*
X407821Y205369D01*
X407410Y204834D01*
X407153Y204212D01*
X407064Y203544D01*
X407153Y202876D01*
X407410Y202253D01*
X407821Y201719D01*
X408355Y201308D01*
X408978Y201050D01*
X409646Y200963D01*
X410314Y201050D01*
X410936Y201308D01*
X411471Y201719D01*
X411881Y202253D01*
X412139Y202876D01*
X412227Y203544D01*
X412139Y204212D01*
X411881Y204834D01*
X411471Y205369D01*
X410936Y205779D01*
X410314Y206037D01*
X409646Y206125D01*
D02*
G37*
G36*
X469095Y365196D02*
X468326Y365043D01*
X467675Y364608D01*
X467240Y363957D01*
X467134Y363422D01*
X450438D01*
X450435Y363427D01*
X449784Y363862D01*
X449016Y364015D01*
X448248Y363862D01*
X447597Y363427D01*
X447161Y362776D01*
X447009Y362008D01*
X447161Y361240D01*
X447597Y360589D01*
X448248Y360154D01*
X449016Y360001D01*
X449784Y360154D01*
X450435Y360589D01*
X450438Y360593D01*
X467913D01*
X468455Y360701D01*
X468914Y361008D01*
X468914Y361008D01*
X468914Y361008D01*
X469089Y361183D01*
X469095Y361182D01*
X469863Y361335D01*
X470514Y361770D01*
X470949Y362421D01*
X471102Y363189D01*
X470949Y363957D01*
X470514Y364608D01*
X469863Y365043D01*
X469095Y365196D01*
D02*
G37*
G36*
X522736Y290118D02*
X518996D01*
X517717Y288839D01*
Y286280D01*
X518937Y285059D01*
X517717Y283839D01*
Y281279D01*
X518937Y280059D01*
X517717Y278839D01*
Y276279D01*
X518996Y275000D01*
Y275000D01*
D01*
Y274606D01*
X518996D01*
X518996Y274606D01*
X517717Y273327D01*
Y271108D01*
X510023Y263415D01*
X509717Y262956D01*
X509609Y262415D01*
Y258509D01*
X509604Y258506D01*
X509169Y257855D01*
X509017Y257087D01*
X509169Y256318D01*
X509604Y255667D01*
X510256Y255232D01*
X511024Y255080D01*
X511792Y255232D01*
X512443Y255667D01*
X512878Y256318D01*
X513031Y257087D01*
X512878Y257855D01*
X512443Y258506D01*
X512438Y258509D01*
Y261829D01*
X516960Y266351D01*
X517717Y266037D01*
Y265768D01*
X518996Y264488D01*
X522736D01*
X524016Y265768D01*
Y268327D01*
X522795Y269547D01*
X524016Y270768D01*
Y273327D01*
X522736Y274606D01*
X524016Y276280D01*
X524016Y276279D01*
Y278839D01*
X522795Y280059D01*
X524016Y281279D01*
Y283839D01*
X522795Y285059D01*
X524016Y286280D01*
Y288839D01*
X522736Y290118D01*
D02*
G37*
G36*
X516535Y364370D02*
X509842D01*
Y363173D01*
X509067Y362910D01*
X508855Y363186D01*
X508280Y363628D01*
X507609Y363905D01*
X506890Y364000D01*
X506170Y363905D01*
X505500Y363628D01*
X504924Y363186D01*
X504483Y362610D01*
X504205Y361940D01*
X504110Y361221D01*
X504205Y360501D01*
X504483Y359831D01*
X504924Y359255D01*
X505500Y358813D01*
X506170Y358536D01*
X506890Y358441D01*
X507609Y358536D01*
X508076Y358729D01*
X509842D01*
Y356890D01*
X509847D01*
X510161Y356133D01*
X508417Y354390D01*
Y348602D01*
X510311Y346709D01*
Y346709D01*
D01*
Y346283D01*
X508417Y344390D01*
Y338602D01*
X510311Y336709D01*
Y336709D01*
D01*
Y336283D01*
X508417Y334390D01*
Y328602D01*
X510311Y326709D01*
Y326709D01*
D01*
Y326283D01*
X508417Y324390D01*
Y318602D01*
X510311Y316709D01*
Y316709D01*
D01*
Y316283D01*
X508417Y314390D01*
Y308602D01*
X510311Y306709D01*
Y306709D01*
D01*
Y306283D01*
X508417Y304390D01*
Y298602D01*
X510311Y296709D01*
X514098D01*
X515992Y298602D01*
Y304390D01*
X515011Y305370D01*
Y307622D01*
X515992Y308602D01*
Y314390D01*
X515011Y315370D01*
Y317622D01*
X515992Y318602D01*
Y324390D01*
X515011Y325371D01*
Y327622D01*
X515992Y328602D01*
Y334390D01*
X515011Y335370D01*
Y337622D01*
X515992Y338602D01*
Y344390D01*
X515011Y345371D01*
Y347622D01*
X515992Y348602D01*
Y354390D01*
X515011Y355370D01*
Y356890D01*
X516535D01*
Y364370D01*
D02*
G37*
G36*
X397933Y315827D02*
X394193D01*
X392913Y314547D01*
Y311988D01*
X394134Y310768D01*
X392913Y309547D01*
Y306988D01*
X394193Y305709D01*
X397933D01*
X399213Y306988D01*
Y309547D01*
X397992Y310768D01*
X399213Y311988D01*
Y314547D01*
X397933Y315827D01*
D02*
G37*
G36*
X504098Y356283D02*
X500311D01*
X498417Y354390D01*
Y348602D01*
X500311Y346709D01*
Y346709D01*
D01*
Y346283D01*
X498417Y344390D01*
Y338602D01*
X500311Y336709D01*
Y336709D01*
D01*
Y336283D01*
X498417Y334390D01*
Y328602D01*
X500311Y326709D01*
Y326709D01*
D01*
Y326283D01*
X498417Y324390D01*
Y318602D01*
X500311Y316709D01*
Y316709D01*
D01*
Y316283D01*
X498417Y314390D01*
Y308602D01*
X500311Y306709D01*
Y306709D01*
D01*
Y306283D01*
X498417Y304390D01*
Y298602D01*
X500311Y296709D01*
X504098D01*
X505992Y298602D01*
Y304390D01*
X504098Y306283D01*
Y306709D01*
X505992Y308602D01*
Y314390D01*
X504098Y316283D01*
Y316709D01*
X505992Y318602D01*
Y324390D01*
X504098Y326283D01*
Y326709D01*
X505992Y328602D01*
Y334390D01*
X504098Y336283D01*
Y336709D01*
X505992Y338602D01*
Y344390D01*
X504098Y346283D01*
Y346709D01*
X505992Y348602D01*
Y354390D01*
X504098Y356283D01*
D02*
G37*
G36*
X401575Y290190D02*
X400263Y290061D01*
X399001Y289678D01*
X397838Y289056D01*
X396819Y288220D01*
X395983Y287201D01*
X395361Y286038D01*
X394979Y284777D01*
X394849Y283465D01*
X394979Y282153D01*
X395361Y280891D01*
X395983Y279728D01*
X396819Y278709D01*
X397838Y277873D01*
X399001Y277251D01*
X400263Y276869D01*
X401575Y276739D01*
X402887Y276869D01*
X404148Y277251D01*
X405311Y277873D01*
X406330Y278709D01*
X407167Y279728D01*
X407788Y280891D01*
X408171Y282153D01*
X408300Y283465D01*
X408171Y284777D01*
X407788Y286038D01*
X407167Y287201D01*
X406330Y288220D01*
X405311Y289056D01*
X404148Y289678D01*
X402887Y290061D01*
X401575Y290190D01*
D02*
G37*
G36*
X503937D02*
X502625Y290061D01*
X501363Y289678D01*
X500201Y289056D01*
X499182Y288220D01*
X498345Y287201D01*
X497724Y286038D01*
X497341Y284777D01*
X497212Y283465D01*
X497341Y282153D01*
X497724Y280891D01*
X498345Y279728D01*
X499182Y278709D01*
X500201Y277873D01*
X501363Y277251D01*
X502625Y276869D01*
X503937Y276739D01*
X505249Y276869D01*
X506511Y277251D01*
X507673Y277873D01*
X508693Y278709D01*
X509529Y279728D01*
X510150Y280891D01*
X510533Y282153D01*
X510662Y283465D01*
X510533Y284777D01*
X510150Y286038D01*
X509529Y287201D01*
X508693Y288220D01*
X507673Y289056D01*
X506511Y289678D01*
X505249Y290061D01*
X503937Y290190D01*
D02*
G37*
%LPD*%
D10*
X397638Y215945D02*
D03*
Y208465D02*
D03*
X518504Y195866D02*
D03*
Y188386D02*
D03*
X525197Y195866D02*
D03*
Y188386D02*
D03*
X434646Y276181D02*
D03*
Y268701D02*
D03*
X477165Y316732D02*
D03*
Y309252D02*
D03*
Y330906D02*
D03*
Y323425D02*
D03*
X409842Y227362D02*
D03*
Y234842D02*
D03*
X405118Y215945D02*
D03*
Y208465D02*
D03*
X418504Y227362D02*
D03*
Y234842D02*
D03*
X465366Y354457D02*
D03*
Y346976D02*
D03*
X472244Y347047D02*
D03*
Y354528D02*
D03*
X452362Y211614D02*
D03*
Y219094D02*
D03*
D11*
X470472Y220669D02*
D03*
X462992D02*
D03*
X470472Y232874D02*
D03*
X462992D02*
D03*
X470472Y226772D02*
D03*
X462992D02*
D03*
X520669Y360630D02*
D03*
X513189D02*
D03*
X430512Y216535D02*
D03*
X437992D02*
D03*
X430512Y209842D02*
D03*
X437992D02*
D03*
X413976Y293307D02*
D03*
X406496D02*
D03*
X424606Y324410D02*
D03*
X432087D02*
D03*
X424606Y331496D02*
D03*
X432087D02*
D03*
X406102Y326772D02*
D03*
X413583D02*
D03*
X406102Y334252D02*
D03*
X413583D02*
D03*
X413583Y343307D02*
D03*
X406102D02*
D03*
X406102Y312402D02*
D03*
X413583D02*
D03*
X406102Y319685D02*
D03*
X413583D02*
D03*
D14*
X506890Y361221D02*
D03*
D18*
X397638Y358858D02*
D03*
X405905Y362598D02*
D03*
Y355118D02*
D03*
X397638Y372047D02*
D03*
X405905Y375787D02*
D03*
Y368307D02*
D03*
D22*
X440945Y323209D02*
D03*
Y328209D02*
D03*
Y333209D02*
D03*
Y338209D02*
D03*
X459842Y323209D02*
D03*
Y328209D02*
D03*
Y333209D02*
D03*
Y338209D02*
D03*
D31*
X436417Y318504D02*
Y318681D01*
X440945Y323209D01*
X506174Y189764D02*
X506693D01*
X406102Y340748D02*
Y343307D01*
X405118Y339764D02*
X406102Y340748D01*
X520079Y234646D02*
X524016D01*
X524409Y234252D01*
X501844Y185433D02*
X506174Y189764D01*
X487402Y185433D02*
X501844D01*
X518504Y188386D02*
X525197D01*
X510039D02*
X518504D01*
X507087Y185433D02*
X510039Y188386D01*
X501844Y185433D02*
X507087D01*
D32*
X440158Y354457D02*
X465366D01*
X418723Y353324D02*
X421209D01*
X436811Y351181D02*
X437205Y351575D01*
X436811Y350920D02*
Y351181D01*
X437205Y351575D02*
X437276D01*
X440158Y354457D01*
X396850Y381496D02*
X407480D01*
X412417Y376559D01*
Y359630D02*
Y376559D01*
Y359630D02*
X418723Y353324D01*
X501967Y225296D02*
Y235040D01*
Y225296D02*
X503346Y223917D01*
X501967Y196063D02*
Y205807D01*
X503346Y207186D01*
X496850Y240158D02*
X501967Y235040D01*
X503346Y207186D02*
Y223917D01*
X464967Y320679D02*
X465361D01*
X445669Y301381D02*
X464967Y320679D01*
X434455Y291923D02*
X443307Y283071D01*
X432579Y291923D02*
X434455D01*
X443307Y283071D02*
X443700Y283464D01*
X442919Y280709D02*
X445669D01*
X442919D02*
Y280902D01*
X441531Y282289D02*
X442919Y280902D01*
X439968Y282289D02*
X441531D01*
X430296Y291961D02*
X439968Y282289D01*
X428709Y290976D02*
X439761Y279924D01*
X428709Y290976D02*
Y304362D01*
X491339Y240158D02*
X496850D01*
X465361Y320679D02*
X466142Y321460D01*
Y325197D01*
X520079Y238976D02*
X520079Y238976D01*
X526772D01*
X520079Y221654D02*
X524016D01*
X524711Y220958D01*
Y211122D02*
Y220958D01*
X524015Y210427D02*
X524711Y211122D01*
X515447D02*
Y213294D01*
X513386Y215354D02*
X515447Y213294D01*
X520079Y230315D02*
X524803D01*
X525197Y229921D01*
X515594Y218540D02*
X516142Y219088D01*
X514137Y218540D02*
X515594D01*
X413583Y334252D02*
X413583Y334252D01*
Y343307D01*
X410236Y337598D02*
X413583Y334252D01*
Y326772D02*
X417717D01*
X420079Y324410D01*
X424606D01*
X406102Y333963D02*
Y334252D01*
Y333963D02*
X413293Y326772D01*
X413583D01*
X396063Y333976D02*
X396339Y334252D01*
X406102D01*
X413583D02*
X416339Y331496D01*
X424606D01*
X431890Y318110D02*
X432087Y318307D01*
Y324410D01*
X431496Y332087D02*
X432087Y331496D01*
X431496Y332087D02*
Y336614D01*
X471253Y282290D02*
X474409Y279134D01*
Y279133D02*
Y279134D01*
X465437Y347047D02*
X472244D01*
X465366Y346976D02*
X465437Y347047D01*
X465366Y346976D02*
X465551Y346791D01*
X471260Y288389D02*
Y346260D01*
X471253Y282290D02*
Y288383D01*
X471260Y288389D01*
X474015Y279133D02*
X474409D01*
X473622Y287402D02*
X481496Y295276D01*
Y312402D01*
X477165Y316732D02*
X481496Y312402D01*
X477165Y316732D02*
Y323425D01*
X425190Y280908D02*
Y282870D01*
Y280908D02*
X425603Y280495D01*
X423602Y280251D02*
Y283528D01*
Y280251D02*
X424015Y279838D01*
Y283941D02*
Y289370D01*
X423602Y283528D02*
X424015Y283941D01*
X425603Y283283D02*
Y283477D01*
X425190Y282870D02*
X425603Y283283D01*
X427558Y281889D02*
X428346D01*
X430296Y291961D02*
Y309074D01*
X431883Y292618D02*
Y312998D01*
Y292618D02*
X432579Y291923D01*
X417323Y227362D02*
X418504D01*
X409842Y234842D02*
X417323Y227362D01*
X409842Y226587D02*
Y227362D01*
Y226587D02*
X412605Y223825D01*
Y220860D02*
Y223825D01*
Y220860D02*
X413779Y219685D01*
X425591Y254842D02*
X425603Y254854D01*
Y283477D02*
X427362Y285236D01*
X423621Y289370D02*
X424015D01*
X416929Y244094D02*
X417717Y244882D01*
X402362Y244094D02*
X416929D01*
X417717Y244882D02*
Y249213D01*
X394882Y250118D02*
X396339D01*
X402362Y244094D01*
X445668Y318110D02*
X452756Y325197D01*
X427165Y288976D02*
X427165D01*
X427559Y289370D01*
Y289449D01*
X422441Y294567D02*
X427559Y289449D01*
X415748Y299606D02*
X416142D01*
X416181Y299567D01*
X422441D01*
X439761Y279918D02*
Y279924D01*
X428504Y304567D02*
X428709Y304362D01*
X422441Y304567D02*
X428504D01*
X429803Y309567D02*
X430296Y309074D01*
X422441Y309567D02*
X429803D01*
X422441Y314567D02*
X430315D01*
X431883Y312998D01*
X456102Y222835D02*
X456299D01*
X452362Y219094D02*
X456102Y222835D01*
X449606Y221850D02*
X452362Y219094D01*
X449606Y221850D02*
Y247638D01*
X440000Y255118D02*
Y261653D01*
X444101Y265754D01*
X455024D01*
X456773Y264006D01*
X457312D01*
X426772Y211024D02*
Y211417D01*
Y211024D02*
X427953Y209842D01*
X430512D01*
X426772Y215354D02*
X427953Y216535D01*
X430512D01*
X504306Y232543D02*
X515447Y221402D01*
X505893Y233201D02*
Y241157D01*
X490351Y256699D02*
X505893Y241157D01*
X500394Y251181D02*
Y255512D01*
Y251181D02*
X509068Y242507D01*
Y240932D02*
Y242507D01*
Y240932D02*
X511024Y238976D01*
X520079D01*
X515447Y219784D02*
Y221402D01*
Y219784D02*
X516142Y219088D01*
X518313D01*
X520079Y217323D01*
X505893Y233201D02*
X517440Y221654D01*
X507480Y233858D02*
X511024Y230315D01*
X517440Y221654D02*
X520079D01*
X511024Y230315D02*
X520079D01*
X410236Y337598D02*
Y338570D01*
X445669Y297638D02*
Y301381D01*
X439761Y279918D02*
X440152Y279527D01*
X440157D01*
X425591Y252562D02*
X425597Y252556D01*
X425591Y252562D02*
Y254842D01*
Y245669D02*
X425597Y245676D01*
Y252556D01*
X417717Y249213D02*
Y249413D01*
X424015Y255711D01*
X508267Y192126D02*
X508267D01*
X488044Y256699D02*
X490351D01*
X488701Y258287D02*
X491009D01*
X507480Y241815D01*
Y233858D02*
Y241815D01*
X450394Y292104D02*
X487386Y255112D01*
X488252D01*
X489201Y254162D01*
X488672Y251581D02*
X493224D01*
X504306Y240500D01*
Y232543D02*
Y240500D01*
X498032Y234479D02*
X498099Y234546D01*
X498032Y234252D02*
Y234479D01*
X498424Y200393D02*
Y233859D01*
X498032Y234252D02*
X498424Y233859D01*
X446850Y293403D02*
Y293701D01*
X446701Y293552D02*
X446850Y293403D01*
X488672Y251581D01*
X450394Y292104D02*
Y293701D01*
X450394Y293701D02*
X450394Y293701D01*
X450387Y293701D02*
X450394D01*
X454724Y290019D02*
Y296063D01*
Y290019D02*
X488044Y256699D01*
X444488Y296457D02*
Y296457D01*
X445669Y297638D01*
X457079Y291925D02*
X457874Y292720D01*
Y296063D01*
X457079Y289909D02*
Y291925D01*
Y289909D02*
X488701Y258287D01*
X452756Y337402D02*
X453563Y338209D01*
X459842D01*
X452756Y325197D02*
Y337402D01*
X459842Y328346D02*
Y333209D01*
Y328346D02*
X462992D01*
X466142Y325197D01*
X444260Y312067D02*
X455402Y323209D01*
X459842D01*
X432087Y324410D02*
X433071D01*
X436870Y328209D01*
X440945D01*
X432087Y331496D02*
X433858D01*
X435571Y333209D02*
X440945D01*
X433858Y331496D02*
X435571Y333209D01*
X445668Y317716D02*
Y318110D01*
X397638Y218898D02*
X400394Y221654D01*
X397638Y215945D02*
Y218898D01*
X405118Y215945D02*
Y216929D01*
X400394Y221654D02*
X405118Y216929D01*
X440157Y279527D02*
X440550Y279921D01*
X443700Y283464D02*
X443703Y283467D01*
X443700Y283464D02*
Y283464D01*
X424015Y255711D02*
Y279838D01*
X425603Y254854D02*
Y280495D01*
X418504Y227362D02*
X427440Y236299D01*
Y244169D01*
X427959Y244688D01*
Y246650D01*
X427440Y247169D02*
X427959Y246650D01*
X427440Y247169D02*
Y282795D01*
X428346Y281889D01*
X508267Y192126D02*
Y199212D01*
X513386Y204331D01*
X519587Y203346D02*
Y206398D01*
X514566Y208661D02*
X517323D01*
X515447Y211122D02*
X516142Y210427D01*
X524015D01*
X514172Y208267D02*
X514566Y208661D01*
X517323D02*
X519587Y206398D01*
D33*
X422136Y348031D02*
X429921D01*
X421536Y347431D02*
X422136Y348031D01*
X419409Y347431D02*
X421536D01*
X418809Y348031D02*
X419409Y347431D01*
X403543Y348031D02*
X418809D01*
X412992Y352165D02*
X417126D01*
X410630Y354528D02*
X412992Y352165D01*
X407283Y375787D02*
X410630Y372441D01*
Y354528D02*
Y372441D01*
X477165Y343307D02*
Y344272D01*
Y330906D02*
Y343307D01*
X494488Y356693D02*
X510433Y372638D01*
Y372835D01*
X485039Y356693D02*
X494488D01*
X467913Y362008D02*
X469095Y363189D01*
X449016Y362008D02*
X467913D01*
X437795Y314567D02*
X438493D01*
X444567Y320640D01*
X445158D01*
X448819Y324301D01*
X396063Y338976D02*
X400787D01*
X402156Y340345D01*
Y346834D01*
X402969Y347647D01*
X403159D01*
X403543Y348031D01*
X440945Y338209D02*
Y340739D01*
X440551Y341132D02*
X440945Y340739D01*
X448819Y324301D02*
Y341132D01*
X429921Y348031D02*
X436821Y341132D01*
X440551D02*
X448819D01*
X436821D02*
X440551D01*
X463701D02*
X465561Y339273D01*
X448819Y341132D02*
X463701D01*
X465561Y337983D02*
Y339273D01*
Y337983D02*
X467323Y336221D01*
X477165Y344272D02*
X482293Y349400D01*
Y353946D02*
X485039Y356693D01*
X482293Y349400D02*
Y353946D01*
X471850Y215945D02*
Y234449D01*
Y212992D02*
Y215945D01*
X472244Y215551D01*
X474016D01*
X413976Y293307D02*
X415748D01*
X417008Y294567D01*
X422441D01*
X418503Y288582D02*
Y288780D01*
X413976Y293307D02*
X418503Y288780D01*
X401575Y327559D02*
Y331496D01*
Y327559D02*
X402362Y326772D01*
X406102D01*
X470866Y212008D02*
X471850Y212992D01*
X520079Y225984D02*
X525197D01*
X471850Y234449D02*
X474409Y237008D01*
X471850Y234449D02*
Y241142D01*
X470866Y242126D02*
X471850Y241142D01*
X468110Y242126D02*
X470866D01*
X520866Y272047D02*
Y277559D01*
X520656Y272047D02*
X520866D01*
X511024Y262415D02*
X520656Y272047D01*
X511024Y257087D02*
Y262415D01*
X456693Y306299D02*
Y309055D01*
Y306299D02*
X460827Y302165D01*
X464764D01*
X445276Y286614D02*
X446849D01*
X518504Y195866D02*
Y196457D01*
X470866Y203937D02*
Y212008D01*
X472951Y276565D02*
X475404D01*
X460827Y288689D02*
X472951Y276565D01*
X475404D02*
X483858Y268110D01*
X486221D01*
X397638Y356299D02*
Y359842D01*
X396063Y354724D02*
X397638Y356299D01*
X395787Y350000D02*
X396063Y349724D01*
X392913Y350000D02*
X395787D01*
X392126Y350787D02*
X392913Y350000D01*
X392126Y350787D02*
Y370866D01*
X393307Y372047D01*
X397638D01*
X405905Y375787D02*
X407283D01*
X400394Y365354D02*
X401968Y363779D01*
X405709D01*
X405905Y363583D01*
X518504Y195866D02*
X525197D01*
X434646Y276181D02*
X446655D01*
X451968Y281495D01*
X459448Y290944D02*
X460827Y292323D01*
Y288689D02*
Y290944D01*
Y292323D02*
Y302165D01*
X457873Y275198D02*
Y275590D01*
X451968Y281495D02*
X457873Y275590D01*
X451968Y281495D02*
Y281890D01*
X446849Y286614D02*
X451968Y281495D01*
X525197Y225984D02*
X526772Y224410D01*
Y203937D02*
Y224410D01*
X525197Y202362D02*
X526772Y203937D01*
X525197Y195866D02*
Y202362D01*
X514173Y200787D02*
X518504Y196457D01*
D34*
X513189Y302480D02*
Y360551D01*
X507953D02*
X513189D01*
X507087Y361417D02*
X507953Y360551D01*
X506890Y361221D02*
X507087Y361417D01*
D35*
X437992Y209842D02*
X441338D01*
X445701Y214206D01*
X437992Y216535D02*
X441338Y219881D01*
X443109D01*
X443701Y220472D01*
X445701Y249927D02*
X454043Y258270D01*
Y263386D01*
X445701Y214206D02*
Y249927D01*
X443701Y220472D02*
Y250756D01*
X444287Y251342D01*
Y256992D01*
X450681Y263386D01*
D36*
X405709Y312205D02*
X406102Y312598D01*
X402362Y312205D02*
X405709D01*
X402362Y319685D02*
X406102D01*
D38*
X409646Y220866D02*
D03*
Y203544D02*
D03*
X436417Y318504D02*
D03*
X444260Y312067D02*
D03*
X429134Y393701D02*
D03*
Y389764D02*
D03*
Y385827D02*
D03*
Y381890D02*
D03*
X425197Y393701D02*
D03*
Y389764D02*
D03*
Y385827D02*
D03*
Y381890D02*
D03*
X421260Y393701D02*
D03*
Y389764D02*
D03*
Y385827D02*
D03*
Y381890D02*
D03*
X420472Y350000D02*
D03*
X417322Y351180D02*
D03*
X421209Y353324D02*
D03*
X436811Y350920D02*
D03*
X477165Y343307D02*
D03*
X510433Y372835D02*
D03*
X493307Y379528D02*
D03*
X490158Y382874D02*
D03*
X519387Y382384D02*
D03*
X469095Y363189D02*
D03*
X449016Y362008D02*
D03*
X467323Y336221D02*
D03*
X440550Y279921D02*
D03*
X464764Y302165D02*
D03*
X526772Y238976D02*
D03*
X457874Y296063D02*
D03*
X431890Y318110D02*
D03*
X431496Y336614D02*
D03*
X474015Y279133D02*
D03*
X473622Y287402D02*
D03*
X427558Y281889D02*
D03*
X427362Y285236D02*
D03*
X427165Y288976D02*
D03*
X423621Y289370D02*
D03*
X415748Y299606D02*
D03*
X425591Y245669D02*
D03*
X417717Y249213D02*
D03*
X445669Y280709D02*
D03*
X456299Y222835D02*
D03*
X449606Y247638D02*
D03*
X457312Y264006D02*
D03*
X454043Y263386D02*
D03*
X450681D02*
D03*
X426772Y211417D02*
D03*
Y215354D02*
D03*
X489370Y254331D02*
D03*
X500394Y255512D02*
D03*
X418503Y288582D02*
D03*
X401575Y331496D02*
D03*
X446850Y293701D02*
D03*
X410236Y338570D02*
D03*
X474016Y215551D02*
D03*
X474409Y237008D02*
D03*
X468110Y242126D02*
D03*
X457873Y275590D02*
D03*
X511024Y257087D02*
D03*
X445276Y286614D02*
D03*
X470866Y203937D02*
D03*
X486221Y268110D02*
D03*
X498425Y233858D02*
D03*
X498424Y200393D02*
D03*
X491732Y239902D02*
D03*
X400394Y365354D02*
D03*
X444488Y296457D02*
D03*
X450387Y293701D02*
D03*
X454724Y296063D02*
D03*
X459448Y290944D02*
D03*
X451968Y281890D02*
D03*
X402362Y312205D02*
D03*
Y319685D02*
D03*
X445668Y317716D02*
D03*
X413779Y219685D02*
D03*
X400394Y221654D02*
D03*
X506174Y189764D02*
D03*
X501967Y196063D02*
D03*
X481496Y195276D02*
D03*
X482283Y207087D02*
D03*
X490551Y214961D02*
D03*
X466929Y206299D02*
D03*
X466535Y237402D02*
D03*
X440945Y235827D02*
D03*
X463779Y261811D02*
D03*
X436614Y262992D02*
D03*
X443703Y283467D02*
D03*
X429809Y272722D02*
D03*
X410236Y279134D02*
D03*
X491339Y290158D02*
D03*
X525984Y244488D02*
D03*
Y250787D02*
D03*
X491732Y244488D02*
D03*
Y249213D02*
D03*
X492126Y225590D02*
D03*
Y231496D02*
D03*
X427559Y201969D02*
D03*
X525197Y229921D02*
D03*
X405118Y339764D02*
D03*
X468504Y299606D02*
D03*
X474803Y305906D02*
D03*
X456693Y309055D02*
D03*
X455118Y316142D02*
D03*
X468504Y327559D02*
D03*
X524409Y234252D02*
D03*
X513386Y215354D02*
D03*
X514137Y218540D02*
D03*
X513386Y204331D02*
D03*
X508267Y192126D02*
D03*
X514173Y200787D02*
D03*
X514172Y208267D02*
D03*
D39*
X396063Y344724D02*
D03*
Y349724D02*
D03*
Y354724D02*
D03*
X520866Y277559D02*
D03*
Y282559D02*
D03*
Y287559D02*
D03*
Y262047D02*
D03*
Y267047D02*
D03*
Y272047D02*
D03*
X394882Y255118D02*
D03*
Y250118D02*
D03*
Y245118D02*
D03*
X396063Y318268D02*
D03*
Y313268D02*
D03*
Y308268D02*
D03*
Y338976D02*
D03*
Y333976D02*
D03*
Y328976D02*
D03*
D40*
X522205Y351496D02*
D03*
X512205D02*
D03*
X502205D02*
D03*
X522205Y341496D02*
D03*
X512205D02*
D03*
X502205D02*
D03*
X522205Y331496D02*
D03*
X512205D02*
D03*
X502205D02*
D03*
X522205Y321496D02*
D03*
X512205D02*
D03*
X502205D02*
D03*
X522205Y311496D02*
D03*
X512205D02*
D03*
X502205D02*
D03*
X522205Y301496D02*
D03*
X512205D02*
D03*
X502205D02*
D03*
D41*
X520866Y292559D02*
D03*
X394882Y240118D02*
D03*
X396063Y323976D02*
D03*
D42*
X396850Y381496D02*
D03*
Y391496D02*
D03*
D43*
X460000Y255118D02*
D03*
D44*
X440000D02*
D03*
D45*
X477559Y203740D02*
D03*
D46*
X481791Y247441D02*
D03*
D47*
X519587Y203346D02*
D03*
D48*
X520079Y243307D02*
D03*
Y238976D02*
D03*
Y234646D02*
D03*
Y230315D02*
D03*
Y225984D02*
D03*
Y221654D02*
D03*
Y217323D02*
D03*
Y212992D02*
D03*
D49*
X519587Y249409D02*
D03*
D50*
X487106Y201772D02*
D03*
Y248819D02*
D03*
D51*
X437795Y314567D02*
D03*
X422441D02*
D03*
X437795Y309567D02*
D03*
X422441D02*
D03*
X437795Y304567D02*
D03*
X422441D02*
D03*
X437795Y299567D02*
D03*
X422441D02*
D03*
X437795Y294567D02*
D03*
X422441D02*
D03*
M02*
