%FSLAX25Y25*%
%MOIN*%
G70*
G01*
G75*
G04 Layer_Physical_Order=1*
G04 Layer_Color=255*
%ADD10R,0.05906X0.05118*%
%ADD11R,0.05118X0.05906*%
%ADD12R,0.10630X0.06299*%
%ADD13R,0.07874X0.07874*%
%ADD14C,0.03937*%
%ADD15R,0.10236X0.08661*%
%ADD16R,0.07874X0.04724*%
%ADD17R,0.05118X0.06299*%
%ADD18R,0.05512X0.03543*%
%ADD19R,0.09843X0.07874*%
%ADD20R,0.09055X0.01969*%
%ADD21R,0.16535X0.05512*%
%ADD22O,0.08661X0.02362*%
%ADD23R,0.04331X0.02559*%
%ADD24O,0.00984X0.05906*%
%ADD25O,0.05906X0.00984*%
%ADD26R,0.02362X0.00984*%
%ADD27R,0.00984X0.02362*%
%ADD28R,0.02165X0.00984*%
%ADD29R,0.00984X0.02165*%
%ADD30R,0.05118X0.02165*%
%ADD31C,0.01181*%
%ADD32C,0.00800*%
%ADD33C,0.01200*%
%ADD34C,0.02000*%
%ADD35C,0.01000*%
%ADD36C,0.00787*%
%ADD37C,0.01969*%
%ADD38C,0.02362*%
G04:AMPARAMS|DCode=39|XSize=35.43mil|YSize=47.24mil|CornerRadius=0mil|HoleSize=0mil|Usage=FLASHONLY|Rotation=90.000|XOffset=0mil|YOffset=0mil|HoleType=Round|Shape=Octagon|*
%AMOCTAGOND39*
4,1,8,-0.02362,-0.00886,-0.02362,0.00886,-0.01476,0.01772,0.01476,0.01772,0.02362,0.00886,0.02362,-0.00886,0.01476,-0.01772,-0.01476,-0.01772,-0.02362,-0.00886,0.0*
%
%ADD39OCTAGOND39*%

G04:AMPARAMS|DCode=40|XSize=80mil|YSize=60mil|CornerRadius=0mil|HoleSize=0mil|Usage=FLASHONLY|Rotation=90.000|XOffset=0mil|YOffset=0mil|HoleType=Round|Shape=Octagon|*
%AMOCTAGOND40*
4,1,8,0.01500,0.04000,-0.01500,0.04000,-0.03000,0.02500,-0.03000,-0.02500,-0.01500,-0.04000,0.01500,-0.04000,0.03000,-0.02500,0.03000,0.02500,0.01500,0.04000,0.0*
%
%ADD40OCTAGOND40*%

G04:AMPARAMS|DCode=41|XSize=31.5mil|YSize=39.37mil|CornerRadius=0mil|HoleSize=0mil|Usage=FLASHONLY|Rotation=270.000|XOffset=0mil|YOffset=0mil|HoleType=Round|Shape=Octagon|*
%AMOCTAGOND41*
4,1,8,0.01969,0.00787,0.01969,-0.00787,0.01181,-0.01575,-0.01181,-0.01575,-0.01969,-0.00787,-0.01969,0.00787,-0.01181,0.01575,0.01181,0.01575,0.01969,0.00787,0.0*
%
%ADD41OCTAGOND41*%

G04:AMPARAMS|DCode=42|XSize=80mil|YSize=60mil|CornerRadius=0mil|HoleSize=0mil|Usage=FLASHONLY|Rotation=0.000|XOffset=0mil|YOffset=0mil|HoleType=Round|Shape=Octagon|*
%AMOCTAGOND42*
4,1,8,0.04000,-0.01500,0.04000,0.01500,0.02500,0.03000,-0.02500,0.03000,-0.04000,0.01500,-0.04000,-0.01500,-0.02500,-0.03000,0.02500,-0.03000,0.04000,-0.01500,0.0*
%
%ADD42OCTAGOND42*%

G04:AMPARAMS|DCode=43|XSize=100mil|YSize=60mil|CornerRadius=0mil|HoleSize=0mil|Usage=FLASHONLY|Rotation=270.000|XOffset=0mil|YOffset=0mil|HoleType=Round|Shape=Octagon|*
%AMOCTAGOND43*
4,1,8,-0.01500,-0.05000,0.01500,-0.05000,0.03000,-0.03500,0.03000,0.03500,0.01500,0.05000,-0.01500,0.05000,-0.03000,0.03500,-0.03000,-0.03500,-0.01500,-0.05000,0.0*
%
%ADD43OCTAGOND43*%

%ADD44O,0.06000X0.10000*%
G36*
X463866Y376817D02*
X464173Y376756D01*
X485039D01*
X485039Y376756D01*
X485433Y374777D01*
Y359646D01*
X478150D01*
Y359842D01*
X478150D01*
Y367323D01*
X471457D01*
Y364604D01*
X470517D01*
X470514Y364608D01*
X469863Y365043D01*
X469095Y365196D01*
X468326Y365043D01*
X467675Y364608D01*
X467240Y363957D01*
X467087Y363189D01*
X467240Y362421D01*
X467675Y361770D01*
X468185Y361429D01*
X467948Y360645D01*
X457813D01*
X457102Y361356D01*
Y362022D01*
X457087Y362100D01*
Y362179D01*
X457056Y362252D01*
X457041Y362330D01*
X456997Y362395D01*
X456967Y362468D01*
X456776Y362754D01*
X456685Y363209D01*
X456776Y363664D01*
X456967Y363949D01*
X456997Y364022D01*
X457041Y364088D01*
X457056Y364165D01*
X457087Y364238D01*
Y364317D01*
X457102Y364395D01*
Y367520D01*
X457041Y367827D01*
X456867Y368087D01*
X456606Y368261D01*
X456299Y368322D01*
X456041D01*
X455489Y368875D01*
X455371Y368954D01*
X455292Y369072D01*
X455292Y369072D01*
X454149Y370214D01*
Y374062D01*
X454724Y376953D01*
X463663D01*
X463866Y376817D01*
D02*
G37*
G36*
X413370Y383919D02*
Y367520D01*
X413432Y367213D01*
X413605Y366952D01*
X413866Y366778D01*
X414173Y366717D01*
Y365158D01*
X437042D01*
X437429Y364435D01*
X437122Y363977D01*
X436969Y363209D01*
X437122Y362441D01*
X437557Y361789D01*
X438208Y361354D01*
X438976Y361202D01*
X445276D01*
X445430Y361232D01*
X446063Y360713D01*
Y355704D01*
X445430Y355185D01*
X445276Y355216D01*
X438976D01*
X438208Y355063D01*
X437557Y354628D01*
X437359Y354331D01*
X415158D01*
Y355512D01*
X406693D01*
Y362008D01*
X400984Y367717D01*
X390374D01*
Y386796D01*
X410494D01*
X413370Y383919D01*
D02*
G37*
G36*
X474803Y391732D02*
X467508D01*
X466929Y392311D01*
Y393110D01*
X455118D01*
Y391732D01*
X453346D01*
Y369882D01*
X454724Y368504D01*
Y368307D01*
X454921D01*
X455709Y367520D01*
X456299D01*
Y364395D01*
X456020Y363977D01*
X455867Y363209D01*
X456020Y362441D01*
X456299Y362022D01*
Y361024D01*
X457480Y359842D01*
X471457D01*
X472441Y358858D01*
Y355709D01*
X447441D01*
Y359824D01*
X448163Y360210D01*
X448248Y360154D01*
X449016Y360001D01*
X449784Y360154D01*
X450435Y360589D01*
X450870Y361240D01*
X451023Y362008D01*
X450870Y362776D01*
X450435Y363427D01*
X449784Y363862D01*
X449016Y364015D01*
X449010Y364014D01*
X448815Y364209D01*
X448356Y364516D01*
X447815Y364623D01*
X447441D01*
Y367520D01*
X414173D01*
Y384252D01*
X410827Y387598D01*
X390374D01*
Y398603D01*
X474803D01*
Y391732D01*
D02*
G37*
G36*
X485433Y377953D02*
X485039Y377559D01*
X464173D01*
Y377756D01*
X454724D01*
D01*
X454724D01*
X454149Y378331D01*
Y390929D01*
X455118D01*
X455425Y390991D01*
X455686Y391165D01*
X455860Y391425D01*
X455921Y391732D01*
Y392307D01*
X466127D01*
X466187Y392004D01*
X466257Y391900D01*
X466361Y391744D01*
X466362Y391744D01*
X466940Y391165D01*
X466940Y391165D01*
X467201Y390991D01*
X467508Y390930D01*
X474803D01*
X475110Y390991D01*
X475371Y391165D01*
X475545Y391425D01*
X475606Y391732D01*
Y398603D01*
X485433D01*
Y377953D01*
D02*
G37*
D10*
X469488Y348228D02*
D03*
Y355709D02*
D03*
X476378D02*
D03*
Y348228D02*
D03*
X491929Y396063D02*
D03*
Y388583D02*
D03*
X518504Y195866D02*
D03*
Y188386D02*
D03*
X467717Y312402D02*
D03*
Y319882D02*
D03*
X462205Y242323D02*
D03*
Y234842D02*
D03*
X461024Y312402D02*
D03*
Y319882D02*
D03*
X516339Y395079D02*
D03*
Y387598D02*
D03*
X450787Y311614D02*
D03*
Y319094D02*
D03*
X452756Y242717D02*
D03*
Y235236D02*
D03*
X446457Y242717D02*
D03*
Y235236D02*
D03*
X440158Y339961D02*
D03*
Y332480D02*
D03*
X447638Y339961D02*
D03*
Y332480D02*
D03*
X456299Y326181D02*
D03*
Y333661D02*
D03*
X520079Y226575D02*
D03*
Y234055D02*
D03*
X404724Y352165D02*
D03*
Y344685D02*
D03*
X411417Y352165D02*
D03*
Y344685D02*
D03*
X410236Y247441D02*
D03*
Y254921D02*
D03*
X403543Y247441D02*
D03*
Y254921D02*
D03*
D11*
X478937Y395472D02*
D03*
X471457D02*
D03*
X482283Y363583D02*
D03*
X474803D02*
D03*
X432283Y348622D02*
D03*
X424803D02*
D03*
X478937Y290158D02*
D03*
X486417D02*
D03*
X425000Y267717D02*
D03*
X432480D02*
D03*
X475000Y268504D02*
D03*
X467520D02*
D03*
X510827Y250787D02*
D03*
X518307D02*
D03*
X510827Y244488D02*
D03*
X518307D02*
D03*
X504134D02*
D03*
X496654D02*
D03*
X504134Y250787D02*
D03*
X496654D02*
D03*
X493504Y195276D02*
D03*
X486024D02*
D03*
X493898Y205512D02*
D03*
X486417D02*
D03*
X478543Y214961D02*
D03*
X486024D02*
D03*
X508465Y205512D02*
D03*
X500984D02*
D03*
X410433Y267717D02*
D03*
X417913D02*
D03*
X417913Y274410D02*
D03*
X410433D02*
D03*
X439961Y325590D02*
D03*
X447441D02*
D03*
X486417Y351181D02*
D03*
X493898D02*
D03*
X486417Y341339D02*
D03*
X493898D02*
D03*
X486417Y301969D02*
D03*
X493898D02*
D03*
X486417Y311811D02*
D03*
X493898D02*
D03*
X486417Y321654D02*
D03*
X493898D02*
D03*
X486417Y331496D02*
D03*
X493898D02*
D03*
D12*
X419488Y371457D02*
D03*
Y360433D02*
D03*
X430512Y371457D02*
D03*
Y360433D02*
D03*
D13*
X442913Y373031D02*
D03*
X459449D02*
D03*
D14*
X417717Y291929D02*
D03*
X501181Y218898D02*
D03*
X505905D02*
D03*
X496360D02*
D03*
X510630D02*
D03*
X406102Y396260D02*
D03*
X457874Y218898D02*
D03*
X506890Y361221D02*
D03*
D15*
X461024Y387992D02*
D03*
X441339D02*
D03*
D16*
X501575Y379134D02*
D03*
X512598D02*
D03*
D17*
X413583Y312692D02*
D03*
X406102D02*
D03*
X413583Y319779D02*
D03*
X406102D02*
D03*
D18*
X424409Y326772D02*
D03*
X432677Y323031D02*
D03*
Y330512D02*
D03*
D19*
X419488Y194685D02*
D03*
Y229724D02*
D03*
X397835D02*
D03*
Y194685D02*
D03*
D20*
X419882Y205906D02*
D03*
Y209055D02*
D03*
Y212205D02*
D03*
Y215354D02*
D03*
Y218504D02*
D03*
D21*
X476772Y385039D02*
D03*
Y370472D02*
D03*
D22*
X461024Y348209D02*
D03*
Y353209D02*
D03*
Y358209D02*
D03*
Y363209D02*
D03*
X442126Y348209D02*
D03*
Y353209D02*
D03*
Y358209D02*
D03*
Y363209D02*
D03*
D23*
X498819Y395472D02*
D03*
Y391732D02*
D03*
Y387992D02*
D03*
X508268D02*
D03*
Y395472D02*
D03*
D24*
X461221Y270276D02*
D03*
X459252D02*
D03*
X457283D02*
D03*
X455315D02*
D03*
X453346D02*
D03*
X451378D02*
D03*
X449409D02*
D03*
X447441D02*
D03*
X445472D02*
D03*
X443504D02*
D03*
X441535D02*
D03*
X439567D02*
D03*
Y302165D02*
D03*
X441535D02*
D03*
X443504D02*
D03*
X445472D02*
D03*
X447441D02*
D03*
X449409D02*
D03*
X451378D02*
D03*
X453346D02*
D03*
X455315D02*
D03*
X457283D02*
D03*
X459252D02*
D03*
X461221D02*
D03*
D25*
X434449Y275394D02*
D03*
Y277362D02*
D03*
Y279331D02*
D03*
Y281299D02*
D03*
Y283268D02*
D03*
Y285236D02*
D03*
Y287205D02*
D03*
Y289173D02*
D03*
Y291142D02*
D03*
Y293110D02*
D03*
Y295079D02*
D03*
Y297047D02*
D03*
X466339D02*
D03*
Y295079D02*
D03*
Y293110D02*
D03*
Y291142D02*
D03*
Y289173D02*
D03*
Y287205D02*
D03*
Y285236D02*
D03*
Y283268D02*
D03*
Y281299D02*
D03*
Y279331D02*
D03*
Y277362D02*
D03*
Y275394D02*
D03*
D26*
X495031Y235215D02*
D03*
Y233315D02*
D03*
Y231315D02*
D03*
Y229315D02*
D03*
Y227315D02*
D03*
Y225415D02*
D03*
X513631D02*
D03*
Y227315D02*
D03*
Y229315D02*
D03*
Y231315D02*
D03*
Y233315D02*
D03*
Y235215D02*
D03*
D27*
X497431Y223015D02*
D03*
X499431D02*
D03*
X501331D02*
D03*
X503331D02*
D03*
X505331D02*
D03*
X507331D02*
D03*
X509231D02*
D03*
X511231D02*
D03*
Y237615D02*
D03*
X509231D02*
D03*
X507331D02*
D03*
X505331D02*
D03*
X503331D02*
D03*
X501331D02*
D03*
X499431D02*
D03*
X497431D02*
D03*
D28*
X498524Y195866D02*
D03*
Y193898D02*
D03*
Y191929D02*
D03*
Y189961D02*
D03*
X510925D02*
D03*
Y191929D02*
D03*
Y193898D02*
D03*
Y195866D02*
D03*
D29*
X501772Y186713D02*
D03*
X503740D02*
D03*
X505709D02*
D03*
X507677D02*
D03*
Y199114D02*
D03*
X505709D02*
D03*
X503740D02*
D03*
X501772D02*
D03*
D30*
X486614Y222244D02*
D03*
Y227165D02*
D03*
Y232087D02*
D03*
Y237008D02*
D03*
X478346Y222244D02*
D03*
Y227165D02*
D03*
Y232087D02*
D03*
Y237008D02*
D03*
D31*
X440354Y317520D02*
X447441Y324606D01*
X438386Y315551D02*
X440354Y317520D01*
X437402D02*
X440354D01*
X436417Y318504D02*
X437402Y317520D01*
X447441Y324606D02*
Y325590D01*
X428346Y315551D02*
X438386D01*
X425591Y318307D02*
X428346Y315551D01*
X425591Y318307D02*
Y325590D01*
X424409Y326772D02*
X425591Y325590D01*
X420472Y350000D02*
X421850Y348622D01*
X424803D01*
X420079Y343898D02*
X424803Y348622D01*
X420079Y327953D02*
Y343898D01*
X421260Y326772D02*
X424409D01*
X420079Y327953D02*
X421260Y326772D01*
X506174Y189764D02*
X506299D01*
X506693Y189370D01*
X518307Y250787D02*
X525591D01*
X525591Y250787D01*
X525984D01*
X491732Y244488D02*
X496654D01*
X493307Y250787D02*
X496654D01*
X491732Y249213D02*
X493307Y250787D01*
X499431Y237615D02*
X501331D01*
Y230465D02*
Y237615D01*
X500181Y229315D02*
X501331Y230465D01*
X495031Y229315D02*
X500181D01*
X495031Y225415D02*
Y227315D01*
Y229315D01*
Y231315D01*
Y233315D01*
Y235215D01*
X491950Y225415D02*
X492126Y225590D01*
X491950Y225415D02*
X495031D01*
X492307Y231315D02*
X495031D01*
X492126Y231496D02*
X492307Y231315D01*
X518307Y235827D02*
X520079Y234055D01*
X518307Y235827D02*
Y243307D01*
Y244488D02*
X525984D01*
X460236Y319094D02*
X461024Y319882D01*
X402797Y339764D02*
X405118D01*
X401813Y340748D02*
X402797Y339764D01*
X400039Y340748D02*
X401813D01*
X396063Y344724D02*
X400039Y340748D01*
X468504Y299606D02*
X474803Y305906D01*
X450787Y319094D02*
Y322244D01*
X447441Y325590D02*
X450787Y322244D01*
Y319094D02*
X451378D01*
X454724Y315748D02*
X455118Y316142D01*
X451378Y319094D02*
X454724Y315748D01*
X451378Y319094D02*
X460236D01*
X467717Y319882D02*
X468504Y320669D01*
Y327559D01*
X520276Y234252D02*
X524409D01*
X520079Y234055D02*
X520276Y234252D01*
D32*
X445472Y314204D02*
X446629Y313048D01*
Y311086D02*
Y313048D01*
X445472Y309930D02*
X446629Y311086D01*
X445472Y314204D02*
Y317126D01*
X437684Y313773D02*
X441345Y310113D01*
X425873Y313773D02*
X437684D01*
X437027Y312186D02*
X439757Y309455D01*
X425216Y312186D02*
X437027D01*
X420008Y317394D02*
X425216Y312186D01*
X421595Y318052D02*
X425873Y313773D01*
X435362Y352762D02*
X437008Y351117D01*
X421457Y352756D02*
X421746D01*
X421209Y353003D02*
Y353324D01*
Y353003D02*
X421457Y352756D01*
X421752Y352762D02*
X435362D01*
X421746Y352756D02*
X421752Y352762D01*
X436811Y350920D02*
X437008Y351117D01*
X476321Y338434D02*
X486417Y348530D01*
X432283Y348622D02*
X432697Y348209D01*
X442126D01*
X449862Y353209D02*
X461024D01*
X447644Y350991D02*
X449862Y353209D01*
X447644Y339967D02*
Y350991D01*
X447638Y339961D02*
X447644Y339967D01*
X486221Y379921D02*
X488779Y377362D01*
Y359449D02*
Y377362D01*
X485039Y355709D02*
X488779Y359449D01*
X476378Y355709D02*
X485039D01*
X486417Y348530D02*
Y351181D01*
X469488Y348228D02*
X476378D01*
X469468Y348209D02*
X469488Y348228D01*
X461024Y348209D02*
X469468D01*
X434680Y279100D02*
X437571D01*
X438589Y278082D01*
Y274674D02*
Y278082D01*
X491339Y239902D02*
Y240158D01*
Y239902D02*
X491732D01*
X504505Y239984D02*
X505331Y239158D01*
X491732Y239902D02*
X491813Y239984D01*
X504505D01*
X505331Y237615D02*
Y239158D01*
X459252Y302165D02*
Y305057D01*
X521400Y211398D02*
X527565Y217564D01*
X496063Y218898D02*
X496360D01*
X520743Y212986D02*
X525197Y217440D01*
Y229921D01*
X501181Y218540D02*
X501442D01*
X510630D02*
X514137D01*
X440158Y339961D02*
X447638D01*
X457087Y296850D02*
Y297502D01*
X453728Y297060D02*
X453937Y296850D01*
X396063Y328976D02*
X403386D01*
X439961Y332283D02*
X440158Y332480D01*
X439961Y325590D02*
Y332283D01*
X392913Y305118D02*
X396063Y308268D01*
X392913Y270472D02*
Y305118D01*
Y270472D02*
X395669Y267717D01*
X410433D01*
X474616Y285046D02*
X493177D01*
X470268D02*
X472628D01*
X474603Y285033D02*
X474616Y285046D01*
X472628D02*
X472641Y285033D01*
X475273Y283458D02*
X492520D01*
X475261Y283446D02*
X475273Y283458D01*
X473621Y279528D02*
X474015Y279133D01*
X472835Y279528D02*
X473621D01*
X471326Y281858D02*
X475918D01*
X471983Y283446D02*
X475261D01*
X472641Y285033D02*
X474603D01*
X471971Y283458D02*
X471983Y283446D01*
X470268Y283458D02*
X471971D01*
X472638Y279331D02*
X472835Y279528D01*
X466339Y279331D02*
X472638D01*
X462795Y287205D02*
X466339D01*
X462198Y286608D02*
X462795Y287205D01*
X462198Y276642D02*
Y286608D01*
Y276642D02*
X463447Y275394D01*
X466339D01*
Y289173D02*
X466535Y289370D01*
X472241D01*
X466554Y291357D02*
X472459D01*
X466339Y291142D02*
X466554Y291357D01*
X472641Y289770D02*
X478550D01*
X472459Y291357D02*
X483070Y301969D01*
X472241Y289370D02*
X472641Y289770D01*
X466535Y287008D02*
X470472D01*
X466339Y287205D02*
X466535Y287008D01*
X470472D02*
X470866Y287402D01*
X478550Y289770D02*
X478937Y290158D01*
X470866Y287402D02*
X473622D01*
X475931Y281871D02*
X490939D01*
X475918Y281858D02*
X475931Y281871D01*
X471313D02*
X471326Y281858D01*
X471241Y281871D02*
X471313D01*
X466339Y281299D02*
X470669D01*
X471241Y281871D01*
X470078Y285236D02*
X470268Y285046D01*
X466339Y285236D02*
X470078D01*
Y283268D02*
X470268Y283458D01*
X492520D02*
X494488Y281490D01*
X493177Y285046D02*
X496076Y282147D01*
X490939Y281871D02*
X492901Y279909D01*
Y274669D02*
Y279909D01*
Y274669D02*
X496729Y270841D01*
X510261D01*
X514055Y267047D01*
X520866D01*
X460000Y263228D02*
X465276Y268504D01*
X515237Y282677D02*
X520866D01*
X514186Y281626D02*
X515237Y282677D01*
X517717Y287402D02*
X520866D01*
X512598Y282283D02*
X517717Y287402D01*
X413583Y303035D02*
Y312692D01*
X411792Y301245D02*
X413583Y303035D01*
Y319779D02*
X413884D01*
X413379Y300587D02*
X417329Y304537D01*
X421253Y290351D02*
X424615Y293713D01*
X428346Y281889D02*
X428346Y281890D01*
X427368Y282868D02*
X428346Y281890D01*
X426378Y292126D02*
X427953D01*
X423622Y289370D02*
X426378Y292126D01*
X427165Y288976D02*
X434251D01*
X421253Y287015D02*
X424409Y283858D01*
X428539Y279521D02*
X430309Y281290D01*
Y282019D02*
X431558Y283268D01*
X430309Y281290D02*
Y282019D01*
X431558Y283268D02*
X434449D01*
X427558Y281889D02*
X428346D01*
X425391Y283858D02*
X426381Y282868D01*
X424409Y283858D02*
X425391D01*
X428937Y291142D02*
X434449D01*
X427953Y292126D02*
X428937Y291142D01*
X424615Y293713D02*
X428610D01*
X429213Y293110D01*
X434449D01*
X427362Y285236D02*
X434449D01*
X426381Y282868D02*
X427368D01*
X413779Y219685D02*
X414961Y218504D01*
X419882D01*
X413779Y245669D02*
X425591D01*
X423621Y289370D02*
X423622D01*
X417717Y273819D02*
X417913Y273622D01*
Y267717D02*
Y273622D01*
X417717Y273819D02*
X423425D01*
X425000Y275394D01*
X434449D01*
X410236Y246943D02*
Y247441D01*
X406988Y243694D02*
X410236Y246943D01*
X400099Y243694D02*
X406988D01*
X398675Y245118D02*
X400099Y243694D01*
X394882Y245118D02*
X398675D01*
X394882Y250118D02*
X399095D01*
X401772Y247441D01*
X403543D01*
X412008D02*
X413779Y245669D01*
X410236Y247441D02*
X412008D01*
X486614Y237795D02*
X488721Y239902D01*
X486614Y237008D02*
Y237795D01*
X493520Y237615D02*
X497431D01*
X484055Y234646D02*
X486614Y232087D01*
X469291Y229264D02*
Y230709D01*
X473228Y234646D01*
X479331Y232087D02*
X482283Y229134D01*
Y220472D02*
Y229134D01*
X478346Y232087D02*
X479331D01*
X478543Y216732D02*
X482283Y220472D01*
X478543Y214961D02*
Y216732D01*
X453728Y297060D02*
Y298832D01*
X455315Y299274D02*
X457087Y297502D01*
X455315Y299274D02*
Y302165D01*
X453346Y299213D02*
Y302165D01*
Y299213D02*
X453728Y298832D01*
X443504Y302165D02*
X443701Y302362D01*
X450787Y311614D02*
X451378Y311024D01*
Y302165D02*
Y311024D01*
X427165Y288976D02*
Y289765D01*
X434251Y288976D02*
X434449Y289173D01*
X428150Y297047D02*
X434449D01*
X425591Y299606D02*
X428150Y297047D01*
X415748Y299606D02*
X425591D01*
X439567Y270276D02*
X439761Y270469D01*
X445472Y270276D02*
X445669Y270472D01*
Y280709D01*
X443301Y270479D02*
Y281690D01*
Y270479D02*
X443504Y270276D01*
Y281893D02*
Y282874D01*
X443301Y281690D02*
X443504Y281893D01*
X443307Y283071D02*
X443504Y282874D01*
X514186Y276114D02*
Y281626D01*
X510500Y272428D02*
X514186Y276114D01*
X497387Y272428D02*
X510500D01*
X494488Y275327D02*
Y281490D01*
Y275327D02*
X497387Y272428D01*
X512598Y276772D02*
Y282283D01*
X509842Y274016D02*
X512598Y276772D01*
X498044Y274016D02*
X509842D01*
X496076Y275984D02*
X498044Y274016D01*
X496076Y275984D02*
Y282147D01*
X466339Y283268D02*
X470078D01*
X501732Y301969D02*
X502205Y301496D01*
X493898Y301969D02*
X501732D01*
X501890Y311811D02*
X502205Y311496D01*
X493898Y311811D02*
X501890D01*
X497401Y321496D02*
X502205D01*
X497243Y321654D02*
X497401Y321496D01*
X493898Y321654D02*
X497243D01*
X493898Y331496D02*
X502205D01*
X502047Y341339D02*
X502205Y341496D01*
X493898Y341339D02*
X502047D01*
X501890Y351181D02*
X502205Y351496D01*
X493898Y351181D02*
X501890D01*
X457874Y218898D02*
Y221260D01*
X456299Y222835D02*
X457874Y221260D01*
X448313Y248932D02*
X449606Y247638D01*
X448313Y248932D02*
Y264367D01*
X446457Y242717D02*
X452756D01*
X446457D02*
Y264756D01*
X447441Y265740D01*
Y270276D01*
X448313Y264367D02*
X449409Y265464D01*
Y270276D01*
X457283Y267384D02*
X458532Y266135D01*
X457283Y267384D02*
Y270276D01*
X458532Y266135D02*
X458532D01*
X459848Y264820D01*
Y263380D02*
Y264820D01*
X455315Y265945D02*
X457254Y264006D01*
X457312D01*
X459848Y263380D02*
X460000Y263228D01*
X455315Y265945D02*
Y270276D01*
X432480Y267717D02*
X437266D01*
X438847Y266135D01*
X438983D01*
X440000Y265118D01*
Y255118D02*
Y265118D01*
X419882Y212205D02*
X425984D01*
X426772Y211417D01*
X419882Y215354D02*
X419882Y215354D01*
X426772D01*
X465276Y268504D02*
X467520D01*
X460000Y255118D02*
Y263228D01*
X448819Y277165D02*
Y285827D01*
X447441Y270276D02*
Y275787D01*
X448819Y277165D01*
X462604Y307887D02*
X470996D01*
X462598Y307893D02*
X462604Y307887D01*
X457515Y302396D02*
Y305564D01*
X457283Y302165D02*
X457515Y302396D01*
X461946Y306299D02*
X471654D01*
X461940Y306306D02*
X461946Y306299D01*
X466339Y293110D02*
X470791D01*
X466339Y295079D02*
X470514D01*
X466339Y297047D02*
X470238D01*
X483070Y301969D02*
X486417D01*
X489370Y254331D02*
X490551Y255512D01*
X500394D01*
X411792Y289699D02*
X424128Y277362D01*
X413379Y290356D02*
X424215Y279521D01*
X421253Y287015D02*
Y290351D01*
X413379Y290356D02*
Y300587D01*
X424215Y279521D02*
X428539D01*
X411792Y289699D02*
Y301245D01*
X424128Y277362D02*
X434449D01*
X405512Y334252D02*
X410236Y338976D01*
X403386Y328976D02*
X405512Y331102D01*
Y334252D01*
X413884Y319779D02*
X417329Y316334D01*
Y304537D02*
Y316334D01*
X421595Y318052D02*
Y321319D01*
X419291Y323622D02*
X421595Y321319D01*
X420008Y317394D02*
Y320661D01*
X417329Y323339D02*
X420008Y320661D01*
X417329Y323339D02*
Y323420D01*
X416634Y324116D02*
X417329Y323420D01*
X416553Y324116D02*
X416634D01*
X414161Y326508D02*
X416553Y324116D01*
X417210Y325703D02*
X417291D01*
X415748Y327165D02*
X417210Y325703D01*
X419291Y323622D02*
Y323703D01*
X417291Y325703D02*
X419291Y323703D01*
X441535Y302165D02*
Y305905D01*
X441345Y306095D02*
X441535Y305905D01*
X441345Y306095D02*
Y310113D01*
X439567Y302165D02*
Y305905D01*
X439757Y306095D01*
Y309455D01*
X414161Y326508D02*
Y338402D01*
X411624Y340939D02*
X414161Y338402D01*
X404724Y344187D02*
X407973Y340939D01*
X410236Y338570D02*
Y338976D01*
X407973Y340939D02*
X411624D01*
X404724Y344187D02*
Y344685D01*
X415748Y327165D02*
Y340945D01*
X412008Y344685D02*
X415748Y340945D01*
X411417Y344685D02*
X412008D01*
X432677Y318898D02*
Y323031D01*
X431890Y318110D02*
X432677Y318898D01*
Y330512D02*
Y335433D01*
X431496Y336614D02*
X432677Y335433D01*
X470791Y293110D02*
X482671Y304991D01*
Y308065D01*
X486417Y311811D01*
X470514Y295079D02*
X481083Y305648D01*
Y316320D01*
X486417Y321654D01*
X470238Y297047D02*
X479496Y306306D01*
Y321923D01*
X486417Y328845D01*
Y331496D01*
X471654Y306299D02*
X477909Y312554D01*
Y330178D01*
X486417Y338687D01*
Y341339D01*
X470996Y307887D02*
X476321Y313212D01*
Y338434D01*
X473228Y234646D02*
X473422D01*
X473428Y234639D01*
X475390D01*
X475397Y234646D01*
X484055D01*
X473235Y239376D02*
X484246D01*
X467704Y233846D02*
X473235Y239376D01*
X484246D02*
X486614Y237008D01*
X461221Y270276D02*
Y274009D01*
X460267Y274962D02*
X461221Y274009D01*
X448819Y277165D02*
X456099D01*
X456892Y277958D01*
X458854D01*
X460267Y276546D01*
Y274962D02*
Y276546D01*
X513631Y225415D02*
X518919D01*
X520079Y226575D01*
X443307Y283071D02*
X443700Y283464D01*
X432941Y249213D02*
X436221Y245933D01*
Y239176D02*
Y245933D01*
X436213Y239169D02*
X436221Y239176D01*
X434626Y232027D02*
Y239827D01*
X434633Y239834D01*
X436213Y232684D02*
Y239169D01*
X438738Y227915D02*
X467943D01*
X436213Y232684D02*
X439395Y229502D01*
X467943Y227915D02*
X469291Y229264D01*
X434626Y232027D02*
X438738Y227915D01*
X439395Y229502D02*
X467285D01*
X467704Y229921D01*
Y233846D01*
X424209Y249206D02*
X424216Y249213D01*
X432941D01*
X417717D02*
X417723Y249206D01*
X424209D01*
X445668Y318110D02*
X445670D01*
X446063Y317717D01*
X445472Y317126D02*
X446063Y317717D01*
X498424Y200786D02*
X498425Y200787D01*
X498424Y200393D02*
Y200786D01*
X497431Y235215D02*
X498099Y234546D01*
X497431Y235215D02*
Y237615D01*
X498524Y195866D02*
X498819Y196161D01*
X498425Y200787D02*
X500098Y199114D01*
X501772D01*
X498819Y196161D02*
X501869D01*
X501967Y196063D01*
X488721Y239902D02*
X491339D01*
X451378Y302165D02*
X451569Y301975D01*
Y295869D02*
Y301975D01*
X446850Y298111D02*
X447441Y298701D01*
Y301575D01*
X449981Y294113D02*
Y295294D01*
X449409Y295866D02*
X449981Y295294D01*
X449409Y295866D02*
Y300295D01*
X450387Y293701D02*
X450394D01*
X449981Y294113D02*
X450394Y293701D01*
X448819Y285827D02*
X452756Y289764D01*
X434449Y295079D02*
X443110D01*
X444488Y296457D01*
X446850Y297444D02*
X446857Y297438D01*
X446850Y297444D02*
Y298111D01*
Y293701D02*
X446857Y293707D01*
Y297438D01*
X463447Y289173D02*
X466339D01*
X451569Y295869D02*
X452756Y294682D01*
Y289764D02*
Y293307D01*
Y294682D01*
X458461Y293307D02*
X458467Y293313D01*
X452756Y293307D02*
X458461D01*
X462198Y290422D02*
Y291543D01*
X460429Y293313D02*
X462198Y291543D01*
X458467Y293313D02*
X460429D01*
X462198Y290422D02*
X463447Y289173D01*
X445668Y317716D02*
Y318110D01*
X397835Y194685D02*
X419488D01*
X397835Y229724D02*
X419488D01*
X397835Y221654D02*
X400394D01*
X397835Y194685D02*
Y221654D01*
Y229724D01*
X481496Y195276D02*
X486024D01*
X483858Y205512D02*
X486417D01*
X482283Y207087D02*
X483858Y205512D01*
X486024Y214961D02*
X490551D01*
X477947Y227165D02*
X478346D01*
X466929Y216148D02*
X477947Y227165D01*
X466929Y206299D02*
Y216148D01*
X462205Y234842D02*
X463976D01*
X466535Y237402D01*
X452756Y235236D02*
Y237008D01*
X446457Y235236D02*
X452756D01*
X441535D02*
X446457D01*
X440945Y235827D02*
X441535Y235236D01*
X468307Y261811D02*
X475000Y268504D01*
X463779Y261811D02*
X468307D01*
X425000Y267717D02*
X429724Y262992D01*
X436614D01*
X434449Y279331D02*
X434680Y279100D01*
X439761Y273601D02*
X440176Y274016D01*
X439761Y270469D02*
Y273601D01*
X437402Y273487D02*
X438589Y274674D01*
X443700Y283464D02*
X443703Y283467D01*
X440176Y279547D02*
X440550Y279921D01*
X440176Y274016D02*
Y279547D01*
X443700Y283464D02*
Y283464D01*
X430967Y273487D02*
X437402D01*
X430202Y272722D02*
X430967Y273487D01*
X429809Y272722D02*
X429921Y272835D01*
X429809Y272722D02*
X430202D01*
X410433Y274410D02*
Y278937D01*
X410236Y279134D02*
X410433Y278937D01*
X466339Y277362D02*
X470276D01*
X475000Y272638D01*
Y268504D02*
Y272638D01*
X486417Y290158D02*
X491339D01*
X461024Y319882D02*
X467717D01*
X448032Y326181D02*
X454331D01*
X448032D02*
Y332087D01*
X447638Y332480D02*
X448032Y332087D01*
X486614Y232087D02*
X487992D01*
X493520Y237615D01*
X527565Y217564D02*
Y230902D01*
X526772Y231696D02*
X527565Y230902D01*
X443701Y302362D02*
Y311508D01*
X444260Y312067D01*
X445472Y302165D02*
Y309930D01*
X459252Y305057D02*
X460501Y306306D01*
X461940D01*
X457515Y305564D02*
X459843Y307893D01*
X462598D01*
X526772Y231696D02*
Y233265D01*
X526778Y233271D01*
X526772Y238976D02*
X526778Y238970D01*
Y233271D02*
Y238970D01*
X425591Y245669D02*
X433071D01*
X434633Y244107D01*
Y239834D02*
Y244107D01*
X505905Y218540D02*
X509091Y215354D01*
X513386D01*
X501442Y218540D02*
X506996Y212986D01*
X496360Y218898D02*
X503859Y211398D01*
X506996Y212986D02*
X520743D01*
X503859Y211398D02*
X521400D01*
X508463Y191929D02*
X510925D01*
X507677Y186713D02*
X520472D01*
X508267Y192126D02*
X508463Y191929D01*
X510925Y195866D02*
X518504D01*
X518504Y195866D01*
X519291D01*
X509646Y204331D02*
X513386D01*
X508465Y205512D02*
X509646Y204331D01*
X500984Y205512D02*
Y210433D01*
X496457Y214961D02*
X500984Y210433D01*
X490551Y214961D02*
X496457D01*
X512629Y209811D02*
X514172Y208267D01*
X503202Y209811D02*
X512629D01*
X502580Y210433D02*
X503202Y209811D01*
X500984Y210433D02*
X502580D01*
D33*
X411417Y352165D02*
X417126D01*
X475000Y341142D02*
X477165Y343307D01*
X474213Y341142D02*
X475000D01*
X472047Y338976D02*
X474213Y341142D01*
X512598Y375000D02*
Y379134D01*
X510433Y372835D02*
X512598Y375000D01*
X474409Y363189D02*
X474803Y363583D01*
X469095Y363189D02*
X474409D01*
X447815Y363209D02*
X449016Y362008D01*
X442126Y363209D02*
X447815D01*
X454331Y333661D02*
X464764D01*
X467323Y336221D01*
X467717Y312408D02*
X472057Y316748D01*
X467323Y336221D02*
X472057D01*
Y316748D02*
Y336221D01*
Y338967D01*
X472047Y338976D02*
X472057Y338967D01*
X474016Y217913D02*
X478346Y222244D01*
X474016Y215551D02*
Y217913D01*
X511062Y237446D02*
X511231Y237615D01*
X510630Y234252D02*
X511062Y234684D01*
Y237446D01*
X461221Y302165D02*
X464764D01*
X461024Y312402D02*
X467717D01*
X417717Y289764D02*
Y290945D01*
X418897Y288582D02*
X418898Y288583D01*
X418503Y288582D02*
X418897D01*
X417717Y289764D02*
X418898Y288583D01*
X401575Y331496D02*
Y338189D01*
X467717Y312402D02*
Y312408D01*
X509231Y223015D02*
X511231D01*
X507331D02*
X509231D01*
X505331D02*
X507331D01*
X497431D02*
X499431D01*
X501331D01*
X503331D01*
X505331D01*
X494882Y193898D02*
X498524D01*
X493504Y195276D02*
X494882Y193898D01*
X495866Y189961D02*
X498524D01*
X493504Y192323D02*
X495866Y189961D01*
X493504Y192323D02*
Y195276D01*
Y205118D01*
X493898Y205512D01*
X474409Y237008D02*
X478346D01*
X474409Y237008D02*
X474409Y237008D01*
X462402Y242126D02*
X468110D01*
X462205Y242323D02*
X462402Y242126D01*
X459221Y270307D02*
X459252Y270276D01*
X459221Y270307D02*
Y273481D01*
X457873Y274829D02*
X459221Y273481D01*
X457873Y274829D02*
Y275590D01*
X510827Y244488D02*
X511024Y244685D01*
X504134Y250787D02*
X510827D01*
X504134Y244488D02*
Y250787D01*
Y244488D02*
X504134Y244488D01*
X503331Y234858D02*
Y237615D01*
Y234858D02*
X503937Y234252D01*
X511231Y237615D02*
Y244084D01*
X510827Y244488D02*
X511231Y244084D01*
X509231Y234428D02*
Y237615D01*
X509055Y234252D02*
X509231Y234428D01*
X509055Y234252D02*
X510630D01*
X507331Y234402D02*
Y237615D01*
Y234402D02*
X507480Y234252D01*
X509055D01*
X507331Y223015D02*
Y234252D01*
Y234402D01*
X503937Y234252D02*
X507331D01*
X457677Y309055D02*
X461024Y312402D01*
X456693Y309055D02*
X457677D01*
X434449Y281299D02*
X434480Y281330D01*
X437654D02*
X438789Y282465D01*
X434480Y281330D02*
X437654D01*
X438789Y282465D02*
Y283277D01*
X442126Y286614D01*
X445276D01*
X410039Y255118D02*
X410236Y254921D01*
X440364Y231290D02*
X456283D01*
X419291Y255512D02*
X423228Y251575D01*
X410827Y255512D02*
X419291D01*
X410236Y254921D02*
X410827Y255512D01*
X394882Y255118D02*
X410039D01*
X509842Y258268D02*
X511024Y257087D01*
X468110Y242126D02*
X484252Y258268D01*
X511024Y244685D02*
Y257087D01*
X473819Y189961D02*
X495866D01*
X470866Y192913D02*
X473819Y189961D01*
X470866Y192913D02*
Y203937D01*
X486221Y258268D02*
Y268110D01*
X484252Y258268D02*
X486221D01*
X509842D01*
X404724Y352165D02*
Y361024D01*
X400394Y365354D02*
X404724Y361024D01*
X433107Y251575D02*
X438008Y246673D01*
X423228Y251575D02*
X433107D01*
X438008Y233646D02*
Y246673D01*
Y233646D02*
X440364Y231290D01*
X453150Y284646D02*
X459448Y290944D01*
X453150Y283071D02*
Y284646D01*
X451968Y281890D02*
X453150Y283071D01*
X456283Y231290D02*
X457096Y232102D01*
Y237214D01*
X462205Y242323D01*
X400994Y338770D02*
X401575Y338189D01*
X396063Y338976D02*
X396269Y338770D01*
X400994D01*
X506487Y196644D02*
X506776D01*
X500994Y190862D02*
Y191151D01*
X506487Y196644D01*
X506776D02*
X507588Y197457D01*
Y197746D01*
X507677Y197835D01*
Y199114D01*
X498524Y189961D02*
X500092D01*
X500994Y190862D01*
X512500Y199114D02*
X514173Y200787D01*
X507677Y199114D02*
X512500D01*
D34*
X486221Y379921D02*
X487598D01*
X482677D02*
X486221D01*
X487598D02*
X506299Y361221D01*
X506890D01*
X493307Y379528D02*
X493701Y379134D01*
X524213Y383012D02*
Y394291D01*
X512598Y379134D02*
X520335D01*
X524213Y383012D01*
X519387Y382384D02*
X519387D01*
X519387D02*
Y382384D01*
X516339Y385433D02*
X519387Y382384D01*
X516339Y385433D02*
Y387598D01*
X490158Y382874D02*
X491929Y384646D01*
Y388583D01*
X493701Y379134D02*
X501575D01*
X508268Y395472D02*
X508661Y395079D01*
X516339D01*
X523425D01*
X524213Y394291D01*
X503543Y389764D02*
Y394094D01*
X501772Y387992D02*
X503543Y389764D01*
X498819Y387992D02*
X501772D01*
X495638Y391732D02*
X498819D01*
X492488Y388583D02*
X495638Y391732D01*
X491929Y388583D02*
X492488D01*
X498819Y395472D02*
X502165D01*
X503543Y394094D01*
X491929Y394291D02*
X493110Y395472D01*
X498819D01*
X483661Y394094D02*
X483858Y394291D01*
X491929D01*
D35*
X451362Y263779D02*
Y266519D01*
X453756Y263386D02*
X454043D01*
X453362Y263779D02*
X453756Y263386D01*
X450681D02*
X450969D01*
X451362Y263779D01*
Y266519D02*
X451378Y266535D01*
Y270276D01*
X453362Y263779D02*
Y266519D01*
X453346Y266535D02*
X453362Y266519D01*
X453346Y266535D02*
Y270276D01*
D36*
X402362Y312205D02*
X402850Y312692D01*
X406102D01*
X402456Y319779D02*
X406102D01*
X402362Y319685D02*
X402456Y319779D01*
X510925Y189961D02*
X513189D01*
X514173Y190945D01*
Y193307D01*
X513583Y193898D02*
X514173Y193307D01*
X510925Y193898D02*
X513583D01*
X510728Y189763D02*
X510925Y189961D01*
X507086Y189763D02*
X510728D01*
X506693Y189370D02*
X507086Y189763D01*
D37*
X419882Y205906D02*
X423622D01*
X427559Y201969D01*
X518307Y243307D02*
Y244488D01*
D38*
X409646Y220866D02*
D03*
Y203544D02*
D03*
X436417Y318504D02*
D03*
X444260Y312067D02*
D03*
X429134Y393701D02*
D03*
Y389764D02*
D03*
Y385827D02*
D03*
Y381890D02*
D03*
X425197Y393701D02*
D03*
Y389764D02*
D03*
Y385827D02*
D03*
Y381890D02*
D03*
X421260Y393701D02*
D03*
Y389764D02*
D03*
Y385827D02*
D03*
Y381890D02*
D03*
X420472Y350000D02*
D03*
X417322Y351180D02*
D03*
X421209Y353324D02*
D03*
X436811Y350920D02*
D03*
X477165Y343307D02*
D03*
X510433Y372835D02*
D03*
X493307Y379528D02*
D03*
X490158Y382874D02*
D03*
X519387Y382384D02*
D03*
X469095Y363189D02*
D03*
X449016Y362008D02*
D03*
X467323Y336221D02*
D03*
X440550Y279921D02*
D03*
X464764Y302165D02*
D03*
X526772Y238976D02*
D03*
X457874Y296063D02*
D03*
X431890Y318110D02*
D03*
X431496Y336614D02*
D03*
X474015Y279133D02*
D03*
X473622Y287402D02*
D03*
X427558Y281889D02*
D03*
X427362Y285236D02*
D03*
X427165Y288976D02*
D03*
X423621Y289370D02*
D03*
X415748Y299606D02*
D03*
X425591Y245669D02*
D03*
X417717Y249213D02*
D03*
X445669Y280709D02*
D03*
X456299Y222835D02*
D03*
X449606Y247638D02*
D03*
X457312Y264006D02*
D03*
X454043Y263386D02*
D03*
X450681D02*
D03*
X426772Y211417D02*
D03*
Y215354D02*
D03*
X489370Y254331D02*
D03*
X500394Y255512D02*
D03*
X418503Y288582D02*
D03*
X401575Y331496D02*
D03*
X446850Y293701D02*
D03*
X410236Y338570D02*
D03*
X474016Y215551D02*
D03*
X474409Y237008D02*
D03*
X468110Y242126D02*
D03*
X457873Y275590D02*
D03*
X511024Y257087D02*
D03*
X445276Y286614D02*
D03*
X470866Y203937D02*
D03*
X486221Y268110D02*
D03*
X498425Y233858D02*
D03*
X498424Y200393D02*
D03*
X491732Y239902D02*
D03*
X400394Y365354D02*
D03*
X444488Y296457D02*
D03*
X450387Y293701D02*
D03*
X454724Y296063D02*
D03*
X459448Y290944D02*
D03*
X451968Y281890D02*
D03*
X402362Y312205D02*
D03*
Y319685D02*
D03*
X445668Y317716D02*
D03*
X413779Y219685D02*
D03*
X400394Y221654D02*
D03*
X506174Y189764D02*
D03*
X501967Y196063D02*
D03*
X481496Y195276D02*
D03*
X482283Y207087D02*
D03*
X490551Y214961D02*
D03*
X466929Y206299D02*
D03*
X466535Y237402D02*
D03*
X440945Y235827D02*
D03*
X463779Y261811D02*
D03*
X436614Y262992D02*
D03*
X443703Y283467D02*
D03*
X429809Y272722D02*
D03*
X410236Y279134D02*
D03*
X491339Y290158D02*
D03*
X525984Y244488D02*
D03*
Y250787D02*
D03*
X491732Y244488D02*
D03*
Y249213D02*
D03*
X492126Y225590D02*
D03*
Y231496D02*
D03*
X427559Y201969D02*
D03*
X525197Y229921D02*
D03*
X405118Y339764D02*
D03*
X468504Y299606D02*
D03*
X474803Y305906D02*
D03*
X456693Y309055D02*
D03*
X455118Y316142D02*
D03*
X468504Y327559D02*
D03*
X524409Y234252D02*
D03*
X513386Y215354D02*
D03*
X514137Y218540D02*
D03*
X513386Y204331D02*
D03*
X508267Y192126D02*
D03*
X514173Y200787D02*
D03*
X514172Y208267D02*
D03*
D39*
X396063Y344724D02*
D03*
Y349724D02*
D03*
Y354724D02*
D03*
X520866Y277559D02*
D03*
Y282559D02*
D03*
Y287559D02*
D03*
Y262047D02*
D03*
Y267047D02*
D03*
Y272047D02*
D03*
X394882Y255118D02*
D03*
Y250118D02*
D03*
Y245118D02*
D03*
X396063Y318268D02*
D03*
Y313268D02*
D03*
Y308268D02*
D03*
Y338976D02*
D03*
Y333976D02*
D03*
Y328976D02*
D03*
D40*
X522205Y351496D02*
D03*
X512205D02*
D03*
X502205D02*
D03*
X522205Y341496D02*
D03*
X512205D02*
D03*
X502205D02*
D03*
X522205Y331496D02*
D03*
X512205D02*
D03*
X502205D02*
D03*
X522205Y321496D02*
D03*
X512205D02*
D03*
X502205D02*
D03*
X522205Y311496D02*
D03*
X512205D02*
D03*
X502205D02*
D03*
X522205Y301496D02*
D03*
X512205D02*
D03*
X502205D02*
D03*
D41*
X520866Y292559D02*
D03*
X394882Y240118D02*
D03*
X396063Y323976D02*
D03*
D42*
X396850Y381496D02*
D03*
Y391496D02*
D03*
D43*
X460000Y255118D02*
D03*
D44*
X440000D02*
D03*
M02*
