M48
;Layer_Color=9474304
;FILE_FORMAT=2:5
INCH,LZ
;TYPE=PLATED
T1F00S00C0.01181
T2F00S00C0.01575
T3F00S00C0.01968
T4F00S00C0.02362
T5F00S00C0.04000
;TYPE=NON_PLATED
T6F00S00C0.03543
T7F00S00C0.11811
%
T01
X0470866Y0203937
X0482283Y0207087
X0481496Y0195276
X0501967Y0196063
X0498424Y0200393
X0514173Y0200787
X0513386Y0204331
X0514172Y0208267
X0513386Y0215354
X0514137Y021854
X0525197Y0229921
X0524409Y0234252
X0526772Y0238976
X0525984Y0244488
Y0250787
X0511024Y0257087
X0500394Y0255512
X048937Y0254331
X0491732Y0249213
Y0244488
Y0239902
X0492126Y0231496
Y022559
X0490551Y0214961
X0474016Y0215551
X0474409Y0237008
X0498425Y0233858
X0486221Y026811
X0474015Y0279133
X0473622Y0287402
X0474803Y0305906
X0491339Y0290158
X0508267Y0192126
X0506174Y0189764
X0466929Y0206299
X0456299Y0222835
X0466535Y0237402
X046811Y0242126
X0463779Y0261811
X0457312Y0264006
X0454043Y0263386
X0450681
X0436614Y0262992
X0429809Y0272722
X0427558Y0281889
X0427362Y0285236
X0427165Y0288976
X0423621Y028937
X0418503Y0288582
X0415748Y0299606
X0402362Y0312205
X0410236Y0279134
X044055Y0279921
X0445669Y0280709
X0443703Y0283467
X0445276Y0286614
X044685Y0293701
X0450387Y0293701
X0454724Y0296063
X0457874
X0459448Y0290944
X0451968Y028189
X0457873Y027559
X0464764Y0302165
X0468504Y0299606
X0456693Y0309055
X044426Y0312067
X0444488Y0296457
X0449606Y0247638
X0440945Y0235827
X0425591Y0245669
X0417717Y0249213
X0413779Y0219685
X0400394Y0221654
X0426772Y0215354
Y0211417
X0427559Y0201969
X043189Y031811
X0436417Y0318504
X0445668Y0317716
X0455118Y0316142
X0468504Y0327559
X0467323Y0336221
X0431496Y0336614
X0436811Y035092
X0420472Y035
X0421209Y0353324
X0417322Y035118
X0410236Y033857
X0405118Y0339764
X0401575Y0331496
X0402362Y0319685
X0400394Y0365354
X042126Y038189
X0425197
X0429134
Y0385827
Y0389764
Y0393701
X0425197
Y0389764
Y0385827
X042126
Y0389764
Y0393701
X0449016Y0362008
X0469095Y0363189
X0477165Y0343307
X0493307Y0379528
X0490158Y0382874
X0519387Y0382384
X0510433Y0372835
T02
X049636Y0218898
X0501181
X0505905
X051063
X0457874
X0417717Y0291929
X0406102Y039626
T03
X050689Y0361221
T04
X0520866Y0262047
Y0267047
Y0272047
Y0277559
Y0282559
Y0287559
Y0292559
X0396063Y0308268
X0394882Y0255118
Y0250118
Y0245118
Y0240118
X0396063Y0313268
Y0318268
Y0323976
Y0328976
Y0333976
Y0338976
Y0344724
Y0349724
Y0354724
T05
X0502205Y0301496
Y0311496
X0512205
X0522205
Y0301496
X0512205
X046Y0255118
X044
X039685Y0381496
Y0391496
X0502205Y0351496
X0512205
X0522205
Y0341496
X0512205
X0502205
Y0331496
X0512205
X0522205
Y0321496
X0512205
X0502205
T06
X0409646Y0203544
Y0220866
T07
X0503937Y0283465
X0401575
M30
