M48
;Layer_Color=9474304
;FILE_FORMAT=2:5
INCH,LZ
;TYPE=PLATED
T1F00S00C0.01181
T2F00S00C0.01575
T3F00S00C0.01968
T4F00S00C0.02362
T5F00S00C0.04000
;TYPE=NON_PLATED
T6F00S00C0.03543
T7F00S00C0.11811
%
T01
X0475984Y0195472
X0470866Y0203937
Y0215158
X0482283Y0207087
X0490551Y0214961
X0492126Y0222244
X0498425Y0233858
X0491732Y0239902
X0491929Y0245866
X0491732Y0249213
X048937Y0254331
X0485236Y0258661
X0487598Y0261221
X0490354Y0263189
X049252Y0265945
X0486417Y0272047
X0483661Y0269882
X0481495Y0267322
X047933Y0264763
X0476575Y0258268
X0479331Y0275984
X0474015Y0279133
X0473622Y0287402
X0473819Y0304724
X0491339Y0290158
X050041Y025876
X0511024Y0261221
X0525984Y0250787
Y0244488
X0526772Y0238976
X0524409Y0234252
X0525197Y0229921
X0514137Y021854
X0514567Y0215354
X0514172Y0207874
X0513386Y0204331
X0514173Y0200787
X0508267Y0192126
X0506174Y0189764
X0501967Y0196063
X0498424Y0200393
X0480709Y0241535
X046811Y0242126
X0456102Y0241142
X0454043Y0263173
X0450681Y0263386
X0457873Y027559
X0451968Y028189
X0445669Y0280709
X0443779Y0283543
X0445276Y0286614
X0447638Y0290354
X0450387Y0293701
X0444882Y0294882
X0454724Y0296063
X0457874
X0459448Y0290944
X0464764Y0302165
X0468504Y0301772
X0456693Y0309055
X0444685Y0308465
X044059Y027996
X0427558Y0281889
X0427362Y0285236
X0427165Y0288976
X0423621Y028937
X0418503Y0288582
X0415748Y0299606
X0402362Y0312205
X0410236Y0279134
X0429527Y0272834
X0434252Y0256693
X0424016Y0256693
X0425591Y0245669
X0417717Y0249213
X0413779Y0219685
X0400394Y0221654
X0426772Y0215354
Y0211417
X0427559Y0201969
X0466929Y0206299
X0455905Y0316535
X0445668Y0317716
X0436417Y0318504
X043189Y031811
X0431496Y0336614
X0410236Y033857
X0405118Y0339764
X0400591Y0331693
X0402362Y0319685
X0417322Y035118
X0420472Y035
X042126Y038189
X0425197
X0429134
Y0385827
Y0389764
Y0393701
X0425197
Y0389764
Y0385827
X042126
Y0389764
Y0393701
X0400394Y0365354
X0449016Y0362008
X0467323Y0336221
X0468504Y0327559
X0477165Y0343307
X0469095Y0363189
X0499803Y0362008
X0510433Y0372835
X0519387Y0382384
X0493307Y0379528
X0490158Y0382874
T02
X0494882Y0217717
X0500131
X0505381
X051063
X0441535Y0236221
X0417717Y0291929
X0406102Y039626
X0520472Y0371457
T03
X050689Y0361221
T04
X0521063Y0261929
Y0266929
Y0271929
Y0277539
Y0282539
Y0287539
Y0292539
X0396063Y0307992
X0395472Y0255532
Y0250532
Y0245532
Y0240531
X0396063Y0312992
Y0317992
Y0323602
Y0328602
Y0333602
Y0338602
Y0343622
Y0348622
Y0353622
T05
X0470433Y0250197
X0502205Y0301496
X0512205
X0522205
Y0311496
X0512205
X0502205
X0450433Y0250197
X039626Y0381417
Y0391417
X0502205Y0351496
Y0341496
Y0331496
Y0321496
X0512205
X0522205
Y0331496
X0512205
Y0341496
X0522205
Y0351496
X0512205
T06
X0409646Y0203544
Y0220866
T07
X0503937Y0283465
X0401575
M30
